{
.appVersion = "3086";
classes = (
{
code = " A AE AEacute Aacute Abreve Acircumflex Adieresis Adotbelow Agrave Amacron Aogonek Aring Aringacute Atilde B C Cacute Ccaron Ccedilla Ccircumflex Cdotaccent D Dcaron Dcroat Delta E Eacute Ebreve Ecaron Ecircumflex Edieresis Edotaccent Edotbelow Egrave Emacron Eng Eogonek Eth Etilde Euro F G Gbreve Gcaron Gcedilla Gcircumflex Gdotaccent Germandbls H Hbar Hcircumflex I I.alt IJ IJacute Iacute Iacute.alt Ibreve Ibreve.alt Icircumflex Icircumflex.alt Idieresis Idieresis.alt Idotaccent Idotaccent.alt Idotbelow Idotbelow.alt Igrave Igrave.alt Imacron Imacron.alt Iogonek Iogonek.alt Itilde Itilde.alt J J.alt Jcircumflex Jcircumflex.alt K Kcedilla L Lacute Lcaron Lcedilla Ldot Lslash M N Nacute Ncaron Ncedilla Nhookleft Ntilde O OE Oacute Obreve Ocircumflex Odieresis Odotbelow Ograve Ohungarumlaut Omacron Omega Oogonek Oslash Oslashacute Otilde P Q R Racute Rcaron Rcedilla S Sacute Scaron Scedilla Schwa Scircumflex Scommaaccent T Tbar Tcaron Tcedilla Tcommaaccent Thorn U Uacute Ubreve Ucircumflex Udieresis Udotbelow Ugrave Uhungarumlaut Umacron Uogonek Uring Utilde V W Wacute Wcircumflex Wdieresis Wgrave X Y Yacute Ycircumflex Ydieresis Ygrave Ymacron Ytilde Z Zacute Zcaron Zdotaccent ";
name = uppercase;
},
{
code = " zero one two three four five six seven eight nine ";
name = default;
},
{
code = " zero.pl one.pl two.pl three.pl four.pl five.pl six.pl seven.pl eight.pl nine.pl ";
name = proportional;
},
{
code = " zero one two three four five six seven eight nine ";
name = tabular;
},
{
code = " I Iacute Ibreve Icircumflex Idieresis Idotaccent Idotbelow Igrave Imacron Iogonek Itilde J Jcircumflex ";
name = I_J_alt_off;
},
{
code = " I.alt Iacute.alt Ibreve.alt Icircumflex.alt Idieresis.alt Idotaccent.alt Idotbelow.alt Igrave.alt Imacron.alt Iogonek.alt Itilde.alt J.alt Jcircumflex.alt ";
name = I_J_alt_on;
},
{

glyphs = (
{
color = 5;
glyphname = A;
layers = (
{
anchors = (
{
name = bottom;
position = "{328, 0}";
},
{
name = ogonek;
position = "{486, 0}";
},
{
name = top;
position = "{327, 690}";
}
);
layerId = master01;
paths = (
{
closed = 1;
nodes = (
"166 0 LINE",
"343 534 LINE",
"335 690 LINE",
"251 690 LINE",
"0 0 LINE"
);
},
{
closed = 1;
nodes = (
"495 136 LINE",
"495 263 LINE",
"169 263 LINE",
"169 136 LINE"
);
},
{
closed = 1;
nodes = (
"486 0 LINE",
"656 0 LINE",
"405 690 LINE",
"313 690 LINE",
"309 534 LINE"
);
}
);
userData = {
com.schriftgestaltung.Glyphs.lastChange = "2021-03-11 04:15:08 +0000";
};
width = 656;
},
{
anchors = (
{
name = bottom;
position = "{275, 0}";
},
{
name = ogonek;
position = "{403, 0}";
},
{
name = top;
position = "{275, 690}";
}
);
layerId = master02;
paths = (
{
closed = 1;
nodes = (
"143 0 LINE",
"283 544 LINE",
"276 690 LINE",
"195 690 LINE",
"-2 0 LINE"
);
},
{
closed = 1;
nodes = (
"414 145 LINE",
"414 266 LINE",
"144 266 LINE",
"144 145 LINE"
);
},
{
closed = 1;
nodes = (
"405 0 LINE",
"553 0 LINE",
"356 690 LINE",
"268 690 LINE",
"265 544 LINE"
);
}
);
userData = {
com.schriftgestaltung.Glyphs.lastChange = "2021-03-11 05:51:32 +0000";
};
width = 551;
},
{
anchors = (
{
name = bottom;
position = "{247, 0}";
},
{
name = ogonek;
position = "{410, 0}";
},
{
name = top;
position = "{240, 690}";
}
);
layerId = master03;
paths = (
{
closed = 1;
nodes = (
"77 0 LINE",
"255 654 LINE",
"253 690 LINE",
"216 690 LINE",
"15 0 LINE"
);
},
{
closed = 1;
nodes = (
"363 226 LINE",
"363 280 LINE",
"119 280 LINE",
"119 226 LINE"
);
},
{
closed = 1;
nodes = (
"410 0 LINE",
"475 0 LINE",
"268 690 LINE",
"227 690 LINE",
"229 654 LINE"
);
}
);
userData = {
com.schriftgestaltung.Glyphs.lastChange = "2021-03-30 22:34:27 +0000";
};
width = 490;
},
{
anchors = (
{
name = bottom;
position = "{263, 0}";
},
{
name = ogonek;
position = "{416, 0}";
},
{
name = top;
position = "{262, 690}";
}
);
layerId = master04;
paths = (
{
closed = 1;
nodes = (
"105 0 LINE",
"272 616 LINE",
"268 690 LINE",
"212 690 LINE",
"15 0 LINE"
);
},
{
closed = 1;
nodes = (
"403 177 LINE",
"403 261 LINE",
"124 261 LINE",
"124 177 LINE"
);
},
{
closed = 1;
nodes = (
"417 0 LINE",
"510 0 LINE",
"313 690 LINE",
"251 690 LINE",
"250 616 LINE"
);
}
);
userData = {
com.schriftgestaltung.Glyphs.lastChange = "2021-03-11 04:56:33 +0000";
};
width = 525;
},
{
anchors = (
{
name = bottom;
position = "{295, 0}";
},
{
name = ogonek;
position = "{505, 0}";
},
{
name = top;
position = "{295, 690}";
}
);
layerId = master05;
paths = (
{
closed = 1;
nodes = (
"82 0 LINE",
"311 645 LINE",
"309 690 LINE",
"269 690 LINE",
"20 0 LINE"
);
},
{
closed = 1;
nodes = (
"440 226 LINE",
"440 280 LINE",
"147 280 LINE",
"147 226 LINE"
);
},
{
closed = 1;
nodes = (
"505 0 LINE",
"570 0 LINE",
"321 690 LINE",
"277 690 LINE",
"279 645 LINE"
);
}
);
userData = {
com.schriftgestaltung.Glyphs.lastChange = "2021-03-11 21:11:18 +0000";
};
width = 590;
},
{
anchors = (
{
name = bottom;
position = "{328, 0}";
},
{
name = ogonek;
position = "{532, 0}";
},
{
name = top;
position = "{328, 690}";
}
);
layerId = master06;
paths = (
{
closed = 1;
nodes = (
"120 0 LINE",
"343 600 LINE",
"335 690 LINE",
"286 690 LINE",
"20 0 LINE"
);
},
{
closed = 1;
nodes = (
"506 194 LINE",
"506 280 LINE",
"150 280 LINE",
"150 194 LINE"
);
},
{
closed = 1;
nodes = (
"532 0 LINE",
"636 0 LINE",
"370 690 LINE",
"313 690 LINE",
"309 600 LINE"
);
}
);
userData = {
com.schriftgestaltung.Glyphs.lastChange = "2021-03-11 21:46:06 +0000";
};
width = 656;
}
);
leftKerningGroup = A;
rightKerningGroup = A;
unicode = 0041;
},
{
color = 5;
glyphname = AE;
layers = (
{
anchors = (
{
name = top;
position = "{585, 690}";
}
);
layerId = master01;
paths = (
{
closed = 1;
nodes = (
"170 0 LINE",
"390 590 LINE",
"360 690 LINE",
"275 690 LINE",
"0 0 LINE"
);
},
{
closed = 1;
nodes = (
"495 136 LINE",
"495 263 LINE",
"169 263 LINE",
"169 136 LINE"
);
},
{
closed = 1;
nodes = (
"585 0 LINE",
"585 690 LINE",
"425 690 LINE",
"425 0 LINE"
);
},
{
closed = 1;
nodes = (
"915 0 LINE",
"915 140 LINE",
"499 140 LINE",
"499 0 LINE"
);
},
{
closed = 1;
nodes = (
"863 282 LINE",
"863 414 LINE",
"499 414 LINE",
"499 282 LINE"
);
},
{
closed = 1;
nodes = (
"910 550 LINE",
"910 690 LINE",
"330 690 LINE",
"330 550 LINE"
);
}
);
userData = {
com.schriftgestaltung.Glyphs.lastChange = "2021-03-11 23:09:35 +0000";
};
width = 975;
},
{
anchors = (
{
name = top;
position = "{492, 690}";
}
);
layerId = master02;
paths = (
{
closed = 1;
nodes = (
"150 0 LINE",
"334 594 LINE",
"303 690 LINE",
"223 690 LINE",
"-1 0 LINE"
);
},
{
closed = 1;
nodes = (
"414 145 LINE",
"414 266 LINE",
"144 266 LINE",
"144 145 LINE"
);
},
{
closed = 1;
nodes = (
"497 0 LINE",
"497 690 LINE",
"355 690 LINE",
"355 0 LINE"
);
},
{
closed = 1;
nodes = (
"771 0 LINE",
"771 132 LINE",
"420 132 LINE",
"420 0 LINE"
);
},
{
closed = 1;
nodes = (
"728 286 LINE",
"728 411 LINE",
"420 411 LINE",
"420 286 LINE"
);
},
{
closed = 1;
nodes = (
"767 558 LINE",
"767 690 LINE",
"278 690 LINE",
"278 558 LINE"
);
}
);
userData = {
com.schriftgestaltung.Glyphs.lastChange = "2021-03-11 05:51:32 +0000";
};
width = 821;
},
{
anchors = (
{
name = top;
position = "{433, 690}";
}
);
layerId = master03;
paths = (
{
closed = 1;
nodes = (
"67 0 LINE",
"346 645 LINE",
"344 690 LINE",
"304 690 LINE",
"5 0 LINE"
);
},
{
closed = 1;
nodes = (
"395 226 LINE",
"395 280 LINE",
"142 280 LINE",
"142 226 LINE"
);
},
{
closed = 1;
nodes = (
"432 0 LINE",
"432 690 LINE",
"370 690 LINE",
"370 0 LINE"
);
},
{
closed = 1;
nodes = (
"678 0 LINE",
"678 54 LINE",
"400 54 LINE",
"400 0 LINE"
);
},
{
closed = 1;
nodes = (
"627 322 LINE",
"627 374 LINE",
"400 374 LINE",
"400 322 LINE"
);
},
{
closed = 1;
nodes = (
"673 636 LINE",
"673 690 LINE",
"335 690 LINE",
"335 636 LINE"
);
}
);
userData = {
com.schriftgestaltung.Glyphs.lastChange = "2021-03-11 04:50:28 +0000";
};
width = 733;
},
{
anchors = (
{
name = top;
position = "{465, 690}";
}
);
layerId = master04;
paths = (
{
closed = 1;
nodes = (
"100 0 LINE",
"310 622 LINE",
"287 690 LINE",
"242 690 LINE",
"6 0 LINE"
);
},
{
closed = 1;
nodes = (
"403 197 LINE",
"403 281 LINE",
"124 281 LINE",
"124 197 LINE"
);
},
{
closed = 1;
nodes = (
"439 0 LINE",
"439 690 LINE",
"349 690 LINE",
"349 0 LINE"
);
},
{
closed = 1;
nodes = (
"718 0 LINE",
"718 83 LINE",
"394 83 LINE",
"394 0 LINE"
);
},
{
closed = 1;
nodes = (
"675 308 LINE",
"675 392 LINE",
"394 392 LINE",
"394 308 LINE"
);
},
{
closed = 1;
nodes = (
"714 607 LINE",
"714 690 LINE",
"260 690 LINE",
"260 607 LINE"
);
}
);
userData = {
com.schriftgestaltung.Glyphs.lastChange = "2021-03-11 04:56:33 +0000";
};
width = 772;
},
{
anchors = (
{
name = top;
position = "{520, 690}";
}
);
layerId = master05;
paths = (
{
closed = 1;
nodes = (
"72 0 LINE",
"351 645 LINE",
"349 690 LINE",
"309 690 LINE",
"10 0 LINE"
);
},
{
closed = 1;
nodes = (
"440 226 LINE",
"440 280 LINE",
"147 280 LINE",
"147 226 LINE"
);
},
{
closed = 1;
nodes = (
"477 0 LINE",
"477 690 LINE",
"415 690 LINE",
"415 0 LINE"
);
},
{
closed = 1;
nodes = (
"831 0 LINE",
"831 54 LINE",
"445 54 LINE",
"445 0 LINE"
);
},
{
closed = 1;
nodes = (
"780 322 LINE",
"780 374 LINE",
"445 374 LINE",
"445 322 LINE"
);
},
{
closed = 1;
nodes = (
"826 636 LINE",
"826 690 LINE",
"340 690 LINE",
"340 636 LINE"
);
}
);
userData = {
com.schriftgestaltung.Glyphs.lastChange = "2021-03-11 21:11:18 +0000";
};
width = 901;
},
{
anchors = (
{
name = top;
position = "{580, 690}";
}
);
layerId = master06;
paths = (
{
closed = 1;
nodes = (
"110 0 LINE",
"370 620 LINE",
"355 690 LINE",
"308 690 LINE",
"10 0 LINE"
);
},
{
closed = 1;
nodes = (
"506 194 LINE",
"506 280 LINE",
"150 280 LINE",
"150 194 LINE"
);
},
{
closed = 1;
nodes = (
"536 0 LINE",
"536 690 LINE",
"440 690 LINE",
"440 0 LINE"
);
},
{
closed = 1;
nodes = (
"891 0 LINE",
"891 86 LINE",
"490 86 LINE",
"490 0 LINE"
);
},
{
closed = 1;
nodes = (
"836 307 LINE",
"836 393 LINE",
"490 393 LINE",
"490 307 LINE"
);
},
{
closed = 1;
nodes = (
"886 604 LINE",
"886 690 LINE",
"320 690 LINE",
"320 604 LINE"
);
}
);
userData = {
com.schriftgestaltung.Glyphs.lastChange = "2021-03-11 21:46:06 +0000";
};
width = 961;
}
);
leftKerningGroup = AE;
rightKerningGroup = E;
unicode = 00C6;
},
{
color = 5;
glyphname = B;
layers = (
{
layerId = master01;
paths = (
{
closed = 1;
nodes = (
"245 0 LINE",
"245 690 LINE",
"85 690 LINE",
"85 0 LINE"
);
},
{
closed = 1;
nodes = (
"367 0 LINE SMOOTH",
"500.716 0 OFFCURVE",
"604 70.698 OFFCURVE",
"604 190 CURVE SMOOTH",
"604 309.758 OFFCURVE",
"508 388 OFFCURVE",
"367 388 CURVE SMOOTH",
"159 388 LINE",
"159 288 LINE",
"352 288 LINE SMOOTH",
"405 288 OFFCURVE",
"441 262 OFFCURVE",
"441 211 CURVE SMOOTH",
"441 160 OFFCURVE",
"405 134 OFFCURVE",
"352 134 CURVE SMOOTH",
"159 134 LINE",
"159 0 LINE"
);
},
{
closed = 1;
nodes = (
"342 328 LINE SMOOTH",
"473 328 OFFCURVE",
"574 389 OFFCURVE",
"574 505 CURVE SMOOTH",
"574 620 OFFCURVE",
"472.895 690 OFFCURVE",
"342 690 CURVE SMOOTH",
"159 690 LINE",
"159 556 LINE",
"332 556 LINE SMOOTH",
"382 556 OFFCURVE",
"416 531 OFFCURVE",
"416 484 CURVE SMOOTH",
"416 437 OFFCURVE",
"382 412 OFFCURVE",
"332 412 CURVE SMOOTH",
"159 412 LINE",
"159 328 LINE"
);
}
);
userData = {
com.schriftgestaltung.Glyphs.lastChange = "2021-03-11 04:15:19 +0000";
};
width = 654;
},
{
layerId = master02;
paths = (
{
closed = 1;
nodes = (
"212 0 LINE",
"212 690 LINE",
"70 690 LINE",
"70 0 LINE"
);
},
{
closed = 1;
nodes = (
"298 0 LINE SMOOTH",
"423 0 OFFCURVE",
"518 70 OFFCURVE",
"518 201 CURVE SMOOTH",
"518 316 OFFCURVE",
"448 387 OFFCURVE",
"298 387 CURVE SMOOTH",
"135 387 LINE",
"135 296 LINE",
"285 296 LINE SMOOTH",
"347 296 OFFCURVE",
"376 266 OFFCURVE",
"376 209 CURVE SMOOTH",
"376 153 OFFCURVE",
"347 123 OFFCURVE",
"285 123 CURVE SMOOTH",
"135 123 LINE",
"135 0 LINE"
);
},
{
closed = 1;
nodes = (
"276 329 LINE SMOOTH",
"407 329 OFFCURVE",
"493 402 OFFCURVE",
"493 510 CURVE SMOOTH",
"493 623 OFFCURVE",
"407 690 OFFCURVE",
"276 690 CURVE SMOOTH",
"135 690 LINE",
"135 567 LINE",
"267 567 LINE SMOOTH",
"328 567 OFFCURVE",
"355 538 OFFCURVE",
"355 486 CURVE SMOOTH",
"355 434 OFFCURVE",
"328 406 OFFCURVE",
"267 406 CURVE SMOOTH",
"135 406 LINE",
"135 329 LINE"
);
}
);
userData = {
com.schriftgestaltung.Glyphs.lastChange = "2021-03-11 05:51:32 +0000";
};
width = 550;
},
{
layerId = master03;
paths = (
{
closed = 1;
nodes = (
"139 0 LINE",
"139 690 LINE",
"77 690 LINE",
"77 0 LINE"
);
},
{
closed = 1;
nodes = (
"227 0 LINE SMOOTH",
"356 0 OFFCURVE",
"453 70 OFFCURVE",
"453 187 CURVE SMOOTH",
"453 303 OFFCURVE",
"355 370 OFFCURVE",
"226 370 CURVE SMOOTH",
"107 370 LINE",
"107 330 LINE",
"221 330 LINE SMOOTH",
"323 330 OFFCURVE",
"389 280 OFFCURVE",
"389 192 CURVE SMOOTH",
"389 104 OFFCURVE",
"323 54 OFFCURVE",
"221 54 CURVE SMOOTH",
"107 54 LINE",
"107 0 LINE"
);
},
{
closed = 1;
nodes = (
"206 340 LINE SMOOTH",
"332 340 OFFCURVE",
"428 403 OFFCURVE",
"428 513 CURVE SMOOTH",
"428 624 OFFCURVE",
"334 690 OFFCURVE",
"208 690 CURVE SMOOTH",
"107 690 LINE",
"107 636 LINE",
"201 636 LINE SMOOTH",
"300 636 OFFCURVE",
"364 590 OFFCURVE",
"364 508 CURVE SMOOTH",
"364 426 OFFCURVE",
"300 380 OFFCURVE",
"201 380 CURVE SMOOTH",
"107 380 LINE",
"107 340 LINE"
);
}
);
userData = {
com.schriftgestaltung.Glyphs.lastChange = "2021-03-30 22:59:08 +0000";
};
width = 499;
},
{
layerId = master04;
paths = (
{
closed = 1;
nodes = (
"167 0 LINE",
"167 690 LINE",
"77 690 LINE",
"77 0 LINE"
);
},
{
closed = 1;
nodes = (
"268 0 LINE",
"391 0 OFFCURVE",
"473 68 OFFCURVE",
"473 195 CURVE SMOOTH",
"473 324 OFFCURVE",
"392 380 OFFCURVE",
"268 380 CURVE",
"122 380 LINE",
"122 315 LINE",
"262 315 LINE",
"339 315 OFFCURVE",
"381 279 OFFCURVE",
"381 199 CURVE SMOOTH",
"381 119 OFFCURVE",
"338 81 OFFCURVE",
"262 81 CURVE",
"122 81 LINE",
"122 0 LINE"
);
},
{
closed = 1;
nodes = (
"253 335 LINE",
"371 335 OFFCURVE",
"451 395 OFFCURVE",
"451 505 CURVE SMOOTH",
"451 625 OFFCURVE",
"371 690 OFFCURVE",
"253 690 CURVE",
"122 690 LINE",
"122 609 LINE",
"248 609 LINE",
"321 609 OFFCURVE",
"359 574 OFFCURVE",
"359 501 CURVE SMOOTH",
"359 428 OFFCURVE",
"320 395 OFFCURVE",
"248 395 CURVE",
"122 395 LINE",
"122 335 LINE"
);
}
);
userData = {
com.schriftgestaltung.Glyphs.lastChange = "2021-03-11 04:56:33 +0000";
};
width = 519;
},
{
layerId = master05;
paths = (
{
closed = 1;
nodes = (
"172 0 LINE",
"172 690 LINE",
"110 690 LINE",
"110 0 LINE"
);
},
{
closed = 1;
nodes = (
"324 0 LINE SMOOTH",
"453 0 OFFCURVE",
"551 70 OFFCURVE",
"551 187 CURVE SMOOTH",
"551 303 OFFCURVE",
"453 370 OFFCURVE",
"324 370 CURVE SMOOTH",
"140 370 LINE",
"140 330 LINE",
"319 330 LINE SMOOTH",
"421 330 OFFCURVE",
"487 280 OFFCURVE",
"487 192 CURVE SMOOTH",
"487 104 OFFCURVE",
"421 54 OFFCURVE",
"319 54 CURVE SMOOTH",
"140 54 LINE",
"140 0 LINE"
);
},
{
closed = 1;
nodes = (
"304 340 LINE SMOOTH",
"430 340 OFFCURVE",
"526 403 OFFCURVE",
"526 513 CURVE SMOOTH",
"526 624 OFFCURVE",
"430 690 OFFCURVE",
"304 690 CURVE SMOOTH",
"140 690 LINE",
"140 636 LINE",
"299 636 LINE SMOOTH",
"398 636 OFFCURVE",
"462 590 OFFCURVE",
"462 508 CURVE SMOOTH",
"462 426 OFFCURVE",
"398 380 OFFCURVE",
"299 380 CURVE SMOOTH",
"140 380 LINE",
"140 340 LINE"
);
}
);
userData = {
com.schriftgestaltung.Glyphs.lastChange = "2021-03-11 21:11:18 +0000";
};
width = 621;
},
{
layerId = master06;
paths = (
{
closed = 1;
nodes = (
"196 0 LINE",
"196 690 LINE",
"100 690 LINE",
"100 0 LINE"
);
},
{
closed = 1;
nodes = (
"358 0 LINE SMOOTH",
"484 0 OFFCURVE",
"587 68 OFFCURVE",
"587 195 CURVE SMOOTH",
"587 315 OFFCURVE",
"484 380 OFFCURVE",
"358 380 CURVE SMOOTH",
"150 380 LINE",
"150 314 LINE",
"353 314 LINE SMOOTH",
"430 314 OFFCURVE",
"488 273 OFFCURVE",
"488 200 CURVE SMOOTH",
"488 126 OFFCURVE",
"429 84 OFFCURVE",
"353 84 CURVE SMOOTH",
"150 84 LINE",
"150 0 LINE"
);
},
{
closed = 1;
nodes = (
"340 335 LINE",
"461 335 OFFCURVE",
"559 395 OFFCURVE",
"559 505 CURVE SMOOTH",
"559 625 OFFCURVE",
"461 690 OFFCURVE",
"340 690 CURVE SMOOTH",
"150 690 LINE",
"150 606 LINE",
"335 606 LINE SMOOTH",
"407 606 OFFCURVE",
"460 567 OFFCURVE",
"460 500 CURVE SMOOTH",
"460 433 OFFCURVE",
"406 396 OFFCURVE",
"335 396 CURVE SMOOTH",
"150 396 LINE",
"150 335 LINE"
);
}
);
userData = {
com.schriftgestaltung.Glyphs.lastChange = "2021-03-11 21:46:06 +0000";
};
width = 647;
}
);
leftKerningGroup = H;
unicode = 0042;
},
{
color = 5;
glyphname = C;
layers = (
{
anchors = (
{
name = bottom;
position = "{377, 0}";
},
{
name = top;
position = "{377, 690}";
}
);
layerId = master01;
paths = (
{
closed = 1;
nodes = (
"45 122 OFFCURVE",
"204 -12 OFFCURVE",
"389 -12 CURVE SMOOTH",
"480 -12 OFFCURVE",
"550 15 OFFCURVE",
"618 69 CURVE",
"526 193 LINE",
"485 160 OFFCURVE",
"437 138 OFFCURVE",
"383 138 CURVE SMOOTH",
"286 138 OFFCURVE",
"208 207 OFFCURVE",
"208 345 CURVE SMOOTH",
"208 483 OFFCURVE",
"286 552 OFFCURVE",
"382 552 CURVE SMOOTH",
"437 552 OFFCURVE",
"484 532 OFFCURVE",
"526 504 CURVE",
"613 632 LINE",
"543 678 OFFCURVE",
"474 702 OFFCURVE",
"387 702 CURVE SMOOTH",
"204 702 OFFCURVE",
"45 568 OFFCURVE",
"45 345 CURVE SMOOTH"
);
}
);
userData = {
com.schriftgestaltung.Glyphs.lastChange = "2021-03-11 04:15:19 +0000";
};
width = 653;
},
{
anchors = (
{
name = bottom;
position = "{318, 0}";
},
{
name = top;
position = "{318, 690}";
}
);
guideLines = (
{
angle = 90;
position = "{518, 628}";
}
);
layerId = master02;
paths = (
{
closed = 1;
nodes = (
"36 104 OFFCURVE",
"160.915 -12 OFFCURVE",
"309 -12 CURVE SMOOTH",
"399.153 -12 OFFCURVE",
"464.186 22 OFFCURVE",
"522 76 CURVE",
"446 186 LINE",
"411.136 152 OFFCURVE",
"370.252 130 OFFCURVE",
"325 130 CURVE SMOOTH",
"245.901 130 OFFCURVE",
"181 207 OFFCURVE",
"181 340 CURVE SMOOTH",
"181 483 OFFCURVE",
"245 562 OFFCURVE",
"322 562 CURVE SMOOTH",
"368 562 OFFCURVE",
"407 542 OFFCURVE",
"443 512 CURVE",
"518 628 LINE",
"457.372 676 OFFCURVE",
"400 702 OFFCURVE",
"325 702 CURVE SMOOTH",
"151 702 OFFCURVE",
"36 560 OFFCURVE",
"36 347 CURVE SMOOTH"
);
}
);
userData = {
com.schriftgestaltung.Glyphs.lastChange = "2021-03-11 05:51:32 +0000";
com.typemytype.robofont.guideline.magnetic.e62IUsTTTD = 5;
};
width = 550;
},
{
anchors = (
{
name = bottom;
position = "{268, 0}";
},
{
name = top;
position = "{268, 690}";
}
);
layerId = master03;
paths = (
{
closed = 1;
nodes = (
"45 112 OFFCURVE",
"125 -8 OFFCURVE",
"283 -8 CURVE",
"342 -8 OFFCURVE",
"411 27 OFFCURVE",
"447 87 CURVE",
"407 121 LINE",
"375 76 OFFCURVE",
"327 49 OFFCURVE",
"283 49 CURVE",
"167 49 OFFCURVE",
"109 148 OFFCURVE",
"109 345 CURVE",
"109 542 OFFCURVE",
"155 641 OFFCURVE",
"280 641 CURVE SMOOTH",
"315 641 OFFCURVE",
"348 627 OFFCURVE",
"384 589 CURVE",
"424 629 LINE",
"387 675 OFFCURVE",
"333 698 OFFCURVE",
"278 698 CURVE SMOOTH",
"128 698 OFFCURVE",
"45 578 OFFCURVE",
"45 345 CURVE"
);
}
);
userData = {
com.schriftgestaltung.Glyphs.lastChange = "2021-03-30 23:59:03 +0000";
};
width = 483;
},
{
anchors = (
{
name = bottom;
position = "{293, 0}";
},
{
name = top;
position = "{293, 690}";
}
);
layerId = master04;
paths = (
{
closed = 1;
nodes = (
"45 106 OFFCURVE",
"161.089 -10 OFFCURVE",
"300 -10 CURVE SMOOTH",
"371.793 -10 OFFCURVE",
"430.441 20 OFFCURVE",
"481 75 CURVE",
"427 135 LINE",
"393.897 96.655 OFFCURVE",
"354 78 OFFCURVE",
"307 78 CURVE SMOOTH",
"216 78 OFFCURVE",
"138 160 OFFCURVE",
"138 345 CURVE SMOOTH",
"138 529 OFFCURVE",
"210 612 OFFCURVE",
"306 612 CURVE SMOOTH",
"348 612 OFFCURVE",
"387 594 OFFCURVE",
"416 560 CURVE",
"475 622 LINE",
"435 671 OFFCURVE",
"373 700 OFFCURVE",
"305 700 CURVE SMOOTH",
"163 700 OFFCURVE",
"45 583 OFFCURVE",
"45 345 CURVE SMOOTH"
);
}
);
userData = {
com.schriftgestaltung.Glyphs.lastChange = "2021-03-17 10:40:20 +0000";
};
width = 517;
},
{
anchors = (
{
name = bottom;
position = "{351, 0}";
},
{
name = top;
position = "{351, 690}";
}
);
layerId = master05;
paths = (
{
closed = 1;
nodes = (
"70 112 OFFCURVE",
"201 -8 OFFCURVE",
"361 -8 CURVE",
"440 -8 OFFCURVE",
"517 25 OFFCURVE",
"571 91 CURVE",
"523 128 LINE",
"483 77 OFFCURVE",
"422 49 OFFCURVE",
"361 49 CURVE",
"234 49 OFFCURVE",
"134 148 OFFCURVE",
"134 345 CURVE",
"134 542 OFFCURVE",
"236 641 OFFCURVE",
"361 641 CURVE SMOOTH",
"424 641 OFFCURVE",
"478 616 OFFCURVE",
"518 565 CURVE",
"566 602 LINE",
"512 668 OFFCURVE",
"442 698 OFFCURVE",
"361 698 CURVE SMOOTH",
"203 698 OFFCURVE",
"70 578 OFFCURVE",
"70 345 CURVE"
);
}
);
userData = {
com.schriftgestaltung.Glyphs.lastChange = "2021-03-11 21:11:18 +0000";
};
width = 626;
},
{
anchors = (
{
name = bottom;
position = "{363, 0}";
},
{
name = top;
position = "{363, 690}";
}
);
layerId = master06;
paths = (
{
closed = 1;
nodes = (
"60 116 OFFCURVE",
"202 -10 OFFCURVE",
"373 -10 CURVE SMOOTH",
"460 -10 OFFCURVE",
"534 23 OFFCURVE",
"594 84 CURVE",
"529 149 LINE",
"488 103 OFFCURVE",
"435 81 OFFCURVE",
"373 81 CURVE SMOOTH",
"250 81 OFFCURVE",
"159 172 OFFCURVE",
"159 345 CURVE SMOOTH",
"159 517 OFFCURVE",
"250 609 OFFCURVE",
"373 609 CURVE SMOOTH",
"428 609 OFFCURVE",
"477 586 OFFCURVE",
"518 543 CURVE",
"586 608 LINE",
"526 666 OFFCURVE",
"453 700 OFFCURVE",
"373 700 CURVE SMOOTH",
"202 700 OFFCURVE",
"60 573 OFFCURVE",
"60 345 CURVE SMOOTH"
);
}
);
userData = {
com.schriftgestaltung.Glyphs.lastChange = "2021-03-11 21:46:06 +0000";
};
width = 644;
}
);
leftKerningGroup = O;
rightKerningGroup = C;
unicode = 0043;
},
{
color = 5;
glyphname = D;
layers = (
{
anchors = (
{
name = top;
position = "{322, 690}";
}
);
layerId = master01;
paths = (
{
closed = 1;
nodes = (
"245 0 LINE",
"245 690 LINE",
"85 690 LINE",
"85 0 LINE"
);
},
{
closed = 1;
nodes = (
"347 0 LINE SMOOTH",
"534 0 OFFCURVE",
"679 128 OFFCURVE",
"679 345 CURVE SMOOTH",
"679 562 OFFCURVE",
"534 690 OFFCURVE",
"347 690 CURVE SMOOTH",
"159 690 LINE",
"159 550 LINE",
"332 550 LINE SMOOTH",
"442 550 OFFCURVE",
"516 482 OFFCURVE",
"516 345 CURVE SMOOTH",
"516 208 OFFCURVE",
"442 140 OFFCURVE",
"332 140 CURVE SMOOTH",
"159 140 LINE",
"159 0 LINE"
);
}
);
userData = {
com.schriftgestaltung.Glyphs.lastChange = "2021-03-11 21:46:45 +0000";
};
width = 724;
},
{
anchors = (
{
name = top;
position = "{272, 690}";
}
);
layerId = master02;
paths = (
{
closed = 1;
nodes = (
"212 0 LINE",
"212 690 LINE",
"70 690 LINE",
"70 0 LINE"
);
},
{
closed = 1;
nodes = (
"294 0 LINE SMOOTH",
"453 0 OFFCURVE",
"575 119 OFFCURVE",
"575 350 CURVE SMOOTH",
"575 575 OFFCURVE",
"453 690 OFFCURVE",
"294 690 CURVE SMOOTH",
"135 690 LINE",
"135 558 LINE",
"281 558 LINE SMOOTH",
"371 558 OFFCURVE",
"430 496 OFFCURVE",
"430 345 CURVE SMOOTH",
"430 194 OFFCURVE",
"371 132 OFFCURVE",
"281 132 CURVE SMOOTH",
"135 132 LINE",
"135 0 LINE"
);
}
);
userData = {
com.schriftgestaltung.Glyphs.lastChange = "2021-03-11 05:51:32 +0000";
};
width = 611;
},
{
anchors = (
{
name = top;
position = "{231, 690}";
}
);
layerId = master03;
paths = (
{
closed = 1;
nodes = (
"139 0 LINE",
"139 690 LINE",
"77 690 LINE",
"77 0 LINE"
);
},
{
closed = 1;
nodes = (
"231 0 LINE SMOOTH",
"363 0 OFFCURVE",
"473 112 OFFCURVE",
"473 345 CURVE SMOOTH",
"473 578 OFFCURVE",
"363 690 OFFCURVE",
"231 690 CURVE SMOOTH",
"107 690 LINE",
"107 636 LINE",
"226 636 LINE SMOOTH",
"328 636 OFFCURVE",
"409 542 OFFCURVE",
"409 345 CURVE SMOOTH",
"409 148 OFFCURVE",
"328 54 OFFCURVE",
"226 54 CURVE SMOOTH",
"107 54 LINE",
"107 0 LINE"
);
}
);
userData = {
com.schriftgestaltung.Glyphs.lastChange = "2021-03-30 23:21:30 +0000";
};
width = 518;
},
{
anchors = (
{
name = top;
position = "{249, 690}";
}
);
layerId = master04;
paths = (
{
closed = 1;
nodes = (
"167 0 LINE",
"167 690 LINE",
"77 690 LINE",
"77 0 LINE"
);
},
{
closed = 1;
nodes = (
"247 0 LINE SMOOTH",
"418.496 0 OFFCURVE",
"521 113 OFFCURVE",
"521 345 CURVE SMOOTH",
"521 577 OFFCURVE",
"418.496 690 OFFCURVE",
"247 690 CURVE SMOOTH",
"122 690 LINE",
"122 607 LINE",
"241 607 LINE SMOOTH",
"360.445 607 OFFCURVE",
"428 523 OFFCURVE",
"428 345 CURVE SMOOTH",
"428 167 OFFCURVE",
"360.445 83 OFFCURVE",
"241 83 CURVE SMOOTH",
"122 83 LINE",
"122 0 LINE"
);
}
);
userData = {
com.schriftgestaltung.Glyphs.lastChange = "2021-03-11 04:56:33 +0000";
};
width = 566;
},
{
anchors = (
{
name = top;
position = "{289, 690}";
}
);
layerId = master05;
paths = (
{
closed = 1;
nodes = (
"172 0 LINE",
"172 690 LINE",
"110 690 LINE",
"110 0 LINE"
);
},
{
closed = 1;
nodes = (
"304 0 LINE SMOOTH",
"482 0 OFFCURVE",
"616 112 OFFCURVE",
"616 345 CURVE SMOOTH",
"616 578 OFFCURVE",
"482 690 OFFCURVE",
"304 690 CURVE SMOOTH",
"140 690 LINE",
"140 636 LINE",
"299 636 LINE SMOOTH",
"447 636 OFFCURVE",
"552 542 OFFCURVE",
"552 345 CURVE SMOOTH",
"552 148 OFFCURVE",
"447 54 OFFCURVE",
"299 54 CURVE SMOOTH",
"140 54 LINE",
"140 0 LINE"
);
}
);
userData = {
com.schriftgestaltung.Glyphs.lastChange = "2021-03-11 21:12:00 +0000";
};
width = 686;
},
{
anchors = (
{
name = top;
position = "{308, 690}";
}
);
layerId = master06;
paths = (
{
closed = 1;
nodes = (
"196 0 LINE",
"196 690 LINE",
"100 690 LINE",
"100 0 LINE"
);
},
{
closed = 1;
nodes = (
"323 0 LINE SMOOTH",
"500 0 OFFCURVE",
"641 123 OFFCURVE",
"641 345 CURVE SMOOTH",
"641 567 OFFCURVE",
"500 690 OFFCURVE",
"323 690 CURVE SMOOTH",
"150 690 LINE",
"150 604 LINE",
"318 604 LINE SMOOTH",
"446 604 OFFCURVE",
"542 511 OFFCURVE",
"542 345 CURVE SMOOTH",
"542 179 OFFCURVE",
"446 86 OFFCURVE",
"318 86 CURVE SMOOTH",
"150 86 LINE",
"150 0 LINE"
);
}
);
userData = {
com.schriftgestaltung.Glyphs.lastChange = "2021-03-11 21:46:06 +0000";
};
width = 701;
}
);
leftKerningGroup = H;
rightKerningGroup = O;
unicode = 0044;
},
{
color = 5;
glyphname = Eth;
layers = (
{
layerId = master01;
paths = (
{
closed = 1;
nodes = (
"381 273 LINE",
"381 407 LINE",
"35 407 LINE",
"35 273 LINE"
);
},
{
closed = 1;
nodes = (
"250 0 LINE",
"250 690 LINE",
"90 690 LINE",
"90 0 LINE"
);
},
{
closed = 1;
nodes = (
"352 0 LINE SMOOTH",
"539 0 OFFCURVE",
"684 128 OFFCURVE",
"684 345 CURVE SMOOTH",
"684 562 OFFCURVE",
"539 690 OFFCURVE",
"352 690 CURVE SMOOTH",
"164 690 LINE",
"164 550 LINE",
"337 550 LINE SMOOTH",
"447 550 OFFCURVE",
"521 482 OFFCURVE",
"521 345 CURVE SMOOTH",
"521 208 OFFCURVE",
"447 140 OFFCURVE",
"337 140 CURVE SMOOTH",
"164 140 LINE",
"164 0 LINE"
);
}
);
userData = {
com.schriftgestaltung.Glyphs.lastChange = "2021-03-11 21:46:45 +0000";
};
width = 729;
},
{
layerId = master02;
paths = (
{
closed = 1;
nodes = (
"323 278 LINE",
"323 404 LINE",
"29 404 LINE",
"29 278 LINE"
);
},
{
closed = 1;
nodes = (
"215 0 LINE",
"215 690 LINE",
"73 690 LINE",
"73 0 LINE"
);
},
{
closed = 1;
nodes = (
"298 0 LINE SMOOTH",
"456 0 OFFCURVE",
"578 127 OFFCURVE",
"578 345 CURVE SMOOTH",
"578 563 OFFCURVE",
"456 690 OFFCURVE",
"298 690 CURVE SMOOTH",
"138 690 LINE",
"138 558 LINE",
"284 558 LINE SMOOTH",
"374 558 OFFCURVE",
"434 486 OFFCURVE",
"434 345 CURVE SMOOTH",
"434 204 OFFCURVE",
"374 132 OFFCURVE",
"284 132 CURVE SMOOTH",
"138 132 LINE",
"138 0 LINE"
);
}
);
userData = {
com.schriftgestaltung.Glyphs.lastChange = "2021-03-11 05:52:02 +0000";
};
width = 614;
},
{
layerId = master03;
paths = (
{
closed = 1;
nodes = (
"252 315 LINE",
"252 369 LINE",
"30 369 LINE",
"30 315 LINE"
);
},
{
closed = 1;
nodes = (
"162 0 LINE",
"162 690 LINE",
"100 690 LINE",
"100 0 LINE"
);
},
{
closed = 1;
nodes = (
"214 0 LINE SMOOTH",
"372 0 OFFCURVE",
"486 112 OFFCURVE",
"486 345 CURVE SMOOTH",
"486 578 OFFCURVE",
"372 690 OFFCURVE",
"214 690 CURVE SMOOTH",
"130 690 LINE",
"130 636 LINE",
"209 636 LINE SMOOTH",
"337 636 OFFCURVE",
"422 542 OFFCURVE",
"422 345 CURVE SMOOTH",
"422 148 OFFCURVE",
"337 54 OFFCURVE",
"209 54 CURVE SMOOTH",
"130 54 LINE",
"130 0 LINE"
);
}
);
userData = {
com.schriftgestaltung.Glyphs.lastChange = "2021-03-11 04:51:01 +0000";
};
width = 531;
},
{
layerId = master04;
paths = (
{
closed = 1;
nodes = (
"290 307 LINE",
"290 384 LINE",
"28 384 LINE",
"28 307 LINE"
);
},
{
closed = 1;
nodes = (
"174 0 LINE",
"174 690 LINE",
"84 690 LINE",
"84 0 LINE"
);
},
{
closed = 1;
nodes = (
"270 0 LINE SMOOTH",
"414 0 OFFCURVE",
"528 123 OFFCURVE",
"528 345 CURVE SMOOTH",
"528 567 OFFCURVE",
"414 690 OFFCURVE",
"270 690 CURVE SMOOTH",
"129 690 LINE",
"129 607 LINE",
"264 607 LINE SMOOTH",
"363 607 OFFCURVE",
"435 513 OFFCURVE",
"435 345 CURVE SMOOTH",
"435 177 OFFCURVE",
"363 83 OFFCURVE",
"264 83 CURVE SMOOTH",
"129 83 LINE",
"129 0 LINE"
);
}
);
userData = {
com.schriftgestaltung.Glyphs.lastChange = "2021-03-11 04:56:33 +0000";
};
width = 573;
},
{
layerId = master05;
paths = (
{
closed = 1;
nodes = (
"352 315 LINE",
"352 369 LINE",
"50 369 LINE",
"50 315 LINE"
);
},
{
closed = 1;
nodes = (
"182 0 LINE",
"182 690 LINE",
"120 690 LINE",
"120 0 LINE"
);
},
{
closed = 1;
nodes = (
"314 0 LINE SMOOTH",
"492 0 OFFCURVE",
"626 112 OFFCURVE",
"626 345 CURVE SMOOTH",
"626 578 OFFCURVE",
"492 690 OFFCURVE",
"314 690 CURVE SMOOTH",
"150 690 LINE",
"150 636 LINE",
"309 636 LINE SMOOTH",
"457 636 OFFCURVE",
"562 542 OFFCURVE",
"562 345 CURVE SMOOTH",
"562 148 OFFCURVE",
"457 54 OFFCURVE",
"309 54 CURVE SMOOTH",
"150 54 LINE",
"150 0 LINE"
);
}
);
userData = {
com.schriftgestaltung.Glyphs.lastChange = "2021-03-11 21:12:00 +0000";
};
width = 696;
},
{
layerId = master06;
paths = (
{
closed = 1;
nodes = (
"356 305 LINE",
"356 385 LINE",
"35 385 LINE",
"35 305 LINE"
);
},
{
closed = 1;
nodes = (
"206 0 LINE",
"206 690 LINE",
"110 690 LINE",
"110 0 LINE"
);
},
{
closed = 1;
nodes = (
"333 0 LINE SMOOTH",
"510 0 OFFCURVE",
"651 123 OFFCURVE",
"651 345 CURVE SMOOTH",
"651 567 OFFCURVE",
"510 690 OFFCURVE",
"333 690 CURVE SMOOTH",
"160 690 LINE",
"160 604 LINE",
"328 604 LINE SMOOTH",
"456 604 OFFCURVE",
"552 511 OFFCURVE",
"552 345 CURVE SMOOTH",
"552 179 OFFCURVE",
"456 86 OFFCURVE",
"328 86 CURVE SMOOTH",
"160 86 LINE",
"160 0 LINE"
);
}
);
userData = {
com.schriftgestaltung.Glyphs.lastChange = "2021-03-11 21:46:06 +0000";
};
width = 711;
}
);
leftKerningGroup = H;
rightKerningGroup = O;
unicode = 00D0;
},
{
color = 5;
glyphname = Dcroat;
layers = (
{
layerId = master01;
paths = (
{
closed = 1;
nodes = (
"381 273 LINE",
"381 407 LINE",
"35 407 LINE",
"35 273 LINE"
);
},
{
closed = 1;
nodes = (
"250 0 LINE",
"250 690 LINE",
"90 690 LINE",
"90 0 LINE"
);
},
{
closed = 1;
nodes = (
"352 0 LINE SMOOTH",
"539 0 OFFCURVE",
"684 128 OFFCURVE",
"684 345 CURVE SMOOTH",
"684 562 OFFCURVE",
"539 690 OFFCURVE",
"352 690 CURVE SMOOTH",
"164 690 LINE",
"164 550 LINE",
"337 550 LINE SMOOTH",
"447 550 OFFCURVE",
"521 482 OFFCURVE",
"521 345 CURVE SMOOTH",
"521 208 OFFCURVE",
"447 140 OFFCURVE",
"337 140 CURVE SMOOTH",
"164 140 LINE",
"164 0 LINE"
);
}
);
userData = {
com.schriftgestaltung.Glyphs.lastChange = "2021-03-11 21:46:45 +0000";
};
width = 729;
},
{
layerId = master02;
paths = (
{
closed = 1;
nodes = (
"323 278 LINE",
"323 404 LINE",
"29 404 LINE",
"29 278 LINE"
);
},
{
closed = 1;
nodes = (
"215 0 LINE",
"215 690 LINE",
"73 690 LINE",
"73 0 LINE"
);
},
{
closed = 1;
nodes = (
"298 0 LINE SMOOTH",
"456 0 OFFCURVE",
"578 127 OFFCURVE",
"578 345 CURVE SMOOTH",
"578 563 OFFCURVE",
"456 690 OFFCURVE",
"298 690 CURVE SMOOTH",
"138 690 LINE",
"138 558 LINE",
"284 558 LINE SMOOTH",
"374 558 OFFCURVE",
"434 486 OFFCURVE",
"434 345 CURVE SMOOTH",
"434 204 OFFCURVE",
"374 132 OFFCURVE",
"284 132 CURVE SMOOTH",
"138 132 LINE",
"138 0 LINE"
);
}
);
userData = {
com.schriftgestaltung.Glyphs.lastChange = "2021-03-11 05:51:58 +0000";
};
width = 614;
},
{
layerId = master03;
paths = (
{
closed = 1;
nodes = (
"272 315 LINE",
"272 369 LINE",
"30 369 LINE",
"30 315 LINE"
);
},
{
closed = 1;
nodes = (
"152 0 LINE",
"152 690 LINE",
"90 690 LINE",
"90 0 LINE"
);
},
{
closed = 1;
nodes = (
"214 0 LINE SMOOTH",
"372 0 OFFCURVE",
"486 112 OFFCURVE",
"486 345 CURVE SMOOTH",
"486 578 OFFCURVE",
"372 690 OFFCURVE",
"214 690 CURVE SMOOTH",
"120 690 LINE",
"120 636 LINE",
"209 636 LINE SMOOTH",
"337 636 OFFCURVE",
"422 542 OFFCURVE",
"422 345 CURVE SMOOTH",
"422 148 OFFCURVE",
"337 54 OFFCURVE",
"209 54 CURVE SMOOTH",
"120 54 LINE",
"120 0 LINE"
);
}
);
userData = {
com.schriftgestaltung.Glyphs.lastChange = "2021-03-11 04:56:01 +0000";
};
width = 531;
},
{
layerId = master04;
paths = (
{
closed = 1;
nodes = (
"290 307 LINE",
"290 384 LINE",
"28 384 LINE",
"28 307 LINE"
);
},
{
closed = 1;
nodes = (
"174 0 LINE",
"174 690 LINE",
"84 690 LINE",
"84 0 LINE"
);
},
{
closed = 1;
nodes = (
"270 0 LINE SMOOTH",
"414 0 OFFCURVE",
"528 123 OFFCURVE",
"528 345 CURVE SMOOTH",
"528 567 OFFCURVE",
"414 690 OFFCURVE",
"270 690 CURVE SMOOTH",
"129 690 LINE",
"129 607 LINE",
"264 607 LINE SMOOTH",
"363 607 OFFCURVE",
"435 513 OFFCURVE",
"435 345 CURVE SMOOTH",
"435 177 OFFCURVE",
"363 83 OFFCURVE",
"264 83 CURVE SMOOTH",
"129 83 LINE",
"129 0 LINE"
);
}
);
userData = {
com.schriftgestaltung.Glyphs.lastChange = "2021-03-11 04:56:33 +0000";
};
width = 573;
},
{
layerId = master05;
paths = (
{
closed = 1;
nodes = (
"352 315 LINE",
"352 369 LINE",
"50 369 LINE",
"50 315 LINE"
);
},
{
closed = 1;
nodes = (
"182 0 LINE",
"182 690 LINE",
"120 690 LINE",
"120 0 LINE"
);
},
{
closed = 1;
nodes = (
"314 0 LINE SMOOTH",
"492 0 OFFCURVE",
"626 112 OFFCURVE",
"626 345 CURVE SMOOTH",
"626 578 OFFCURVE",
"492 690 OFFCURVE",
"314 690 CURVE SMOOTH",
"150 690 LINE",
"150 636 LINE",
"309 636 LINE SMOOTH",
"457 636 OFFCURVE",
"562 542 OFFCURVE",
"562 345 CURVE SMOOTH",
"562 148 OFFCURVE",
"457 54 OFFCURVE",
"309 54 CURVE SMOOTH",
"150 54 LINE",
"150 0 LINE"
);
}
);
userData = {
com.schriftgestaltung.Glyphs.lastChange = "2021-03-11 21:12:00 +0000";
};
width = 696;
},
{
layerId = master06;
paths = (
{
closed = 1;
nodes = (
"356 305 LINE",
"356 385 LINE",
"35 385 LINE",
"35 305 LINE"
);
},
{
closed = 1;
nodes = (
"206 0 LINE",
"206 690 LINE",
"110 690 LINE",
"110 0 LINE"
);
},
{
closed = 1;
nodes = (
"333 0 LINE SMOOTH",
"510 0 OFFCURVE",
"651 123 OFFCURVE",
"651 345 CURVE SMOOTH",
"651 567 OFFCURVE",
"510 690 OFFCURVE",
"333 690 CURVE SMOOTH",
"160 690 LINE",
"160 604 LINE",
"328 604 LINE SMOOTH",
"456 604 OFFCURVE",
"552 511 OFFCURVE",
"552 345 CURVE SMOOTH",
"552 179 OFFCURVE",
"456 86 OFFCURVE",
"328 86 CURVE SMOOTH",
"160 86 LINE",
"160 0 LINE"
);
}
);
userData = {
com.schriftgestaltung.Glyphs.lastChange = "2021-03-11 21:46:06 +0000";
};
width = 711;
}
);
leftKerningGroup = H;
rightKerningGroup = O;
unicode = 0110;
},
{
color = 5;
glyphname = E;
layers = (
{
anchors = (
{
name = bottom;
position = "{323, 0}";
},
{
name = ogonek;
position = "{455, 0}";
},
{
name = top;
position = "{323, 690}";
}
);
layerId = master01;
paths = (
{
closed = 1;
nodes = (
"245 0 LINE",
"245 690 LINE",
"85 690 LINE",
"85 0 LINE"
);
},
{
closed = 1;
nodes = (
"575 0 LINE",
"575 140 LINE",
"159 140 LINE",
"159 0 LINE"
);
},
{
closed = 1;
nodes = (
"523 282 LINE",
"523 414 LINE",
"159 414 LINE",
"159 282 LINE"
);
},
{
closed = 1;
nodes = (
"570 550 LINE",
"570 690 LINE",
"159 690 LINE",
"159 550 LINE"
);
}
);
userData = {
com.schriftgestaltung.Glyphs.lastChange = "2021-03-11 21:46:45 +0000";
};
width = 635;
},
{
anchors = (
{
name = bottom;
position = "{271, 0}";
},
{
name = ogonek;
position = "{368, 0}";
},
{
name = top;
position = "{271, 690}";
}
);
layerId = master02;
paths = (
{
closed = 1;
nodes = (
"212 0 LINE",
"212 690 LINE",
"70 690 LINE",
"70 0 LINE"
);
},
{
closed = 1;
nodes = (
"476 0 LINE",
"476 132 LINE",
"135 132 LINE",
"135 0 LINE"
);
},
{
closed = 1;
nodes = (
"432 286 LINE",
"432 411 LINE",
"135 411 LINE",
"135 286 LINE"
);
},
{
closed = 1;
nodes = (
"472 558 LINE",
"472 690 LINE",
"135 690 LINE",
"135 558 LINE"
);
}
);
userData = {
com.schriftgestaltung.Glyphs.lastChange = "2021-03-17 10:39:14 +0000";
};
width = 521;
},
{
anchors = (
{
name = bottom;
position = "{237, 0}";
},
{
name = ogonek;
position = "{352, 0}";
},
{
name = top;
position = "{236, 690}";
}
);
layerId = master03;
paths = (
{
closed = 1;
nodes = (
"139 0 LINE",
"139 690 LINE",
"77 690 LINE",
"77 0 LINE"
);
},
{
closed = 1;
nodes = (
"407 0 LINE",
"407 54 LINE",
"107 54 LINE",
"107 0 LINE"
);
},
{
closed = 1;
nodes = (
"356 322 LINE",
"356 374 LINE",
"107 374 LINE",
"107 322 LINE"
);
},
{
closed = 1;
nodes = (
"402 636 LINE",
"402 690 LINE",
"107 690 LINE",
"107 636 LINE"
);
}
);
userData = {
com.schriftgestaltung.Glyphs.lastChange = "2021-04-27 22:02:12 +0000";
};
width = 461;
},
{
anchors = (
{
name = bottom;
position = "{261, 0}";
},
{
name = ogonek;
position = "{374, 0}";
},
{
name = top;
position = "{261, 690}";
}
);
layerId = master04;
paths = (
{
closed = 1;
nodes = (
"167 0 LINE",
"167 690 LINE",
"77 690 LINE",
"77 0 LINE"
);
},
{
closed = 1;
nodes = (
"446 0 LINE",
"446 83 LINE",
"122 83 LINE",
"122 0 LINE"
);
},
{
closed = 1;
nodes = (
"403 308 LINE",
"403 392 LINE",
"122 392 LINE",
"122 308 LINE"
);
},
{
closed = 1;
nodes = (
"442 607 LINE",
"442 690 LINE",
"122 690 LINE",
"122 607 LINE"
);
}
);
userData = {
com.schriftgestaltung.Glyphs.lastChange = "2021-03-11 04:56:33 +0000";
};
width = 500;
},
{
anchors = (
{
name = bottom;
position = "{311, 0}";
},
{
name = ogonek;
position = "{471, 0}";
},
{
name = top;
position = "{311, 690}";
}
);
layerId = master05;
paths = (
{
closed = 1;
nodes = (
"172 0 LINE",
"172 690 LINE",
"110 690 LINE",
"110 0 LINE"
);
},
{
closed = 1;
nodes = (
"526 0 LINE",
"526 54 LINE",
"140 54 LINE",
"140 0 LINE"
);
},
{
closed = 1;
nodes = (
"475 322 LINE",
"475 374 LINE",
"140 374 LINE",
"140 322 LINE"
);
},
{
closed = 1;
nodes = (
"521 636 LINE",
"521 690 LINE",
"140 690 LINE",
"140 636 LINE"
);
}
);
userData = {
com.schriftgestaltung.Glyphs.lastChange = "2021-03-11 21:12:00 +0000";
};
width = 596;
},
{
anchors = (
{
name = bottom;
position = "{328, 0}";
},
{
name = ogonek;
position = "{471, 0}";
},
{
name = top;
position = "{328, 690}";
}
);
layerId = master06;
paths = (
{
closed = 1;
nodes = (
"196 0 LINE",
"196 690 LINE",
"100 690 LINE",
"100 0 LINE"
);
},
{
closed = 1;
nodes = (
"551 0 LINE",
"551 86 LINE",
"150 86 LINE",
"150 0 LINE"
);
},
{
closed = 1;
nodes = (
"496 307 LINE",
"496 393 LINE",
"150 393 LINE",
"150 307 LINE"
);
},
{
closed = 1;
nodes = (
"546 604 LINE",
"546 690 LINE",
"150 690 LINE",
"150 604 LINE"
);
}
);
userData = {
com.schriftgestaltung.Glyphs.lastChange = "2021-03-11 21:46:06 +0000";
};
width = 621;
}
);
leftKerningGroup = H;
rightKerningGroup = E;
unicode = 0045;
},
{
color = 5;
glyphname = F;
layers = (
{
layerId = master01;
paths = (
{
closed = 1;
nodes = (
"245 0 LINE",
"245 690 LINE",
"85 690 LINE",
"85 0 LINE"
);
},
{
closed = 1;
nodes = (
"515 247 LINE",
"515 387 LINE",
"159 387 LINE",
"159 247 LINE"
);
},
{
closed = 1;
nodes = (
"555 550 LINE",
"555 690 LINE",
"159 690 LINE",
"159 550 LINE"
);
}
);
userData = {
com.schriftgestaltung.Glyphs.lastChange = "2021-03-11 21:46:45 +0000";
};
width = 595;
},
{
layerId = master02;
paths = (
{
closed = 1;
nodes = (
"212 0 LINE",
"212 690 LINE",
"70 690 LINE",
"70 0 LINE"
);
},
{
closed = 1;
nodes = (
"425 253 LINE",
"425 384 LINE",
"135 384 LINE",
"135 253 LINE"
);
},
{
closed = 1;
nodes = (
"459 558 LINE",
"459 690 LINE",
"135 690 LINE",
"135 558 LINE"
);
}
);
userData = {
com.schriftgestaltung.Glyphs.lastChange = "2021-03-11 05:51:32 +0000";
};
width = 494;
},
{
layerId = master03;
paths = (
{
closed = 1;
nodes = (
"139 0 LINE",
"139 690 LINE",
"77 690 LINE",
"77 0 LINE"
);
},
{
closed = 1;
nodes = (
"341 301 LINE",
"341 355 LINE",
"107 355 LINE",
"107 301 LINE"
);
},
{
closed = 1;
nodes = (
"379 636 LINE",
"379 690 LINE",
"107 690 LINE",
"107 636 LINE"
);
}
);
userData = {
com.schriftgestaltung.Glyphs.lastChange = "2021-03-30 23:22:23 +0000";
};
width = 411;
},
{
layerId = master04;
paths = (
{
closed = 1;
nodes = (
"167 0 LINE",
"167 690 LINE",
"77 690 LINE",
"77 0 LINE"
);
},
{
closed = 1;
nodes = (
"399 286 LINE",
"399 369 LINE",
"122 369 LINE",
"122 286 LINE"
);
},
{
closed = 1;
nodes = (
"430 607 LINE",
"430 690 LINE",
"122 690 LINE",
"122 607 LINE"
);
}
);
userData = {
com.schriftgestaltung.Glyphs.lastChange = "2021-03-11 04:56:33 +0000";
};
width = 462;
},
{
layerId = master05;
paths = (
{
closed = 1;
nodes = (
"172 0 LINE",
"172 690 LINE",
"110 690 LINE",
"110 0 LINE"
);
},
{
closed = 1;
nodes = (
"470 301 LINE",
"470 355 LINE",
"140 355 LINE",
"140 301 LINE"
);
},
{
closed = 1;
nodes = (
"508 636 LINE",
"508 690 LINE",
"140 690 LINE",
"140 636 LINE"
);
}
);
userData = {
com.schriftgestaltung.Glyphs.lastChange = "2021-03-11 21:12:00 +0000";
};
width = 558;
},
{
layerId = master06;
paths = (
{
closed = 1;
nodes = (
"196 0 LINE",
"196 690 LINE",
"100 690 LINE",
"100 0 LINE"
);
},
{
closed = 1;
nodes = (
"492 284 LINE",
"492 370 LINE",
"150 370 LINE",
"150 284 LINE"
);
},
{
closed = 1;
nodes = (
"531 604 LINE",
"531 690 LINE",
"150 690 LINE",
"150 604 LINE"
);
}
);
userData = {
com.schriftgestaltung.Glyphs.lastChange = "2021-03-11 21:46:06 +0000";
};
width = 571;
}
);
leftKerningGroup = H;
unicode = 0046;
},
{
color = 5;
glyphname = G;
layers = (
{
anchors = (
{
name = bottom;
position = "{377, 0}";
},
{
name = top;
position = "{377, 690}";
}
);
layerId = master01;
paths = (
{
closed = 1;
nodes = (
"45 122 OFFCURVE",
"204 -12 OFFCURVE",
"383 -12 CURVE SMOOTH",
"479 -12 OFFCURVE",
"562 19 OFFCURVE",
"643 81 CURVE",
"489 149 LINE",
"455 134 OFFCURVE",
"418 128 OFFCURVE",
"390 128 CURVE SMOOTH",
"286 128 OFFCURVE",
"208 207 OFFCURVE",
"208 345 CURVE SMOOTH",
"208 483 OFFCURVE",
"289 554 OFFCURVE",
"391 554 CURVE SMOOTH",
"448 554 OFFCURVE",
"499 534 OFFCURVE",
"547 501 CURVE",
"623 637 LINE",
"547 681 OFFCURVE",
"474 702 OFFCURVE",
"387 702 CURVE SMOOTH",
"204 702 OFFCURVE",
"45 568 OFFCURVE",
"45 345 CURVE SMOOTH"
);
},
{
closed = 1;
nodes = (
"575 249 LINE",
"575 382 LINE",
"359 382 LINE",
"359 249 LINE"
);
},
{
closed = 1;
nodes = (
"643 81 LINE",
"643 382 LINE",
"489 382 LINE",
"489 70 LINE"
);
}
);
userData = {
com.schriftgestaltung.Glyphs.lastChange = "2021-03-11 21:46:45 +0000";
};
width = 703;
},
{
anchors = (
{
name = bottom;
position = "{317, 0}";
},
{
name = top;
position = "{318, 690}";
}
);
layerId = master02;
paths = (
{
closed = 1;
nodes = (
"36 101 OFFCURVE",
"162 -12 OFFCURVE",
"322 -12 CURVE SMOOTH",
"403 -12 OFFCURVE",
"472 15.253 OFFCURVE",
"543 66 CURVE",
"407 133 LINE",
"382 122 OFFCURVE",
"352 117 OFFCURVE",
"333 117 CURVE SMOOTH",
"236 117 OFFCURVE",
"181 190 OFFCURVE",
"181 345 CURVE SMOOTH",
"181 484 OFFCURVE",
"239 564 OFFCURVE",
"333 564 CURVE SMOOTH",
"381 564 OFFCURVE",
"423 548 OFFCURVE",
"462 518 CURVE",
"526 641 LINE",
"461 682.265 OFFCURVE",
"399 702 OFFCURVE",
"326 702 CURVE SMOOTH",
"161 702 OFFCURVE",
"36 574 OFFCURVE",
"36 344 CURVE SMOOTH"
);
},
{
closed = 1;
nodes = (
"483 250 LINE",
"483 376 LINE",
"300 376 LINE",
"300 250 LINE"
);
},
{
closed = 1;
nodes = (
"543 66 LINE",
"543 376 LINE",
"406 376 LINE",
"406 60 LINE"
);
}
);
userData = {
com.schriftgestaltung.Glyphs.lastChange = "2021-03-11 05:51:32 +0000";
};
width = 591;
},
{
anchors = (
{
name = bottom;
position = "{256, 0}";
},
{
name = top;
position = "{256, 690}";
}
);
layerId = master03;
paths = (
{
closed = 1;
nodes = (
"45 112 OFFCURVE",
"136 -8 OFFCURVE",
"280 -8 CURVE SMOOTH",
"352 -8 OFFCURVE",
"413 25 OFFCURVE",
"457 87 CURVE",
"409 117 LINE",
"377 69 OFFCURVE",
"334 47 OFFCURVE",
"280 47 CURVE SMOOTH",
"182 47 OFFCURVE",
"109 148 OFFCURVE",
"109 345 CURVE SMOOTH",
"109 542 OFFCURVE",
"171 641 OFFCURVE",
"276 641 CURVE SMOOTH",
"327 641 OFFCURVE",
"360 625 OFFCURVE",
"400 586 CURVE",
"440 628 LINE",
"389 677 OFFCURVE",
"344 698 OFFCURVE",
"276 698 CURVE SMOOTH",
"138 698 OFFCURVE",
"45 578 OFFCURVE",
"45 345 CURVE SMOOTH"
);
},
{
closed = 1;
nodes = (
"427 276 LINE",
"427 330 LINE",
"284 330 LINE",
"284 276 LINE"
);
},
{
closed = 1;
nodes = (
"457 87 LINE",
"457 330 LINE",
"395 330 LINE",
"395 87 LINE"
);
}
);
userData = {
com.schriftgestaltung.Glyphs.lastChange = "2021-03-30 23:58:45 +0000";
};
width = 516;
},
{
anchors = (
{
name = bottom;
position = "{302, 0}";
},
{
name = top;
position = "{293, 690}";
}
);
layerId = master04;
paths = (
{
closed = 1;
nodes = (
"45 106 OFFCURVE",
"161 -10 OFFCURVE",
"304 -10 CURVE SMOOTH",
"388 -10 OFFCURVE",
"452 24 OFFCURVE",
"502 72 CURVE",
"422 115 LINE",
"388 86 OFFCURVE",
"351 73 OFFCURVE",
"312 73 CURVE SMOOTH",
"212 73 OFFCURVE",
"138 160 OFFCURVE",
"138 345 CURVE",
"138 530 OFFCURVE",
"211 612 OFFCURVE",
"308 612 CURVE SMOOTH",
"355 612 OFFCURVE",
"396 592 OFFCURVE",
"433 555 CURVE",
"485 623 LINE",
"432 675 OFFCURVE",
"374 700 OFFCURVE",
"307 700 CURVE SMOOTH",
"165 700 OFFCURVE",
"45 584 OFFCURVE",
"45 345 CURVE"
);
},
{
closed = 1;
nodes = (
"458 257 LINE",
"458 341 LINE",
"297 341 LINE",
"297 257 LINE"
);
},
{
closed = 1;
nodes = (
"502 72 LINE",
"502 341 LINE",
"413 341 LINE",
"413 60 LINE"
);
}
);
userData = {
com.schriftgestaltung.Glyphs.lastChange = "2021-03-11 04:56:33 +0000";
};
width = 561;
},
{
anchors = (
{
name = bottom;
position = "{361, 0}";
},
{
name = top;
position = "{361, 690}";
}
);
layerId = master05;
paths = (
{
closed = 1;
nodes = (
"70 112 OFFCURVE",
"206 -8 OFFCURVE",
"375 -8 CURVE SMOOTH",
"454 -8 OFFCURVE",
"536 25 OFFCURVE",
"592 87 CURVE",
"544 117 LINE",
"502 69 OFFCURVE",
"436 47 OFFCURVE",
"375 47 CURVE SMOOTH",
"239 47 OFFCURVE",
"134 148 OFFCURVE",
"134 345 CURVE SMOOTH",
"134 542 OFFCURVE",
"241 641 OFFCURVE",
"371 641 CURVE SMOOTH",
"434 641 OFFCURVE",
"489 618 OFFCURVE",
"531 570 CURVE",
"575 610 LINE",
"519 671 OFFCURVE",
"452 698 OFFCURVE",
"371 698 CURVE SMOOTH",
"208 698 OFFCURVE",
"70 578 OFFCURVE",
"70 345 CURVE SMOOTH"
);
},
{
closed = 1;
nodes = (
"562 276 LINE",
"562 330 LINE",
"379 330 LINE",
"379 276 LINE"
);
},
{
closed = 1;
nodes = (
"592 87 LINE",
"592 330 LINE",
"530 330 LINE",
"530 87 LINE"
);
}
);
userData = {
com.schriftgestaltung.Glyphs.lastChange = "2021-03-11 21:12:00 +0000";
};
width = 677;
},
{
anchors = (
{
name = bottom;
position = "{378, 0}";
},
{
name = top;
position = "{363, 690}";
}
);
layerId = master06;
paths = (
{
closed = 1;
nodes = (
"60 116 OFFCURVE",
"200 -10 OFFCURVE",
"378 -10 CURVE SMOOTH",
"473 -10 OFFCURVE",
"560.25 28 OFFCURVE",
"621 82 CURVE",
"542 126 LINE",
"495.519 91 OFFCURVE",
"446.133 76 OFFCURVE",
"389 76 CURVE SMOOTH",
"257 76 OFFCURVE",
"159 172 OFFCURVE",
"159 345 CURVE SMOOTH",
"159 518 OFFCURVE",
"254.252 609 OFFCURVE",
"383 609 CURVE SMOOTH",
"442 609 OFFCURVE",
"494 586 OFFCURVE",
"538 543 CURVE",
"600 614 LINE",
"537 672 OFFCURVE",
"465 700 OFFCURVE",
"383 700 CURVE SMOOTH",
"207 700 OFFCURVE",
"60 574 OFFCURVE",
"60 345 CURVE SMOOTH"
);
},
{
closed = 1;
nodes = (
"571 257 LINE",
"571 343 LINE",
"375 343 LINE",
"375 257 LINE"
);
},
{
closed = 1;
nodes = (
"621 82 LINE",
"621 343 LINE",
"525 343 LINE",
"525 70 LINE"
);
}
);
userData = {
com.schriftgestaltung.Glyphs.lastChange = "2021-03-11 21:46:06 +0000";
};
width = 701;
}
);
leftKerningGroup = O;
rightKerningGroup = G;
unicode = 0047;
},
{
color = 5;
glyphname = H;
layers = (
{
anchors = (
{
name = top;
position = "{377, 690}";
}
);
layerId = master01;
paths = (
{
closed = 1;
nodes = (
"245 0 LINE",
"245 690 LINE",
"85 690 LINE",
"85 0 LINE"
);
},
{
closed = 1;
nodes = (
"595 278 LINE",
"595 418 LINE",
"159 418 LINE",
"159 278 LINE"
);
},
{
closed = 1;
nodes = (
"669 0 LINE",
"669 690 LINE",
"509 690 LINE",
"509 0 LINE"
);
}
);
userData = {
com.schriftgestaltung.Glyphs.lastChange = "2021-03-11 21:46:45 +0000";
};
width = 754;
},
{
anchors = (
{
name = top;
position = "{318, 690}";
}
);
layerId = master02;
paths = (
{
closed = 1;
nodes = (
"212 0 LINE",
"212 690 LINE",
"70 690 LINE",
"70 0 LINE"
);
},
{
closed = 1;
nodes = (
"501 282 LINE",
"501 414 LINE",
"135 414 LINE",
"135 282 LINE"
);
},
{
closed = 1;
nodes = (
"566 0 LINE",
"566 690 LINE",
"424 690 LINE",
"424 0 LINE"
);
}
);
userData = {
com.schriftgestaltung.Glyphs.lastChange = "2021-03-11 05:51:32 +0000";
};
width = 635;
},
{
anchors = (
{
name = top;
position = "{272, 690}";
}
);
layerId = master03;
paths = (
{
closed = 1;
nodes = (
"139 0 LINE",
"139 690 LINE",
"77 690 LINE",
"77 0 LINE"
);
},
{
closed = 1;
nodes = (
"443 321 LINE",
"443 375 LINE",
"107 375 LINE",
"107 321 LINE"
);
},
{
closed = 1;
nodes = (
"473 0 LINE",
"473 690 LINE",
"411 690 LINE",
"411 0 LINE"
);
}
);
userData = {
com.schriftgestaltung.Glyphs.lastChange = "2021-03-31 00:02:32 +0000";
};
width = 550;
},
{
anchors = (
{
name = top;
position = "{296, 690}";
}
);
layerId = master04;
paths = (
{
closed = 1;
nodes = (
"167 0 LINE",
"167 690 LINE",
"77 690 LINE",
"77 0 LINE"
);
},
{
closed = 1;
nodes = (
"471 309 LINE",
"471 392 LINE",
"122 392 LINE",
"122 309 LINE"
);
},
{
closed = 1;
nodes = (
"516 0 LINE",
"516 690 LINE",
"426 690 LINE",
"426 0 LINE"
);
}
);
userData = {
com.schriftgestaltung.Glyphs.lastChange = "2021-03-11 04:56:33 +0000";
};
width = 593;
},
{
anchors = (
{
name = top;
position = "{358, 690}";
}
);
layerId = master05;
paths = (
{
closed = 1;
nodes = (
"172 0 LINE",
"172 690 LINE",
"110 690 LINE",
"110 0 LINE"
);
},
{
closed = 1;
nodes = (
"576 321 LINE",
"576 375 LINE",
"140 375 LINE",
"140 321 LINE"
);
},
{
closed = 1;
nodes = (
"606 0 LINE",
"606 690 LINE",
"544 690 LINE",
"544 0 LINE"
);
}
);
userData = {
com.schriftgestaltung.Glyphs.lastChange = "2021-03-11 21:12:00 +0000";
};
width = 716;
},
{
anchors = (
{
name = top;
position = "{368, 690}";
}
);
layerId = master06;
paths = (
{
closed = 1;
nodes = (
"196 0 LINE",
"196 690 LINE",
"100 690 LINE",
"100 0 LINE"
);
},
{
closed = 1;
nodes = (
"586 307 LINE",
"586 393 LINE",
"150 393 LINE",
"150 307 LINE"
);
},
{
closed = 1;
nodes = (
"636 0 LINE",
"636 690 LINE",
"540 690 LINE",
"540 0 LINE"
);
}
);
userData = {
com.schriftgestaltung.Glyphs.lastChange = "2021-03-11 21:46:06 +0000";
};
width = 736;
}
);
leftKerningGroup = H;
rightKerningGroup = H;
unicode = 0048;
},
{
color = 5;
glyphname = Hbar;
layers = (
{
layerId = master01;
paths = (
{
closed = 1;
nodes = (
"250 0 LINE",
"250 690 LINE",
"90 690 LINE",
"90 0 LINE"
);
},
{
closed = 1;
nodes = (
"600 268 LINE",
"600 408 LINE",
"164 408 LINE",
"164 268 LINE"
);
},
{
closed = 1;
nodes = (
"674 0 LINE",
"674 690 LINE",
"514 690 LINE",
"514 0 LINE"
);
},
{
closed = 1;
nodes = (
"734 506 LINE",
"734 630 LINE",
"30 630 LINE",
"30 506 LINE"
);
}
);
userData = {
com.schriftgestaltung.Glyphs.lastChange = "2021-03-11 21:46:45 +0000";
};
width = 764;
},
{
layerId = master02;
paths = (
{
closed = 1;
nodes = (
"216 0 LINE",
"216 690 LINE",
"74 690 LINE",
"74 0 LINE"
);
},
{
closed = 1;
nodes = (
"505 274 LINE",
"505 406 LINE",
"139 406 LINE",
"139 274 LINE"
);
},
{
closed = 1;
nodes = (
"570 0 LINE",
"570 690 LINE",
"428 690 LINE",
"428 0 LINE"
);
},
{
closed = 1;
nodes = (
"619 509 LINE",
"619 625 LINE",
"25 625 LINE",
"25 509 LINE"
);
}
);
userData = {
com.schriftgestaltung.Glyphs.lastChange = "2021-02-19 05:50:52 +0000";
};
width = 644;
},
{
layerId = master03;
paths = (
{
closed = 1;
nodes = (
"167 0 LINE",
"167 690 LINE",
"105 690 LINE",
"105 0 LINE"
);
},
{
closed = 1;
nodes = (
"481 321 LINE",
"481 375 LINE",
"135 375 LINE",
"135 321 LINE"
);
},
{
closed = 1;
nodes = (
"511 0 LINE",
"511 690 LINE",
"449 690 LINE",
"449 0 LINE"
);
},
{
closed = 1;
nodes = (
"586 526 LINE",
"586 580 LINE",
"30 580 LINE",
"30 526 LINE"
);
}
);
userData = {
com.schriftgestaltung.Glyphs.lastChange = "2021-03-11 04:50:28 +0000";
};
width = 616;
},
{
layerId = master04;
paths = (
{
closed = 1;
nodes = (
"171 0 LINE",
"171 690 LINE",
"81 690 LINE",
"81 0 LINE"
);
},
{
closed = 1;
nodes = (
"475 309 LINE",
"475 392 LINE",
"126 392 LINE",
"126 309 LINE"
);
},
{
closed = 1;
nodes = (
"520 0 LINE",
"520 690 LINE",
"430 690 LINE",
"430 0 LINE"
);
},
{
closed = 1;
nodes = (
"577 526 LINE",
"577 593 LINE",
"24 593 LINE",
"24 526 LINE"
);
}
);
userData = {
com.schriftgestaltung.Glyphs.lastChange = "2021-03-11 04:56:33 +0000";
};
width = 601;
},
{
layerId = master05;
paths = (
{
closed = 1;
nodes = (
"177 0 LINE",
"177 690 LINE",
"115 690 LINE",
"115 0 LINE"
);
},
{
closed = 1;
nodes = (
"581 321 LINE",
"581 375 LINE",
"145 375 LINE",
"145 321 LINE"
);
},
{
closed = 1;
nodes = (
"611 0 LINE",
"611 690 LINE",
"549 690 LINE",
"549 0 LINE"
);
},
{
closed = 1;
nodes = (
"686 526 LINE",
"686 580 LINE",
"40 580 LINE",
"40 526 LINE"
);
}
);
userData = {
com.schriftgestaltung.Glyphs.lastChange = "2021-03-18 04:14:55 +0000";
};
width = 726;
},
{
layerId = master06;
paths = (
{
closed = 1;
nodes = (
"201 0 LINE",
"201 690 LINE",
"105 690 LINE",
"105 0 LINE"
);
},
{
closed = 1;
nodes = (
"591 307 LINE",
"591 393 LINE",
"155 393 LINE",
"155 307 LINE"
);
},
{
closed = 1;
nodes = (
"641 0 LINE",
"641 690 LINE",
"545 690 LINE",
"545 0 LINE"
);
},
{
closed = 1;
nodes = (
"716 525 LINE",
"716 595 LINE",
"30 595 LINE",
"30 525 LINE"
);
}
);
userData = {
com.schriftgestaltung.Glyphs.lastChange = "2021-03-11 21:46:06 +0000";
};
width = 746;
}
);
leftKerningGroup = H;
rightKerningGroup = H;
unicode = 0126;
},
{
color = 5;
glyphname = I;
layers = (
{
anchors = (
{
name = bottom;
position = "{235, 0}";
},
{
name = ogonek;
position = "{283, 0}";
},
{
name = top;
position = "{235, 690}";
}
);
layerId = master01;
paths = (
{
closed = 1;
nodes = (
"405 0 LINE",
"405 120 LINE",
"65 120 LINE",
"65 0 LINE"
);
},
{
closed = 1;
nodes = (
"405 570 LINE",
"405 690 LINE",
"65 690 LINE",
"65 570 LINE"
);
},
{
closed = 1;
nodes = (
"315 0 LINE",
"315 690 LINE",
"155 690 LINE",
"155 0 LINE"
);
}
);
userData = {
com.schriftgestaltung.Glyphs.lastChange = "2021-03-17 12:07:56 +0000";
};
width = 470;
},
{
anchors = (
{
name = bottom;
position = "{198, 0}";
},
{
name = ogonek;
position = "{229, 0}";
},
{
name = top;
position = "{198, 690}";
}
);
layerId = master02;
paths = (
{
closed = 1;
nodes = (
"339 0 LINE",
"339 119 LINE",
"58 119 LINE",
"58 0 LINE"
);
},
{
closed = 1;
nodes = (
"339 571 LINE",
"339 690 LINE",
"58 690 LINE",
"58 571 LINE"
);
},
{
closed = 1;
nodes = (
"269 0 LINE",
"269 690 LINE",
"127 690 LINE",
"127 0 LINE"
);
}
);
userData = {
com.schriftgestaltung.Glyphs.lastChange = "2021-03-17 12:12:17 +0000";
};
width = 396;
},
{
anchors = (
{
name = bottom;
position = "{156, 0}";
},
{
name = ogonek;
position = "{196, 0}";
},
{
name = top;
position = "{156, 690}";
}
);
layerId = master03;
paths = (
{
closed = 1;
nodes = (
"252 0 LINE",
"252 50 LINE",
"60 50 LINE",
"60 0 LINE"
);
},
{
closed = 1;
nodes = (
"252 640 LINE",
"252 690 LINE",
"60 690 LINE",
"60 640 LINE"
);
},
{
closed = 1;
nodes = (
"187 0 LINE",
"187 690 LINE",
"125 690 LINE",
"125 0 LINE"
);
}
);
userData = {
com.schriftgestaltung.Glyphs.lastChange = "2021-03-17 15:00:03 +0000";
};
width = 312;
},
{
anchors = (
{
name = bottom;
position = "{178, 0}";
},
{
name = ogonek;
position = "{296, 0}";
},
{
name = top;
position = "{178, 690}";
}
);
layerId = master04;
paths = (
{
closed = 1;
nodes = (
"296 0 LINE",
"296 79 LINE",
"60 79 LINE",
"60 0 LINE"
);
},
{
closed = 1;
nodes = (
"296 611 LINE",
"296 690 LINE",
"60 690 LINE",
"60 611 LINE"
);
},
{
closed = 1;
nodes = (
"223 0 LINE",
"223 690 LINE",
"133 690 LINE",
"133 0 LINE"
);
}
);
userData = {
com.schriftgestaltung.Glyphs.lastChange = "2021-03-17 15:40:39 +0000";
};
width = 356;
},
{
anchors = (
{
name = bottom;
position = "{226, -4}";
},
{
name = ogonek;
position = "{305, 0}";
},
{
name = top;
position = "{226, 690}";
}
);
layerId = master05;
paths = (
{
closed = 1;
nodes = (
"362 0 LINE",
"362 50 LINE",
"90 50 LINE",
"90 0 LINE"
);
},
{
closed = 1;
nodes = (
"362 640 LINE",
"362 690 LINE",
"90 690 LINE",
"90 640 LINE"
);
},
{
closed = 1;
nodes = (
"257 0 LINE",
"257 690 LINE",
"195 690 LINE",
"195 0 LINE"
);
}
);
userData = {
com.schriftgestaltung.Glyphs.lastChange = "2021-03-17 12:06:51 +0000";
};
width = 452;
},
{
anchors = (
{
name = bottom;
position = "{228, 0}";
},
{
name = ogonek;
position = "{294, 0}";
},
{
name = top;
position = "{228, 690}";
}
);
layerId = master06;
paths = (
{
closed = 1;
nodes = (
"376 0 LINE",
"376 81 LINE",
"80 81 LINE",
"80 0 LINE"
);
},
{
closed = 1;
nodes = (
"376 609 LINE",
"376 690 LINE",
"80 690 LINE",
"80 609 LINE"
);
},
{
closed = 1;
nodes = (
"276 0 LINE",
"276 690 LINE",
"180 690 LINE",
"180 0 LINE"
);
}
);
userData = {
com.schriftgestaltung.Glyphs.lastChange = "2021-03-17 12:09:05 +0000";
};
width = 456;
}
);
leftKerningGroup = I;
rightKerningGroup = I;
unicode = 0049;
},
{
color = 5;
glyphname = IJ;
layers = (
{
layerId = master01;
paths = (
{
closed = 1;
nodes = (
"245 0 LINE",
"245 690 LINE",
"85 690 LINE",
"85 0 LINE"
);
},
{
closed = 1;
nodes = (
"370 0 OFFCURVE",
"424 -12 OFFCURVE",
"483 -12 CURVE SMOOTH",
"622 -12 OFFCURVE",
"744 80 OFFCURVE",
"744 245 CURVE SMOOTH",
"744 690 LINE",
"584 690 LINE",
"584 265 LINE SMOOTH",
"584 177 OFFCURVE",
"541 132 OFFCURVE",
"473 132 CURVE SMOOTH",
"438 132 OFFCURVE",
"410 143 OFFCURVE",
"390 157 CURVE",
"328 26 LINE"
);
}
);
userData = {
com.schriftgestaltung.Glyphs.lastChange = "2021-03-11 21:46:45 +0000";
};
width = 819;
},
{
layerId = master02;
paths = (
{
closed = 1;
nodes = (
"212 0 LINE",
"212 690 LINE",
"70 690 LINE",
"70 0 LINE"
);
},
{
closed = 1;
nodes = (
"315 0 OFFCURVE",
"362 -12 OFFCURVE",
"413 -12 CURVE SMOOTH",
"531 -12 OFFCURVE",
"636 79 OFFCURVE",
"636 244 CURVE SMOOTH",
"636 690 LINE",
"494 690 LINE",
"494 262 LINE SMOOTH",
"494 170 OFFCURVE",
"459 124 OFFCURVE",
"404 124 CURVE SMOOTH",
"374 124 OFFCURVE",
"351 135 OFFCURVE",
"334 149 CURVE",
"279 26 LINE"
);
}
);
userData = {
com.schriftgestaltung.Glyphs.lastChange = "2021-03-11 05:51:32 +0000";
};
width = 697;
},
{
layerId = master03;
paths = (
{
closed = 1;
nodes = (
"172 0 LINE",
"172 690 LINE",
"110 690 LINE",
"110 0 LINE"
);
},
{
closed = 1;
nodes = (
"298 3 OFFCURVE",
"338 -8 OFFCURVE",
"382 -8 CURVE SMOOTH",
"486 -8 OFFCURVE",
"546 68 OFFCURVE",
"546 215 CURVE SMOOTH",
"546 690 LINE",
"484 690 LINE",
"484 220 LINE SMOOTH",
"484 106 OFFCURVE",
"452 49 OFFCURVE",
"382 49 CURVE SMOOTH",
"347 49 OFFCURVE",
"315 60 OFFCURVE",
"290 77 CURVE",
"262 27 LINE"
);
}
);
userData = {
com.schriftgestaltung.Glyphs.lastChange = "2021-03-17 00:53:09 +0000";
};
width = 646;
},
{
layerId = master04;
paths = (
{
closed = 1;
nodes = (
"167 0 LINE",
"167 690 LINE",
"77 690 LINE",
"77 0 LINE"
);
},
{
closed = 1;
nodes = (
"275 2 OFFCURVE",
"311 -10 OFFCURVE",
"350 -10 CURVE SMOOTH",
"454 -10 OFFCURVE",
"539 75 OFFCURVE",
"539 236 CURVE SMOOTH",
"539 690 LINE",
"450 690 LINE",
"450 245 LINE SMOOTH",
"450 127 OFFCURVE",
"410 75 OFFCURVE",
"347 75 CURVE SMOOTH",
"320 75 OFFCURVE",
"297 85 OFFCURVE",
"279 101 CURVE",
"244 25 LINE"
);
}
);
userData = {
com.schriftgestaltung.Glyphs.lastChange = "2021-03-11 05:51:48 +0000";
};
width = 608;
},
{
layerId = master05;
paths = (
{
closed = 1;
nodes = (
"172 0 LINE",
"172 690 LINE",
"110 690 LINE",
"110 0 LINE"
);
},
{
closed = 1;
nodes = (
"338 4 OFFCURVE",
"377 -8 OFFCURVE",
"419 -8 CURVE SMOOTH",
"534 -8 OFFCURVE",
"626 68 OFFCURVE",
"626 215 CURVE SMOOTH",
"626 690 LINE",
"564 690 LINE",
"564 220 LINE SMOOTH",
"564 106 OFFCURVE",
"500 49 OFFCURVE",
"419 49 CURVE SMOOTH",
"386 49 OFFCURVE",
"358 59 OFFCURVE",
"333 77 CURVE",
"305 27 LINE"
);
}
);
userData = {
com.schriftgestaltung.Glyphs.lastChange = "2021-03-11 21:12:00 +0000";
};
width = 726;
},
{
layerId = master06;
paths = (
{
closed = 1;
nodes = (
"196 0 LINE",
"196 690 LINE",
"100 690 LINE",
"100 0 LINE"
);
},
{
closed = 1;
nodes = (
"334 2 OFFCURVE",
"376 -10 OFFCURVE",
"421 -10 CURVE SMOOTH",
"548 -10 OFFCURVE",
"649 75 OFFCURVE",
"649 236 CURVE SMOOTH",
"649 690 LINE",
"555 690 LINE",
"555 246 LINE SMOOTH",
"555 130 OFFCURVE",
"503 78 OFFCURVE",
"420 78 CURVE SMOOTH",
"386 78 OFFCURVE",
"358 88 OFFCURVE",
"334 104 CURVE",
"296 25 LINE"
);
}
);
userData = {
com.schriftgestaltung.Glyphs.lastChange = "2021-03-11 21:46:06 +0000";
};
width = 739;
}
);
leftKerningGroup = H;
rightKerningGroup = U;
unicode = 0132;
},
{
color = 5;
glyphname = J;
layers = (
{
anchors = (
{
name = top;
position = "{332, 690}";
}
);
layerId = master01;
paths = (
{
closed = 1;
nodes = (
"68 21 OFFCURVE",
"137 -12 OFFCURVE",
"223 -12 CURVE",
"372 -12 OFFCURVE",
"494 80 OFFCURVE",
"494 245 CURVE SMOOTH",
"494 690 LINE",
"334 690 LINE",
"334 265 LINE SMOOTH",
"334 177 OFFCURVE",
"291 131 OFFCURVE",
"218 131 CURVE",
"173 131 OFFCURVE",
"134 154 OFFCURVE",
"111 186 CURVE",
"15 74 LINE"
);
},
{
closed = 1;
nodes = (
"440 570 LINE",
"440 690 LINE",
"170 690 LINE",
"170 570 LINE"
);
}
);
userData = {
com.schriftgestaltung.Glyphs.lastChange = "2021-03-11 23:09:35 +0000";
};
width = 569;
},
{
anchors = (
{
name = top;
position = "{277, 690}";
}
);
layerId = master02;
paths = (
{
closed = 1;
nodes = (
"57 18 OFFCURVE",
"115 -12 OFFCURVE",
"188 -12 CURVE SMOOTH",
"316 -12 OFFCURVE",
"416 79 OFFCURVE",
"416 244 CURVE SMOOTH",
"416 690 LINE",
"274 690 LINE",
"274 262 LINE SMOOTH",
"274 169 OFFCURVE",
"240 121 OFFCURVE",
"178 121 CURVE SMOOTH",
"136 121 OFFCURVE",
"104 142 OFFCURVE",
"84 164 CURVE",
"11 64 LINE"
);
},
{
closed = 1;
nodes = (
"369 576 LINE",
"369 690 LINE",
"138 690 LINE",
"138 576 LINE"
);
}
);
userData = {
com.schriftgestaltung.Glyphs.lastChange = "2021-03-11 21:48:16 +0000";
};
width = 477;
},
{
anchors = (
{
name = top;
position = "{217, 690}";
}
);
layerId = master03;
paths = (
{
closed = 1;
nodes = (
"70 25 OFFCURVE",
"116 -8 OFFCURVE",
"180 -8 CURVE",
"289 -8 OFFCURVE",
"329 63 OFFCURVE",
"329 205 CURVE SMOOTH",
"329 690 LINE",
"267 690 LINE",
"267 210 LINE SMOOTH",
"267 95 OFFCURVE",
"245 49 OFFCURVE",
"178 49 CURVE",
"131 49 OFFCURVE",
"104 82 OFFCURVE",
"75 119 CURVE",
"32 82 LINE"
);
},
{
closed = 1;
nodes = (
"303 640 LINE",
"303 690 LINE",
"147 690 LINE",
"147 640 LINE"
);
}
);
userData = {
com.schriftgestaltung.Glyphs.lastChange = "2021-03-31 00:11:49 +0000";
};
width = 398;
},
{
anchors = (
{
name = top;
position = "{273, 690}";
}
);
layerId = master04;
paths = (
{
closed = 1;
nodes = (
"66.402 35 OFFCURVE",
"126.101 -10 OFFCURVE",
"203 -10 CURVE SMOOTH",
"316.777 -10 OFFCURVE",
"389 71 OFFCURVE",
"389 236 CURVE SMOOTH",
"389 690 LINE",
"300 690 LINE",
"300 245 LINE SMOOTH",
"300 119 OFFCURVE",
"262 75 OFFCURVE",
"201 75 CURVE SMOOTH",
"146 75 OFFCURVE",
"114 113 OFFCURVE",
"90 149 CURVE",
"32 94 LINE"
);
},
{
closed = 1;
nodes = (
"354 611 LINE",
"354 690 LINE",
"158 690 LINE",
"158 611 LINE"
);
}
);
userData = {
com.schriftgestaltung.Glyphs.lastChange = "2021-03-11 05:41:02 +0000";
};
width = 458;
},
{
anchors = (
{
name = top;
position = "{315, 690}";
}
);
layerId = master05;
paths = (
{
closed = 1;
nodes = (
"98 25 OFFCURVE",
"160 -8 OFFCURVE",
"229 -8 CURVE",
"344 -8 OFFCURVE",
"436 68 OFFCURVE",
"436 215 CURVE SMOOTH",
"436 690 LINE",
"374 690 LINE",
"374 220 LINE SMOOTH",
"374 106 OFFCURVE",
"310 49 OFFCURVE",
"229 49 CURVE",
"177 49 OFFCURVE",
"136 73 OFFCURVE",
"102 119 CURVE",
"55 87 LINE"
);
},
{
closed = 1;
nodes = (
"410 640 LINE",
"410 690 LINE",
"194 690 LINE",
"194 640 LINE"
);
}
);
userData = {
com.schriftgestaltung.Glyphs.lastChange = "2021-03-11 21:48:32 +0000";
};
width = 536;
},
{
anchors = (
{
name = top;
position = "{345, 690}";
}
);
layerId = master06;
paths = (
{
closed = 1;
nodes = (
"86 39 OFFCURVE",
"168 -10 OFFCURVE",
"255 -10 CURVE SMOOTH",
"382 -10 OFFCURVE",
"483 75 OFFCURVE",
"483 236 CURVE SMOOTH",
"483 690 LINE",
"389 690 LINE",
"389 246 LINE SMOOTH",
"389 130 OFFCURVE",
"337 78 OFFCURVE",
"254 78 CURVE SMOOTH",
"187 78 OFFCURVE",
"140 119 OFFCURVE",
"116 163 CURVE",
"45 107 LINE"
);
},
{
closed = 1;
nodes = (
"443 609 LINE",
"443 690 LINE",
"207 690 LINE",
"207 609 LINE"
);
}
);
userData = {
com.schriftgestaltung.Glyphs.lastChange = "2021-03-11 21:48:54 +0000";
};
width = 573;
}
);
leftKerningGroup = J;
rightKerningGroup = U;
unicode = 004A;
},
{
color = 5;
glyphname = K;
layers = (
{
anchors = (
{
name = bottom;
position = "{360, 0}";
}
);
layerId = master01;
paths = (
{
closed = 1;
nodes = (
"245 0 LINE",
"245 690 LINE",
"85 690 LINE",
"85 0 LINE"
);
},
{
closed = 1;
nodes = (
"343 311 LINE",
"364 336 LINE",
"662 690 LINE",
"463 690 LINE",
"189 331 LINE",
"189 128 LINE"
);
},
{
closed = 1;
nodes = (
"481 0 LINE",
"675 0 LINE",
"398 408 LINE",
"295 292 LINE"
);
}
);
userData = {
com.schriftgestaltung.Glyphs.lastChange = "2021-03-11 21:46:45 +0000";
};
width = 675;
},
{
anchors = (
{
name = bottom;
position = "{310, 0}";
}
);
layerId = master02;
paths = (
{
closed = 1;
nodes = (
"212 0 LINE",
"212 690 LINE",
"70 690 LINE",
"70 0 LINE"
);
},
{
closed = 1;
nodes = (
"299 334 LINE",
"325 344 LINE",
"565 690 LINE",
"406 690 LINE",
"155 328 LINE",
"155 117 LINE"
);
},
{
closed = 1;
nodes = (
"412 0 LINE",
"573 0 LINE",
"343 428 LINE",
"257 298 LINE"
);
}
);
userData = {
com.schriftgestaltung.Glyphs.lastChange = "2021-03-11 21:48:16 +0000";
};
width = 571;
},
{
anchors = (
{
name = bottom;
position = "{257, 0}";
}
);
layerId = master03;
paths = (
{
closed = 1;
nodes = (
"139 0 LINE",
"139 690 LINE",
"77 690 LINE",
"77 0 LINE"
);
},
{
closed = 1;
nodes = (
"213 349 LINE",
"220 357 LINE",
"478 690 LINE",
"412 690 LINE",
"133 329 LINE",
"133 246 LINE"
);
},
{
closed = 1;
nodes = (
"391 0 LINE",
"457 0 LINE",
"232 381 LINE",
"191 345 LINE"
);
}
);
userData = {
com.schriftgestaltung.Glyphs.lastChange = "2021-03-31 00:14:28 +0000";
};
width = 487;
},
{
anchors = (
{
name = bottom;
position = "{280, 0}";
}
);
layerId = master04;
paths = (
{
closed = 1;
nodes = (
"166 0 LINE",
"166 690 LINE",
"77 690 LINE",
"77 0 LINE"
);
},
{
closed = 1;
nodes = (
"250 352 LINE",
"262 352 LINE",
"495 690 LINE",
"389 690 LINE",
"144 336 LINE",
"144 203 LINE"
);
},
{
closed = 1;
nodes = (
"405 0 LINE",
"511 0 LINE",
"279 402 LINE",
"216 335 LINE"
);
}
);
userData = {
com.schriftgestaltung.Glyphs.lastChange = "2021-03-11 05:41:02 +0000";
};
width = 520;
},
{
anchors = (
{
name = bottom;
position = "{340, 0}";
}
);
layerId = master05;
paths = (
{
closed = 1;
nodes = (
"172 0 LINE",
"172 690 LINE",
"110 690 LINE",
"110 0 LINE"
);
},
{
closed = 1;
nodes = (
"287 357 LINE",
"294 365 LINE",
"573 690 LINE",
"498 690 LINE",
"166 299 LINE",
"166 216 LINE"
);
},
{
closed = 1;
nodes = (
"512 0 LINE",
"590 0 LINE",
"302 392 LINE",
"262 348 LINE"
);
}
);
userData = {
com.schriftgestaltung.Glyphs.lastChange = "2021-03-11 21:48:32 +0000";
};
width = 615;
},
{
anchors = (
{
name = bottom;
position = "{340, 0}";
}
);
layerId = master06;
paths = (
{
closed = 1;
nodes = (
"196 0 LINE",
"196 690 LINE",
"100 690 LINE",
"100 0 LINE"
);
},
{
closed = 1;
nodes = (
"300 343 LINE",
"307 351 LINE",
"606 690 LINE",
"489 690 LINE",
"180 331 LINE",
"180 207 LINE"
);
},
{
closed = 1;
nodes = (
"507 0 LINE",
"626 0 LINE",
"331 402 LINE",
"270 333 LINE"
);
}
);
userData = {
com.schriftgestaltung.Glyphs.lastChange = "2021-03-11 21:48:54 +0000";
};
width = 641;
}
);
leftKerningGroup = H;
rightKerningGroup = K;
unicode = 004B;
},
{
color = 5;
glyphname = L;
layers = (
{
anchors = (
{
name = bottom;
position = "{320, 0}";
},
{
name = caron.alt;
position = "{370, 680}";
},
{
name = top;
position = "{165, 690}";
}
);
layerId = master01;
paths = (
{
closed = 1;
nodes = (
"245 0 LINE",
"245 690 LINE",
"85 690 LINE",
"85 0 LINE"
);
},
{
closed = 1;
nodes = (
"555 0 LINE",
"555 140 LINE",
"159 140 LINE",
"159 0 LINE"
);
}
);
userData = {
com.schriftgestaltung.Glyphs.lastChange = "2021-03-11 23:09:59 +0000";
};
width = 590;
},
{
anchors = (
{
name = bottom;
position = "{274, 0}";
},
{
name = caron.alt;
position = "{312, 680}";
},
{
name = top;
position = "{141, 690}";
}
);
layerId = master02;
paths = (
{
closed = 1;
nodes = (
"212 0 LINE",
"212 690 LINE",
"70 690 LINE",
"70 0 LINE"
);
},
{
closed = 1;
nodes = (
"471 0 LINE",
"471 132 LINE",
"135 132 LINE",
"135 0 LINE"
);
}
);
userData = {
com.schriftgestaltung.Glyphs.lastChange = "2021-03-11 21:08:38 +0000";
};
width = 500;
},
{
anchors = (
{
name = bottom;
position = "{208, 0}";
},
{
name = caron.alt;
position = "{260, 680}";
},
{
name = top;
position = "{139, 690}";
}
);
layerId = master03;
paths = (
{
closed = 1;
nodes = (
"139 0 LINE",
"139 690 LINE",
"77 690 LINE",
"77 0 LINE"
);
},
{
closed = 1;
nodes = (
"339 0 LINE",
"339 54 LINE",
"107 54 LINE",
"107 0 LINE"
);
}
);
userData = {
com.schriftgestaltung.Glyphs.lastChange = "2021-03-31 00:14:43 +0000";
};
width = 370;
},
{
anchors = (
{
name = bottom;
position = "{232, 0}";
},
{
name = caron.alt;
position = "{288, 680}";
},
{
name = top;
position = "{122, 690}";
}
);
layerId = master04;
paths = (
{
closed = 1;
nodes = (
"167 0 LINE",
"167 690 LINE",
"77 690 LINE",
"77 0 LINE"
);
},
{
closed = 1;
nodes = (
"421 0 LINE",
"421 83 LINE",
"122 83 LINE",
"122 0 LINE"
);
}
);
userData = {
com.schriftgestaltung.Glyphs.lastChange = "2021-03-11 05:41:02 +0000";
};
width = 452;
},
{
anchors = (
{
name = bottom;
position = "{300, 0}";
},
{
name = caron.alt;
position = "{352, 680}";
},
{
name = top;
position = "{141, 690}";
}
);
layerId = master05;
paths = (
{
closed = 1;
nodes = (
"172 0 LINE",
"172 690 LINE",
"110 690 LINE",
"110 0 LINE"
);
},
{
closed = 1;
nodes = (
"492 0 LINE",
"492 54 LINE",
"140 54 LINE",
"140 0 LINE"
);
}
);
userData = {
com.schriftgestaltung.Glyphs.lastChange = "2021-03-11 21:44:02 +0000";
};
width = 542;
},
{
anchors = (
{
name = bottom;
position = "{280, 0}";
},
{
name = caron.alt;
position = "{356, 680}";
},
{
name = top;
position = "{148, 690}";
}
);
layerId = master06;
paths = (
{
closed = 1;
nodes = (
"196 0 LINE",
"196 690 LINE",
"100 690 LINE",
"100 0 LINE"
);
},
{
closed = 1;
nodes = (
"516 0 LINE",
"516 86 LINE",
"150 86 LINE",
"150 0 LINE"
);
}
);
userData = {
com.schriftgestaltung.Glyphs.lastChange = "2021-03-11 21:48:54 +0000";
};
width = 556;
}
);
leftKerningGroup = H;
rightKerningGroup = L;
unicode = 004C;
},
{
color = 5;
glyphname = Lslash;
layers = (
{
layerId = master01;
paths = (
{
closed = 1;
nodes = (
"250 0 LINE",
"250 690 LINE",
"90 690 LINE",
"90 0 LINE"
);
},
{
closed = 1;
nodes = (
"560 0 LINE",
"560 140 LINE",
"164 140 LINE",
"164 0 LINE"
);
},
{
closed = 1;
nodes = (
"370 360 LINE",
"370 510 LINE",
"30 320 LINE",
"30 170 LINE"
);
}
);
userData = {
com.schriftgestaltung.Glyphs.lastChange = "2021-03-11 23:09:59 +0000";
};
width = 595;
},
{
layerId = master02;
paths = (
{
closed = 1;
nodes = (
"215 0 LINE",
"215 690 LINE",
"73 690 LINE",
"73 0 LINE"
);
},
{
closed = 1;
nodes = (
"474 0 LINE",
"474 132 LINE",
"138 132 LINE",
"138 0 LINE"
);
},
{
closed = 1;
nodes = (
"312 364 LINE",
"312 506 LINE",
"25 317 LINE",
"25 176 LINE"
);
}
);
userData = {
com.schriftgestaltung.Glyphs.lastChange = "2021-03-11 21:08:56 +0000";
};
width = 503;
},
{
layerId = master03;
paths = (
{
closed = 1;
nodes = (
"147 0 LINE",
"147 690 LINE",
"85 690 LINE",
"85 0 LINE"
);
},
{
closed = 1;
nodes = (
"377 0 LINE",
"377 54 LINE",
"115 54 LINE",
"115 0 LINE"
);
},
{
closed = 1;
nodes = (
"257 360 LINE",
"257 420 LINE",
"30 280 LINE",
"30 220 LINE"
);
}
);
userData = {
com.schriftgestaltung.Glyphs.lastChange = "2021-03-11 05:54:46 +0000";
};
width = 412;
},
{
layerId = master04;
paths = (
{
closed = 1;
nodes = (
"174 0 LINE",
"174 690 LINE",
"84 690 LINE",
"84 0 LINE"
);
},
{
closed = 1;
nodes = (
"428 0 LINE",
"428 83 LINE",
"129 83 LINE",
"129 0 LINE"
);
},
{
closed = 1;
nodes = (
"288 392 LINE",
"288 478 LINE",
"27 299 LINE",
"27 212 LINE"
);
}
);
userData = {
com.schriftgestaltung.Glyphs.lastChange = "2021-03-11 05:54:55 +0000";
};
width = 459;
},
{
layerId = master05;
paths = (
{
closed = 1;
nodes = (
"182 0 LINE",
"182 690 LINE",
"120 690 LINE",
"120 0 LINE"
);
},
{
closed = 1;
nodes = (
"502 0 LINE",
"502 54 LINE",
"150 54 LINE",
"150 0 LINE"
);
},
{
closed = 1;
nodes = (
"332 380 LINE",
"332 440 LINE",
"45 280 LINE",
"45 220 LINE"
);
}
);
userData = {
com.schriftgestaltung.Glyphs.lastChange = "2021-03-11 21:44:02 +0000";
};
width = 552;
},
{
layerId = master06;
paths = (
{
closed = 1;
nodes = (
"206 0 LINE",
"206 690 LINE",
"110 690 LINE",
"110 0 LINE"
);
},
{
closed = 1;
nodes = (
"526 0 LINE",
"526 86 LINE",
"160 86 LINE",
"160 0 LINE"
);
},
{
closed = 1;
nodes = (
"356 390 LINE",
"356 480 LINE",
"35 300 LINE",
"35 210 LINE"
);
}
);
userData = {
com.schriftgestaltung.Glyphs.lastChange = "2021-03-11 21:48:54 +0000";
};
width = 566;
}
);
leftKerningGroup = H;
rightKerningGroup = L;
unicode = 0141;
},
{
color = 5;
glyphname = M;
layers = (
{
layerId = master01;
paths = (
{
closed = 1;
nodes = (
"238 0 LINE",
"238 690 LINE",
"85 690 LINE",
"85 0 LINE"
);
},
{
closed = 1;
nodes = (
"374 141 LINE",
"435 141 LINE",
"435 335 LINE",
"304 690 LINE",
"157 690 LINE"
);
},
{
closed = 1;
nodes = (
"480 141 LINE",
"697 690 LINE",
"550 690 LINE",
"419 335 LINE",
"419 141 LINE"
);
},
{
closed = 1;
nodes = (
"769 0 LINE",
"769 690 LINE",
"616 690 LINE",
"616 0 LINE"
);
}
);
userData = {
com.schriftgestaltung.Glyphs.lastChange = "2021-03-11 23:09:59 +0000";
};
width = 854;
},
{
layerId = master02;
paths = (
{
closed = 1;
nodes = (
"205 0 LINE",
"205 690 LINE",
"70 690 LINE",
"70 0 LINE"
);
},
{
closed = 1;
nodes = (
"307 143 LINE",
"366 143 LINE",
"370 322 LINE",
"243 690 LINE",
"139 690 LINE"
);
},
{
closed = 1;
nodes = (
"413 143 LINE",
"581 690 LINE",
"477 690 LINE",
"350 322 LINE",
"354 143 LINE"
);
},
{
closed = 1;
nodes = (
"650 0 LINE",
"650 690 LINE",
"515 690 LINE",
"515 0 LINE"
);
}
);
userData = {
com.schriftgestaltung.Glyphs.lastChange = "2021-03-11 21:08:38 +0000";
};
width = 719;
},
{
layerId = master03;
paths = (
{
closed = 1;
nodes = (
"142 0 LINE",
"142 690 LINE",
"80 690 LINE",
"80 0 LINE"
);
},
{
closed = 1;
nodes = (
"280 175 LINE",
"318 175 LINE",
"306 254 LINE",
"183 690 LINE",
"131 690 LINE"
);
},
{
closed = 1;
nodes = (
"330 175 LINE",
"479 690 LINE",
"427 690 LINE",
"304 254 LINE",
"293 175 LINE"
);
},
{
closed = 1;
nodes = (
"530 0 LINE",
"530 690 LINE",
"468 690 LINE",
"468 0 LINE"
);
}
);
userData = {
com.schriftgestaltung.Glyphs.lastChange = "2021-03-31 01:16:59 +0000";
};
width = 610;
},
{
guideLines = (
{
position = "{235, 536}";
}
);
layerId = master04;
paths = (
{
closed = 1;
nodes = (
"165 0 LINE",
"165 690 LINE",
"77 690 LINE",
"77 0 LINE"
);
},
{
closed = 1;
nodes = (
"301 156 LINE",
"348 156 LINE",
"348 255 LINE",
"191 690 LINE",
"111 690 LINE"
);
},
{
closed = 1;
nodes = (
"372 156 LINE",
"561 690 LINE",
"482 690 LINE",
"325 255 LINE",
"325 156 LINE"
);
},
{
closed = 1;
nodes = (
"596 0 LINE",
"596 690 LINE",
"508 690 LINE",
"508 0 LINE"
);
}
);
userData = {
com.schriftgestaltung.Glyphs.lastChange = "2021-03-11 05:54:55 +0000";
com.typemytype.robofont.guideline.magnetic.QutHHUhOQl = 5;
};
width = 673;
},
{
layerId = master05;
paths = (
{
closed = 1;
nodes = (
"172 0 LINE",
"172 690 LINE",
"110 690 LINE",
"110 0 LINE"
);
},
{
closed = 1;
nodes = (
"390 175 LINE",
"417 175 LINE",
"417 254 LINE",
"213 690 LINE",
"144 690 LINE"
);
},
{
closed = 1;
nodes = (
"440 175 LINE",
"686 690 LINE",
"617 690 LINE",
"413 254 LINE",
"413 175 LINE"
);
},
{
closed = 1;
nodes = (
"720 0 LINE",
"720 690 LINE",
"658 690 LINE",
"658 0 LINE"
);
}
);
userData = {
com.schriftgestaltung.Glyphs.lastChange = "2021-03-11 21:44:02 +0000";
};
width = 830;
},
{
layerId = master06;
paths = (
{
closed = 1;
nodes = (
"196 0 LINE",
"196 690 LINE",
"100 690 LINE",
"100 0 LINE"
);
},
{
closed = 1;
nodes = (
"388 155 LINE",
"430 155 LINE",
"436 250 LINE",
"241 690 LINE",
"143 690 LINE"
);
},
{
closed = 1;
nodes = (
"448 155 LINE",
"693 690 LINE",
"595 690 LINE",
"400 250 LINE",
"406 155 LINE"
);
},
{
closed = 1;
nodes = (
"736 0 LINE",
"736 690 LINE",
"640 690 LINE",
"640 0 LINE"
);
}
);
userData = {
com.schriftgestaltung.Glyphs.lastChange = "2021-03-11 21:48:54 +0000";
};
width = 836;
}
);
leftKerningGroup = H;
rightKerningGroup = H;
unicode = 004D;
},
{
color = 5;
glyphname = N;
layers = (
{
anchors = (
{
name = bottom;
position = "{360, 0}";
},
{
name = top;
position = "{397, 690}";
}
);
layerId = master01;
paths = (
{
closed = 1;
nodes = (
"229 0 LINE",
"229 690 LINE",
"85 690 LINE",
"85 0 LINE"
);
},
{
closed = 1;
nodes = (
"480 0 LINE",
"629 0 LINE",
"290 690 LINE",
"141 690 LINE"
);
},
{
closed = 1;
nodes = (
"674 0 LINE",
"674 690 LINE",
"530 690 LINE",
"530 0 LINE"
);
}
);
userData = {
com.schriftgestaltung.Glyphs.lastChange = "2021-03-11 23:09:59 +0000";
};
width = 759;
},
{
anchors = (
{
name = bottom;
position = "{301, 0}";
},
{
name = top;
position = "{334, 690}";
}
);
layerId = master02;
paths = (
{
closed = 1;
nodes = (
"196 0 LINE",
"196 690 LINE",
"70 690 LINE",
"70 0 LINE"
);
},
{
closed = 1;
nodes = (
"411 0 LINE",
"542 0 LINE",
"239 690 LINE",
"108 690 LINE"
);
},
{
closed = 1;
nodes = (
"569 0 LINE",
"569 690 LINE",
"443 690 LINE",
"443 0 LINE"
);
}
);
userData = {
com.schriftgestaltung.Glyphs.lastChange = "2021-03-11 21:08:38 +0000";
};
width = 639;
},
{
anchors = (
{
name = bottom;
position = "{252, 0}";
},
{
name = top;
position = "{279, 690}";
}
);
layerId = master03;
paths = (
{
closed = 1;
nodes = (
"139 0 LINE",
"139 690 LINE",
"77 690 LINE",
"77 0 LINE"
);
},
{
closed = 1;
nodes = (
"355 0 LINE",
"399 0 LINE",
"171 690 LINE",
"125 690 LINE"
);
},
{
closed = 1;
nodes = (
"453 0 LINE",
"453 690 LINE",
"391 690 LINE",
"391 0 LINE"
);
}
);
userData = {
com.schriftgestaltung.Glyphs.lastChange = "2021-03-31 15:59:08 +0000";
};
width = 530;
},
{
anchors = (
{
name = bottom;
position = "{296, 0}";
},
{
name = top;
position = "{313, 690}";
}
);
layerId = master04;
paths = (
{
closed = 1;
nodes = (
"163 0 LINE",
"163 690 LINE",
"77 690 LINE",
"77 0 LINE"
);
},
{
closed = 1;
nodes = (
"413 0 LINE",
"500 0 LINE",
"189 690 LINE",
"102 690 LINE"
);
},
{
closed = 1;
nodes = (
"523 0 LINE",
"523 690 LINE",
"437 690 LINE",
"437 0 LINE"
);
}
);
userData = {
com.schriftgestaltung.Glyphs.lastChange = "2021-03-11 05:54:55 +0000";
};
width = 600;
},
{
anchors = (
{
name = bottom;
position = "{350, 0}";
},
{
name = top;
position = "{377, 690}";
}
);
layerId = master05;
paths = (
{
closed = 1;
nodes = (
"172 0 LINE",
"172 690 LINE",
"110 690 LINE",
"110 0 LINE"
);
},
{
closed = 1;
nodes = (
"531 0 LINE",
"598 0 LINE",
"195 690 LINE",
"128 690 LINE"
);
},
{
closed = 1;
nodes = (
"616 0 LINE",
"616 690 LINE",
"554 690 LINE",
"554 0 LINE"
);
}
);
userData = {
com.schriftgestaltung.Glyphs.lastChange = "2021-03-11 21:44:02 +0000";
};
width = 726;
},
{
anchors = (
{
name = bottom;
position = "{373, 0}";
},
{
name = top;
position = "{389, 690}";
}
);
layerId = master06;
paths = (
{
closed = 1;
nodes = (
"196 0 LINE",
"196 690 LINE",
"100 690 LINE",
"100 0 LINE"
);
},
{
closed = 1;
nodes = (
"500 0 LINE",
"602 0 LINE",
"246 690 LINE",
"144 690 LINE"
);
},
{
closed = 1;
nodes = (
"646 0 LINE",
"646 690 LINE",
"550 690 LINE",
"550 0 LINE"
);
}
);
userData = {
com.schriftgestaltung.Glyphs.lastChange = "2021-03-11 21:48:54 +0000";
};
width = 746;
}
);
leftKerningGroup = H;
rightKerningGroup = H;
unicode = 004E;
},
{
color = 5;
glyphname = Nhookleft;
layers = (
{
layerId = master01;
paths = (
{
closed = 1;
nodes = (
"-24 -190 OFFCURVE",
"15 -197 OFFCURVE",
"46 -197 CURVE SMOOTH",
"161 -197 OFFCURVE",
"229 -129 OFFCURVE",
"229 8 CURVE SMOOTH",
"229 690 LINE",
"85 690 LINE",
"85 16 LINE SMOOTH",
"85 -46 OFFCURVE",
"59 -66 OFFCURVE",
"16 -66 CURVE SMOOTH",
"0 -66 OFFCURVE",
"-14 -63 OFFCURVE",
"-35 -57 CURVE",
"-51 -181 LINE"
);
},
{
closed = 1;
nodes = (
"480 0 LINE",
"629 0 LINE",
"290 690 LINE",
"141 690 LINE"
);
},
{
closed = 1;
nodes = (
"674 0 LINE",
"674 690 LINE",
"530 690 LINE",
"530 0 LINE"
);
}
);
userData = {
com.schriftgestaltung.Glyphs.lastChange = "2021-03-11 23:09:59 +0000";
};
width = 759;
},
{
layerId = master02;
paths = (
{
closed = 1;
nodes = (
"-21 -190 OFFCURVE",
"14 -197 OFFCURVE",
"40 -197 CURVE SMOOTH",
"139 -197 OFFCURVE",
"196 -130 OFFCURVE",
"196 2 CURVE SMOOTH",
"196 690 LINE",
"70 690 LINE",
"70 9 LINE SMOOTH",
"70 -52 OFFCURVE",
"48 -73 OFFCURVE",
"12 -73 CURVE SMOOTH",
"-1 -73 OFFCURVE",
"-12 -70 OFFCURVE",
"-31 -64 CURVE",
"-44 -181 LINE"
);
},
{
closed = 1;
nodes = (
"401 0 LINE",
"532 0 LINE",
"249 690 LINE",
"118 690 LINE"
);
},
{
closed = 1;
nodes = (
"569 0 LINE",
"569 690 LINE",
"443 690 LINE",
"443 0 LINE"
);
}
);
userData = {
com.schriftgestaltung.Glyphs.lastChange = "2021-02-19 06:20:23 +0000";
};
width = 639;
},
{
layerId = master03;
paths = (
{
closed = 1;
nodes = (
"-12 -187 OFFCURVE",
"16 -193 OFFCURVE",
"38 -193 CURVE SMOOTH",
"119 -193 OFFCURVE",
"172 -136 OFFCURVE",
"172 -48 CURVE SMOOTH",
"172 690 LINE",
"110 690 LINE",
"110 -47 LINE SMOOTH",
"110 -112 OFFCURVE",
"82 -138 OFFCURVE",
"36 -138 CURVE SMOOTH",
"17 -138 OFFCURVE",
"-1 -134 OFFCURVE",
"-19 -126 CURVE",
"-32 -177 LINE"
);
},
{
closed = 1;
nodes = (
"380 0 LINE",
"433 0 LINE",
"195 690 LINE",
"138 690 LINE"
);
},
{
closed = 1;
nodes = (
"465 0 LINE",
"465 690 LINE",
"403 690 LINE",
"403 0 LINE"
);
}
);
userData = {
com.schriftgestaltung.Glyphs.lastChange = "2021-03-17 01:02:22 +0000";
};
width = 550;
},
{
layerId = master04;
paths = (
{
closed = 1;
nodes = (
"-17 -189 OFFCURVE",
"7 -195 OFFCURVE",
"30 -195 CURVE SMOOTH",
"108 -195 OFFCURVE",
"164 -134 OFFCURVE",
"164 -36 CURVE SMOOTH",
"164 690 LINE",
"77 690 LINE",
"77 -33 LINE SMOOTH",
"77 -90 OFFCURVE",
"56 -117 OFFCURVE",
"20 -117 CURVE SMOOTH",
"5 -117 OFFCURVE",
"-8 -113 OFFCURVE",
"-22 -108 CURVE",
"-35 -181 LINE"
);
},
{
closed = 1;
nodes = (
"396 0 LINE",
"487 0 LINE",
"206 690 LINE",
"115 690 LINE"
);
},
{
closed = 1;
nodes = (
"523 0 LINE",
"523 690 LINE",
"436 690 LINE",
"436 0 LINE"
);
}
);
userData = {
com.schriftgestaltung.Glyphs.lastChange = "2021-03-11 21:00:37 +0000";
};
width = 600;
},
{
layerId = master05;
paths = (
{
closed = 1;
nodes = (
"-12 -187 OFFCURVE",
"16 -193 OFFCURVE",
"38 -193 CURVE SMOOTH",
"119 -193 OFFCURVE",
"172 -136 OFFCURVE",
"172 -48 CURVE SMOOTH",
"172 690 LINE",
"110 690 LINE",
"110 -47 LINE SMOOTH",
"110 -112 OFFCURVE",
"82 -138 OFFCURVE",
"36 -138 CURVE SMOOTH",
"17 -138 OFFCURVE",
"-1 -134 OFFCURVE",
"-19 -126 CURVE",
"-32 -177 LINE"
);
},
{
closed = 1;
nodes = (
"531 0 LINE",
"598 0 LINE",
"195 690 LINE",
"128 690 LINE"
);
},
{
closed = 1;
nodes = (
"616 0 LINE",
"616 690 LINE",
"554 690 LINE",
"554 0 LINE"
);
}
);
userData = {
com.schriftgestaltung.Glyphs.lastChange = "2021-03-11 21:44:02 +0000";
};
width = 726;
},
{
layerId = master06;
paths = (
{
closed = 1;
nodes = (
"-20 -189 OFFCURVE",
"7 -195 OFFCURVE",
"34 -195 CURVE SMOOTH",
"126 -195 OFFCURVE",
"196 -134 OFFCURVE",
"196 -34 CURVE SMOOTH",
"196 690 LINE",
"100 690 LINE",
"100 -30 LINE SMOOTH",
"100 -88 OFFCURVE",
"74 -114 OFFCURVE",
"28 -114 CURVE SMOOTH",
"8 -114 OFFCURVE",
"-9 -110 OFFCURVE",
"-25 -105 CURVE",
"-41 -181 LINE"
);
},
{
closed = 1;
nodes = (
"500 0 LINE",
"602 0 LINE",
"246 690 LINE",
"144 690 LINE"
);
},
{
closed = 1;
nodes = (
"646 0 LINE",
"646 690 LINE",
"550 690 LINE",
"550 0 LINE"
);
}
);
userData = {
com.schriftgestaltung.Glyphs.lastChange = "2021-03-11 21:49:09 +0000";
};
width = 746;
}
);
leftKerningGroup = j;
rightKerningGroup = H;
unicode = 019D;
},
{
color = 5;
glyphname = Eng;
layers = (
{
layerId = master01;
paths = (
{
closed = 1;
nodes = (
"229 0 LINE",
"229 690 LINE",
"85 690 LINE",
"85 0 LINE"
);
},
{
closed = 1;
nodes = (
"530 0 LINE",
"660 40 LINE",
"290 690 LINE",
"137 690 LINE"
);
},
{
closed = 1;
nodes = (
"421 -190 OFFCURVE",
"460 -197 OFFCURVE",
"491 -197 CURVE SMOOTH",
"606 -197 OFFCURVE",
"674 -129 OFFCURVE",
"674 8 CURVE SMOOTH",
"674 690 LINE",
"530 690 LINE",
"530 16 LINE SMOOTH",
"530 -46 OFFCURVE",
"504 -66 OFFCURVE",
"461 -66 CURVE SMOOTH",
"445 -66 OFFCURVE",
"431 -63 OFFCURVE",
"410 -57 CURVE",
"394 -181 LINE"
);
}
);
userData = {
com.schriftgestaltung.Glyphs.lastChange = "2021-03-11 23:09:59 +0000";
};
width = 759;
},
{
layerId = master02;
paths = (
{
closed = 1;
nodes = (
"196 0 LINE",
"196 690 LINE",
"70 690 LINE",
"70 0 LINE"
);
},
{
closed = 1;
nodes = (
"443 0 LINE",
"556 37 LINE",
"249 690 LINE",
"114 690 LINE"
);
},
{
closed = 1;
nodes = (
"353 -190 OFFCURVE",
"387 -197 OFFCURVE",
"413 -197 CURVE SMOOTH",
"513 -197 OFFCURVE",
"569 -130 OFFCURVE",
"569 2 CURVE SMOOTH",
"569 690 LINE",
"443 690 LINE",
"443 9 LINE SMOOTH",
"443 -52 OFFCURVE",
"421 -73 OFFCURVE",
"385 -73 CURVE SMOOTH",
"372 -73 OFFCURVE",
"361 -70 OFFCURVE",
"343 -64 CURVE",
"329 -181 LINE"
);
}
);
userData = {
com.schriftgestaltung.Glyphs.lastChange = "2021-03-11 21:09:29 +0000";
};
width = 639;
},
{
layerId = master03;
paths = (
{
closed = 1;
nodes = (
"172 0 LINE",
"172 690 LINE",
"110 690 LINE",
"110 0 LINE"
);
},
{
closed = 1;
nodes = (
"404 0 LINE",
"452 14 LINE",
"195 690 LINE",
"133 690 LINE"
);
},
{
closed = 1;
nodes = (
"282 -187 OFFCURVE",
"310 -193 OFFCURVE",
"332 -193 CURVE",
"413 -193 OFFCURVE",
"466 -136 OFFCURVE",
"466 -48 CURVE SMOOTH",
"466 690 LINE",
"404 690 LINE",
"404 -47 LINE SMOOTH",
"404 -112 OFFCURVE",
"376 -138 OFFCURVE",
"330 -138 CURVE",
"311 -138 OFFCURVE",
"293 -134 OFFCURVE",
"275 -126 CURVE",
"262 -177 LINE"
);
}
);
userData = {
com.schriftgestaltung.Glyphs.lastChange = "2021-03-17 01:04:51 +0000";
};
width = 576;
},
{
layerId = master04;
paths = (
{
closed = 1;
nodes = (
"164 0 LINE",
"164 690 LINE",
"77 690 LINE",
"77 0 LINE"
);
},
{
closed = 1;
nodes = (
"436 0 LINE",
"518 19 LINE",
"206 690 LINE",
"113 690 LINE"
);
},
{
closed = 1;
nodes = (
"342 -189 OFFCURVE",
"366 -195 OFFCURVE",
"389 -195 CURVE SMOOTH",
"467 -195 OFFCURVE",
"523 -134 OFFCURVE",
"523 -36 CURVE SMOOTH",
"523 690 LINE",
"436 690 LINE",
"436 -33 LINE SMOOTH",
"436 -90 OFFCURVE",
"415 -117 OFFCURVE",
"379 -117 CURVE SMOOTH",
"364 -117 OFFCURVE",
"351 -113 OFFCURVE",
"337 -108 CURVE",
"324 -181 LINE"
);
}
);
userData = {
com.schriftgestaltung.Glyphs.lastChange = "2021-03-11 21:00:37 +0000";
};
width = 600;
},
{
layerId = master05;
paths = (
{
closed = 1;
nodes = (
"172 0 LINE",
"172 690 LINE",
"110 690 LINE",
"110 0 LINE"
);
},
{
closed = 1;
nodes = (
"554 0 LINE",
"612 14 LINE",
"195 690 LINE",
"128 690 LINE"
);
},
{
closed = 1;
nodes = (
"432 -187 OFFCURVE",
"460 -193 OFFCURVE",
"482 -193 CURVE",
"563 -193 OFFCURVE",
"616 -136 OFFCURVE",
"616 -48 CURVE SMOOTH",
"616 690 LINE",
"554 690 LINE",
"554 -47 LINE SMOOTH",
"554 -112 OFFCURVE",
"526 -138 OFFCURVE",
"480 -138 CURVE",
"461 -138 OFFCURVE",
"443 -134 OFFCURVE",
"425 -126 CURVE",
"412 -177 LINE"
);
}
);
userData = {
com.schriftgestaltung.Glyphs.lastChange = "2021-03-11 21:44:02 +0000";
};
width = 726;
},
{
layerId = master06;
paths = (
{
closed = 1;
nodes = (
"196 0 LINE",
"196 690 LINE",
"100 690 LINE",
"100 0 LINE"
);
},
{
closed = 1;
nodes = (
"550 0 LINE",
"642 20 LINE",
"246 690 LINE",
"142 690 LINE"
);
},
{
closed = 1;
nodes = (
"430 -189 OFFCURVE",
"457 -195 OFFCURVE",
"484 -195 CURVE SMOOTH",
"576 -195 OFFCURVE",
"646 -134 OFFCURVE",
"646 -34 CURVE SMOOTH",
"646 690 LINE",
"550 690 LINE",
"550 -30 LINE SMOOTH",
"550 -88 OFFCURVE",
"524 -114 OFFCURVE",
"478 -114 CURVE SMOOTH",
"458 -114 OFFCURVE",
"441 -110 OFFCURVE",
"425 -105 CURVE",
"409 -181 LINE"
);
}
);
userData = {
com.schriftgestaltung.Glyphs.lastChange = "2021-03-11 21:49:09 +0000";
};
width = 746;
}
);
leftKerningGroup = H;
rightKerningGroup = H;
unicode = 014A;
},
{
color = 5;
glyphname = O;
layers = (
{
anchors = (
{
name = bottom;
position = "{372, 0}";
},
{
name = horn;
position = "{443, 690}";
},
{
name = ogonek;
position = "{430, 0}";
},
{
name = top;
position = "{372, 690}";
}
);
layerId = master01;
paths = (
{
closed = 1;
nodes = (
"45 122 OFFCURVE",
"192 -12 OFFCURVE",
"372 -12 CURVE SMOOTH",
"552 -12 OFFCURVE",
"699 122 OFFCURVE",
"699 345 CURVE SMOOTH",
"699 568 OFFCURVE",
"552 702 OFFCURVE",
"372 702 CURVE SMOOTH",
"192 702 OFFCURVE",
"45 568 OFFCURVE",
"45 345 CURVE SMOOTH"
);
},
{
closed = 1;
nodes = (
"208 489 OFFCURVE",
"278 559 OFFCURVE",
"372 559 CURVE SMOOTH",
"466 559 OFFCURVE",
"536 489 OFFCURVE",
"536 345 CURVE SMOOTH",
"536 201 OFFCURVE",
"466 131 OFFCURVE",
"372 131 CURVE SMOOTH",
"278 131 OFFCURVE",
"208 201 OFFCURVE",
"208 345 CURVE SMOOTH"
);
}
);
userData = {
com.schriftgestaltung.Glyphs.lastChange = "2021-03-17 22:39:17 +0000";
};
width = 744;
},
{
anchors = (
{
name = bottom;
position = "{314, 0}";
},
{
name = horn;
position = "{384, 690}";
},
{
name = ogonek;
position = "{376, 0}";
},
{
name = top;
position = "{314, 690}";
}
);
layerId = master02;
paths = (
{
closed = 1;
nodes = (
"36 111 OFFCURVE",
"151 -12 OFFCURVE",
"314 -12 CURVE",
"476 -12 OFFCURVE",
"591 111 OFFCURVE",
"591 345 CURVE SMOOTH",
"591 579 OFFCURVE",
"476 702 OFFCURVE",
"314 702 CURVE SMOOTH",
"151 702 OFFCURVE",
"36 579 OFFCURVE",
"36 345 CURVE SMOOTH"
);
},
{
closed = 1;
nodes = (
"181 504 OFFCURVE",
"231 567 OFFCURVE",
"314 567 CURVE SMOOTH",
"396 567 OFFCURVE",
"446 504 OFFCURVE",
"446 345 CURVE SMOOTH",
"446 186 OFFCURVE",
"396 123 OFFCURVE",
"314 123 CURVE",
"231 123 OFFCURVE",
"181 186 OFFCURVE",
"181 345 CURVE SMOOTH"
);
}
);
userData = {
com.schriftgestaltung.Glyphs.lastChange = "2021-03-17 22:31:53 +0000";
};
width = 627;
},
{
anchors = (
{
name = bottom;
position = "{263, 0}";
},
{
name = horn;
position = "{307, 690}";
},
{
name = ogonek;
position = "{305, 0}";
},
{
name = top;
position = "{263, 690}";
}
);
layerId = master03;
paths = (
{
closed = 1;
nodes = (
"45 152 OFFCURVE",
"105 -8 OFFCURVE",
"263 -8 CURVE SMOOTH",
"421 -8 OFFCURVE",
"481 152 OFFCURVE",
"481 345 CURVE SMOOTH",
"481 538 OFFCURVE",
"421 698 OFFCURVE",
"263 698 CURVE SMOOTH",
"105 698 OFFCURVE",
"45 538 OFFCURVE",
"45 345 CURVE SMOOTH"
);
},
{
closed = 1;
nodes = (
"109 502 OFFCURVE",
"138 641 OFFCURVE",
"263 641 CURVE SMOOTH",
"388 641 OFFCURVE",
"417 502 OFFCURVE",
"417 345 CURVE SMOOTH",
"417 188 OFFCURVE",
"388 49 OFFCURVE",
"263 49 CURVE SMOOTH",
"138 49 OFFCURVE",
"109 188 OFFCURVE",
"109 345 CURVE SMOOTH"
);
}
);
userData = {
com.schriftgestaltung.Glyphs.lastChange = "2021-03-31 01:24:09 +0000";
};
width = 526;
},
{
anchors = (
{
name = bottom;
position = "{292, 0}";
},
{
name = horn;
position = "{334, 690}";
},
{
name = ogonek;
position = "{318, 0}";
},
{
name = top;
position = "{292, 690}";
}
);
layerId = master04;
paths = (
{
closed = 1;
nodes = (
"45 101 OFFCURVE",
"157 -10 OFFCURVE",
"293 -10 CURVE SMOOTH",
"428 -10 OFFCURVE",
"540 101 OFFCURVE",
"540 345 CURVE SMOOTH",
"540 589 OFFCURVE",
"428 700 OFFCURVE",
"293 700 CURVE SMOOTH",
"157 700 OFFCURVE",
"45 589 OFFCURVE",
"45 345 CURVE SMOOTH"
);
},
{
closed = 1;
nodes = (
"138 534 OFFCURVE",
"204 614 OFFCURVE",
"293 614 CURVE SMOOTH",
"381 614 OFFCURVE",
"447 534 OFFCURVE",
"447 345 CURVE SMOOTH",
"447 156 OFFCURVE",
"381 76 OFFCURVE",
"293 76 CURVE SMOOTH",
"204 76 OFFCURVE",
"138 156 OFFCURVE",
"138 345 CURVE SMOOTH"
);
}
);
userData = {
com.schriftgestaltung.Glyphs.lastChange = "2021-03-17 02:39:00 +0000";
};
width = 585;
},
{
anchors = (
{
name = bottom;
position = "{358, 0}";
},
{
name = horn;
position = "{420, 690}";
},
{
name = ogonek;
position = "{400, 0}";
},
{
name = top;
position = "{358, 690}";
}
);
layerId = master05;
paths = (
{
closed = 1;
nodes = (
"70 112 OFFCURVE",
"200 -8 OFFCURVE",
"358 -8 CURVE SMOOTH",
"516 -8 OFFCURVE",
"646 112 OFFCURVE",
"646 345 CURVE SMOOTH",
"646 578 OFFCURVE",
"516 698 OFFCURVE",
"358 698 CURVE SMOOTH",
"200 698 OFFCURVE",
"70 578 OFFCURVE",
"70 345 CURVE SMOOTH"
);
},
{
closed = 1;
nodes = (
"134 542 OFFCURVE",
"233 641 OFFCURVE",
"358 641 CURVE SMOOTH",
"483 641 OFFCURVE",
"582 542 OFFCURVE",
"582 345 CURVE SMOOTH",
"582 148 OFFCURVE",
"483 49 OFFCURVE",
"358 49 CURVE SMOOTH",
"233 49 OFFCURVE",
"134 148 OFFCURVE",
"134 345 CURVE SMOOTH"
);
}
);
userData = {
com.schriftgestaltung.Glyphs.lastChange = "2021-03-17 04:00:09 +0000";
};
width = 716;
},
{
anchors = (
{
name = bottom;
position = "{363, 0}";
},
{
name = horn;
position = "{443, 690}";
},
{
name = ogonek;
position = "{400, 0}";
},
{
name = top;
position = "{363, 690}";
}
);
layerId = master06;
paths = (
{
closed = 1;
nodes = (
"60 112 OFFCURVE",
"197 -10 OFFCURVE",
"363 -10 CURVE SMOOTH",
"529 -10 OFFCURVE",
"666 112 OFFCURVE",
"666 345 CURVE SMOOTH",
"666 578 OFFCURVE",
"529 700 OFFCURVE",
"363 700 CURVE SMOOTH",
"197 700 OFFCURVE",
"60 578 OFFCURVE",
"60 345 CURVE SMOOTH"
);
},
{
closed = 1;
nodes = (
"159 522 OFFCURVE",
"246 611 OFFCURVE",
"363 611 CURVE SMOOTH",
"480 611 OFFCURVE",
"567 522 OFFCURVE",
"567 345 CURVE SMOOTH",
"567 168 OFFCURVE",
"480 79 OFFCURVE",
"363 79 CURVE SMOOTH",
"246 79 OFFCURVE",
"159 168 OFFCURVE",
"159 345 CURVE SMOOTH"
);
}
);
userData = {
com.schriftgestaltung.Glyphs.lastChange = "2021-03-17 03:15:01 +0000";
};
width = 726;
}
);
leftKerningGroup = O;
rightKerningGroup = O;
unicode = 004F;
},
{
color = 5;
glyphname = Oslash;
layers = (
{
anchors = (
{
name = top;
position = "{372, 690}";
}
);
components = (
{
name = O;
}
);
layerId = master01;
paths = (
{
closed = 1;
nodes = (
"110 -12 LINE",
"719 620 LINE",
"634 702 LINE",
"25 70 LINE"
);
}
);
userData = {
com.schriftgestaltung.Glyphs.lastChange = "2021-03-17 03:56:05 +0000";
};
width = 744;
},
{
anchors = (
{
name = top;
position = "{314, 690}";
}
);
components = (
{
name = O;
}
);
layerId = master02;
paths = (
{
closed = 1;
nodes = (
"94 -12 LINE",
"608 624 LINE",
"533 702 LINE",
"19 66 LINE"
);
}
);
userData = {
com.schriftgestaltung.Glyphs.lastChange = "2021-03-17 03:10:26 +0000";
};
width = 627;
},
{
anchors = (
{
name = top;
position = "{273, 690}";
}
);
components = (
{
name = O;
}
);
layerId = master03;
paths = (
{
closed = 1;
nodes = (
"75 -1 LINE",
"508 668 LINE",
"468 694 LINE",
"36 26 LINE"
);
}
);
userData = {
com.schriftgestaltung.Glyphs.lastChange = "2021-03-17 03:58:14 +0000";
};
width = 546;
},
{
anchors = (
{
name = top;
position = "{292, 690}";
}
);
components = (
{
name = O;
}
);
layerId = master04;
paths = (
{
closed = 1;
nodes = (
"80 -10 LINE",
"556 651 LINE",
"505 700 LINE",
"29 39 LINE"
);
}
);
userData = {
com.schriftgestaltung.Glyphs.lastChange = "2021-03-17 02:43:08 +0000";
};
width = 585;
},
{
anchors = (
{
name = top;
position = "{358, 690}";
}
);
components = (
{
name = O;
}
);
layerId = master05;
paths = (
{
closed = 1;
nodes = (
"75 -10 LINE",
"681 661 LINE",
"641 698 LINE",
"35 27 LINE"
);
}
);
userData = {
com.schriftgestaltung.Glyphs.lastChange = "2021-03-17 04:00:04 +0000";
};
width = 716;
},
{
anchors = (
{
name = top;
position = "{363, 690}";
}
);
components = (
{
name = O;
}
);
layerId = master06;
paths = (
{
closed = 1;
nodes = (
"96 -10 LINE",
"686 649 LINE",
"630 700 LINE",
"40 41 LINE"
);
}
);
userData = {
com.schriftgestaltung.Glyphs.lastChange = "2021-03-17 03:57:09 +0000";
};
width = 726;
}
);
leftKerningGroup = O;
rightKerningGroup = O;
unicode = 00D8;
},
{
color = 5;
glyphname = OE;
layers = (
{
layerId = master01;
paths = (
{
closed = 1;
nodes = (
"45 122 OFFCURVE",
"210 0 OFFCURVE",
"412 0 CURVE SMOOTH",
"502 0 LINE",
"502 140 LINE",
"412 140 LINE SMOOTH",
"295 140 OFFCURVE",
"208 201 OFFCURVE",
"208 345 CURVE SMOOTH",
"208 489 OFFCURVE",
"295 550 OFFCURVE",
"412 550 CURVE SMOOTH",
"502 550 LINE",
"502 690 LINE",
"412 690 LINE SMOOTH",
"210 690 OFFCURVE",
"45 568 OFFCURVE",
"45 345 CURVE SMOOTH"
);
},
{
closed = 1;
nodes = (
"640 0 LINE",
"640 690 LINE",
"480 690 LINE",
"480 0 LINE"
);
},
{
closed = 1;
nodes = (
"940 0 LINE",
"940 140 LINE",
"554 140 LINE",
"554 0 LINE"
);
},
{
closed = 1;
nodes = (
"888 282 LINE",
"888 414 LINE",
"554 414 LINE",
"554 282 LINE"
);
},
{
closed = 1;
nodes = (
"935 550 LINE",
"935 690 LINE",
"554 690 LINE",
"554 550 LINE"
);
}
);
userData = {
com.schriftgestaltung.Glyphs.lastChange = "2021-03-11 23:13:14 +0000";
};
width = 1000;
},
{
layerId = master02;
paths = (
{
closed = 1;
nodes = (
"36 121 OFFCURVE",
"176 0 OFFCURVE",
"347 0 CURVE SMOOTH",
"421 0 LINE",
"421 132 LINE",
"347 132 LINE SMOOTH",
"251 132 OFFCURVE",
"181 196 OFFCURVE",
"181 345 CURVE SMOOTH",
"181 494 OFFCURVE",
"251 558 OFFCURVE",
"347 558 CURVE SMOOTH",
"421 558 LINE",
"421 690 LINE",
"347 690 LINE SMOOTH",
"176 690 OFFCURVE",
"36 569 OFFCURVE",
"36 345 CURVE SMOOTH"
);
},
{
closed = 1;
nodes = (
"545 0 LINE",
"545 690 LINE",
"403 690 LINE",
"403 0 LINE"
);
},
{
closed = 1;
nodes = (
"793 0 LINE",
"793 132 LINE",
"468 132 LINE",
"468 0 LINE"
);
},
{
closed = 1;
nodes = (
"750 286 LINE",
"750 411 LINE",
"468 411 LINE",
"468 286 LINE"
);
},
{
closed = 1;
nodes = (
"789 558 LINE",
"789 690 LINE",
"468 690 LINE",
"468 558 LINE"
);
}
);
userData = {
com.schriftgestaltung.Glyphs.lastChange = "2021-03-11 21:09:29 +0000";
};
width = 842;
},
{
layerId = master03;
paths = (
{
closed = 1;
nodes = (
"45 132 OFFCURVE",
"153 0 OFFCURVE",
"333 0 CURVE SMOOTH",
"389 0 LINE",
"389 54 LINE",
"333 54 LINE SMOOTH",
"186 54 OFFCURVE",
"109 168 OFFCURVE",
"109 345 CURVE SMOOTH",
"109 522 OFFCURVE",
"186 636 OFFCURVE",
"333 636 CURVE SMOOTH",
"389 636 LINE",
"389 690 LINE",
"333 690 LINE SMOOTH",
"153 690 OFFCURVE",
"45 558 OFFCURVE",
"45 345 CURVE SMOOTH"
);
},
{
closed = 1;
nodes = (
"438 0 LINE",
"438 690 LINE",
"376 690 LINE",
"376 0 LINE"
);
},
{
closed = 1;
nodes = (
"692 0 LINE",
"692 54 LINE",
"406 54 LINE",
"406 0 LINE"
);
},
{
closed = 1;
nodes = (
"641 322 LINE",
"641 374 LINE",
"406 374 LINE",
"406 322 LINE"
);
},
{
closed = 1;
nodes = (
"687 636 LINE",
"687 690 LINE",
"406 690 LINE",
"406 636 LINE"
);
}
);
userData = {
com.schriftgestaltung.Glyphs.lastChange = "2021-03-11 20:56:07 +0000";
};
width = 747;
},
{
layerId = master04;
paths = (
{
closed = 1;
nodes = (
"45 111 OFFCURVE",
"168.731 0 OFFCURVE",
"331 0 CURVE SMOOTH",
"406 0 LINE",
"406 83 LINE",
"331 83 LINE SMOOTH",
"214.6 83 OFFCURVE",
"137 166 OFFCURVE",
"137 345 CURVE SMOOTH",
"137 524 OFFCURVE",
"214.6 607 OFFCURVE",
"331 607 CURVE SMOOTH",
"406 607 LINE",
"406 690 LINE",
"331 690 LINE SMOOTH",
"168.731 690 OFFCURVE",
"45 579 OFFCURVE",
"45 345 CURVE SMOOTH"
);
},
{
closed = 1;
nodes = (
"474 0 LINE",
"474 690 LINE",
"384 690 LINE",
"384 0 LINE"
);
},
{
closed = 1;
nodes = (
"735 0 LINE",
"735 83 LINE",
"429 83 LINE",
"429 0 LINE"
);
},
{
closed = 1;
nodes = (
"692 308 LINE",
"692 392 LINE",
"429 392 LINE",
"429 308 LINE"
);
},
{
closed = 1;
nodes = (
"731 607 LINE",
"731 690 LINE",
"429 690 LINE",
"429 607 LINE"
);
}
);
userData = {
com.schriftgestaltung.Glyphs.lastChange = "2021-03-11 21:00:46 +0000";
};
width = 789;
},
{
layerId = master05;
paths = (
{
closed = 1;
nodes = (
"70 112 OFFCURVE",
"218 0 OFFCURVE",
"398 0 CURVE SMOOTH",
"483 0 LINE",
"483 54 LINE",
"398 54 LINE SMOOTH",
"251 54 OFFCURVE",
"134 148 OFFCURVE",
"134 345 CURVE SMOOTH",
"134 542 OFFCURVE",
"251 636 OFFCURVE",
"398 636 CURVE SMOOTH",
"483 636 LINE",
"483 690 LINE",
"398 690 LINE SMOOTH",
"218 690 OFFCURVE",
"70 578 OFFCURVE",
"70 345 CURVE SMOOTH"
);
},
{
closed = 1;
nodes = (
"532 0 LINE",
"532 690 LINE",
"470 690 LINE",
"470 0 LINE"
);
},
{
closed = 1;
nodes = (
"866 0 LINE",
"866 54 LINE",
"500 54 LINE",
"500 0 LINE"
);
},
{
closed = 1;
nodes = (
"815 322 LINE",
"815 374 LINE",
"500 374 LINE",
"500 322 LINE"
);
},
{
closed = 1;
nodes = (
"861 636 LINE",
"861 690 LINE",
"500 690 LINE",
"500 636 LINE"
);
}
);
userData = {
com.schriftgestaltung.Glyphs.lastChange = "2021-03-11 21:44:19 +0000";
};
width = 936;
},
{
layerId = master06;
paths = (
{
closed = 1;
nodes = (
"60 112 OFFCURVE",
"217 0 OFFCURVE",
"408 0 CURVE SMOOTH",
"509 0 LINE",
"509 86 LINE",
"408 86 LINE SMOOTH",
"265 86 OFFCURVE",
"159 168 OFFCURVE",
"159 345 CURVE SMOOTH",
"159 522 OFFCURVE",
"265 604 OFFCURVE",
"408 604 CURVE SMOOTH",
"509 604 LINE",
"509 690 LINE",
"408 690 LINE SMOOTH",
"217 690 OFFCURVE",
"60 578 OFFCURVE",
"60 345 CURVE SMOOTH"
);
},
{
closed = 1;
nodes = (
"576 0 LINE",
"576 690 LINE",
"480 690 LINE",
"480 0 LINE"
);
},
{
closed = 1;
nodes = (
"911 0 LINE",
"911 86 LINE",
"530 86 LINE",
"530 0 LINE"
);
},
{
closed = 1;
nodes = (
"856 307 LINE",
"856 393 LINE",
"530 393 LINE",
"530 307 LINE"
);
},
{
closed = 1;
nodes = (
"906 604 LINE",
"906 690 LINE",
"530 690 LINE",
"530 604 LINE"
);
}
);
userData = {
com.schriftgestaltung.Glyphs.lastChange = "2021-03-11 21:49:28 +0000";
};
width = 981;
}
);
leftKerningGroup = O;
rightKerningGroup = E;
unicode = 0152;
},
{
color = 5;
glyphname = P;
layers = (
{
layerId = master01;
paths = (
{
closed = 1;
nodes = (
"245 0 LINE",
"245 690 LINE",
"85 690 LINE",
"85 0 LINE"
);
},
{
closed = 1;
nodes = (
"337 190 LINE SMOOTH",
"493 190 OFFCURVE",
"614 283 OFFCURVE",
"614 440 CURVE SMOOTH",
"614 597 OFFCURVE",
"493 690 OFFCURVE",
"337 690 CURVE SMOOTH",
"159 690 LINE",
"159 550 LINE",
"322 550 LINE SMOOTH",
"399 550 OFFCURVE",
"451 514 OFFCURVE",
"451 440 CURVE SMOOTH",
"451 366 OFFCURVE",
"399 330 OFFCURVE",
"322 330 CURVE SMOOTH",
"159 330 LINE",
"159 190 LINE"
);
}
);
userData = {
com.schriftgestaltung.Glyphs.lastChange = "2021-03-11 23:13:14 +0000";
};
width = 654;
},
{
layerId = master02;
paths = (
{
closed = 1;
nodes = (
"212 0 LINE",
"212 690 LINE",
"70 690 LINE",
"70 0 LINE"
);
},
{
closed = 1;
nodes = (
"264 201 LINE SMOOTH",
"416 201 OFFCURVE",
"520 287 OFFCURVE",
"520 443 CURVE SMOOTH",
"520 609 OFFCURVE",
"427 690 OFFCURVE",
"274 690 CURVE SMOOTH",
"135 690 LINE",
"135 558 LINE",
"260 558 LINE SMOOTH",
"340 558 OFFCURVE",
"375 520 OFFCURVE",
"375 443 CURVE SMOOTH",
"375 366 OFFCURVE",
"340 328 OFFCURVE",
"260 328 CURVE SMOOTH",
"135 328 LINE",
"135 201 LINE"
);
}
);
userData = {
com.schriftgestaltung.Glyphs.lastChange = "2021-03-11 21:09:29 +0000";
};
width = 552;
},
{
layerId = master03;
paths = (
{
closed = 1;
nodes = (
"139 0 LINE",
"139 690 LINE",
"77 690 LINE",
"77 0 LINE"
);
},
{
closed = 1;
nodes = (
"208 250 LINE SMOOTH",
"345 250 OFFCURVE",
"439 332 OFFCURVE",
"439 470 CURVE SMOOTH",
"439 608 OFFCURVE",
"345 690 OFFCURVE",
"208 690 CURVE SMOOTH",
"107 690 LINE",
"107 636 LINE",
"203 636 LINE SMOOTH",
"313 636 OFFCURVE",
"375 577 OFFCURVE",
"375 470 CURVE SMOOTH",
"375 363 OFFCURVE",
"313 304 OFFCURVE",
"203 304 CURVE SMOOTH",
"107 304 LINE",
"107 250 LINE"
);
}
);
userData = {
com.schriftgestaltung.Glyphs.lastChange = "2021-03-31 01:29:45 +0000";
};
width = 477;
},
{
layerId = master04;
paths = (
{
closed = 1;
nodes = (
"167 0 LINE",
"167 690 LINE",
"77 690 LINE",
"77 0 LINE"
);
},
{
closed = 1;
nodes = (
"245 232 LINE SMOOTH",
"376.806 232 OFFCURVE",
"472 305 OFFCURVE",
"472 461 CURVE SMOOTH",
"472 623 OFFCURVE",
"381 690 OFFCURVE",
"255 690 CURVE SMOOTH",
"122 690 LINE",
"122 607 LINE",
"248 607 LINE SMOOTH",
"335 607 OFFCURVE",
"380 565 OFFCURVE",
"380 461 CURVE SMOOTH",
"380 357 OFFCURVE",
"334 315 OFFCURVE",
"248 315 CURVE SMOOTH",
"122 315 LINE",
"122 232 LINE"
);
}
);
userData = {
com.schriftgestaltung.Glyphs.lastChange = "2021-03-11 21:00:46 +0000";
};
width = 510;
},
{
layerId = master05;
paths = (
{
closed = 1;
nodes = (
"172 0 LINE",
"172 690 LINE",
"110 690 LINE",
"110 0 LINE"
);
},
{
closed = 1;
nodes = (
"319 250 LINE SMOOTH",
"456 250 OFFCURVE",
"561 332 OFFCURVE",
"561 470 CURVE SMOOTH",
"561 608 OFFCURVE",
"456 690 OFFCURVE",
"319 690 CURVE SMOOTH",
"140 690 LINE",
"140 636 LINE",
"314 636 LINE SMOOTH",
"423.99 636 OFFCURVE",
"497 577 OFFCURVE",
"497 470 CURVE SMOOTH",
"497 363 OFFCURVE",
"423.99 304 OFFCURVE",
"314 304 CURVE SMOOTH",
"140 304 LINE",
"140 250 LINE"
);
}
);
userData = {
com.schriftgestaltung.Glyphs.lastChange = "2021-03-11 21:44:19 +0000";
};
width = 616;
},
{
layerId = master06;
paths = (
{
closed = 1;
nodes = (
"196 0 LINE",
"196 690 LINE",
"100 690 LINE",
"100 0 LINE"
);
},
{
closed = 1;
nodes = (
"328 230 LINE SMOOTH",
"469 230 OFFCURVE",
"582 311 OFFCURVE",
"582 460 CURVE SMOOTH",
"582 609 OFFCURVE",
"469 690 OFFCURVE",
"328 690 CURVE SMOOTH",
"150 690 LINE",
"150 604 LINE",
"323 604 LINE SMOOTH",
"415 604 OFFCURVE",
"483 553 OFFCURVE",
"483 460 CURVE SMOOTH",
"483 367 OFFCURVE",
"414 316 OFFCURVE",
"323 316 CURVE SMOOTH",
"150 316 LINE",
"150 230 LINE"
);
}
);
userData = {
com.schriftgestaltung.Glyphs.lastChange = "2021-03-11 21:49:28 +0000";
};
width = 632;
}
);
leftKerningGroup = H;
unicode = 0050;
},
{
color = 5;
glyphname = Thorn;
layers = (
{
layerId = master01;
paths = (
{
closed = 1;
nodes = (
"245 0 LINE",
"245 690 LINE",
"85 690 LINE",
"85 0 LINE"
);
},
{
closed = 1;
nodes = (
"347 100 LINE SMOOTH",
"497.368 100 OFFCURVE",
"614 191 OFFCURVE",
"614 345 CURVE SMOOTH",
"614 498.86 OFFCURVE",
"497.368 590 OFFCURVE",
"347 590 CURVE SMOOTH",
"159 590 LINE",
"159 450 LINE",
"332 450 LINE SMOOTH",
"403.031 450 OFFCURVE",
"451 415.636 OFFCURVE",
"451 345 CURVE SMOOTH",
"451 274 OFFCURVE",
"403.031 240 OFFCURVE",
"332 240 CURVE SMOOTH",
"159 240 LINE",
"159 100 LINE"
);
}
);
userData = {
com.schriftgestaltung.Glyphs.lastChange = "2021-03-11 23:13:14 +0000";
};
width = 654;
},
{
layerId = master02;
paths = (
{
closed = 1;
nodes = (
"212 0 LINE",
"212 690 LINE",
"70 690 LINE",
"70 0 LINE"
);
},
{
closed = 1;
nodes = (
"264 106 LINE SMOOTH",
"416 106 OFFCURVE",
"520 189.291 OFFCURVE",
"520 341 CURVE SMOOTH",
"520 505.347 OFFCURVE",
"427 585 OFFCURVE",
"274 585 CURVE SMOOTH",
"135 585 LINE",
"135 453 LINE",
"260 453 LINE SMOOTH",
"340 453 OFFCURVE",
"375 417.655 OFFCURVE",
"375 345 CURVE SMOOTH",
"375 272.648 OFFCURVE",
"340 238 OFFCURVE",
"260 238 CURVE SMOOTH",
"135 238 LINE",
"135 106 LINE"
);
}
);
userData = {
com.schriftgestaltung.Glyphs.lastChange = "2021-03-11 21:09:29 +0000";
};
width = 552;
},
{
layerId = master03;
paths = (
{
closed = 1;
nodes = (
"142 0 LINE",
"142 690 LINE",
"80 690 LINE",
"80 0 LINE"
);
},
{
closed = 1;
nodes = (
"224 150 LINE SMOOTH",
"327 150 OFFCURVE",
"411 223 OFFCURVE",
"411 345 CURVE SMOOTH",
"411 467 OFFCURVE",
"327 540 OFFCURVE",
"224 540 CURVE SMOOTH",
"110 540 LINE",
"110 486 LINE",
"219 486 LINE SMOOTH",
"294 486 OFFCURVE",
"347 436 OFFCURVE",
"347 345 CURVE SMOOTH",
"347 254 OFFCURVE",
"294 204 OFFCURVE",
"219 204 CURVE SMOOTH",
"110 204 LINE",
"110 150 LINE"
);
}
);
userData = {
com.schriftgestaltung.Glyphs.lastChange = "2021-03-11 20:56:07 +0000";
};
width = 451;
},
{
layerId = master04;
paths = (
{
closed = 1;
nodes = (
"167 0 LINE",
"167 690 LINE",
"77 690 LINE",
"77 0 LINE"
);
},
{
closed = 1;
nodes = (
"255 137 LINE",
"394 137 OFFCURVE",
"472 214 OFFCURVE",
"472 345 CURVE SMOOTH",
"472 477 OFFCURVE",
"394 553 OFFCURVE",
"255 553 CURVE",
"122 553 LINE",
"122 470 LINE",
"249 470 LINE",
"352 470 OFFCURVE",
"380 423 OFFCURVE",
"380 345 CURVE SMOOTH",
"380 268 OFFCURVE",
"352 220 OFFCURVE",
"249 220 CURVE",
"122 220 LINE",
"122 137 LINE"
);
}
);
userData = {
com.schriftgestaltung.Glyphs.lastChange = "2021-03-11 21:00:46 +0000";
};
width = 510;
},
{
layerId = master05;
paths = (
{
closed = 1;
nodes = (
"172 0 LINE",
"172 690 LINE",
"110 690 LINE",
"110 0 LINE"
);
},
{
closed = 1;
nodes = (
"344 150 LINE SMOOTH",
"466.847 150 OFFCURVE",
"561 222.682 OFFCURVE",
"561 345 CURVE SMOOTH",
"561 467.318 OFFCURVE",
"466.847 540 OFFCURVE",
"344 540 CURVE SMOOTH",
"140 540 LINE",
"140 486 LINE",
"339 486 LINE SMOOTH",
"433.973 486 OFFCURVE",
"497 435.886 OFFCURVE",
"497 345 CURVE SMOOTH",
"497 254.114 OFFCURVE",
"433.973 204 OFFCURVE",
"339 204 CURVE SMOOTH",
"140 204 LINE",
"140 150 LINE"
);
}
);
userData = {
com.schriftgestaltung.Glyphs.lastChange = "2021-03-11 21:44:19 +0000";
};
width = 616;
},
{
layerId = master06;
paths = (
{
closed = 1;
nodes = (
"196 0 LINE",
"196 690 LINE",
"100 690 LINE",
"100 0 LINE"
);
},
{
closed = 1;
nodes = (
"343 135 LINE SMOOTH",
"475.673 135 OFFCURVE",
"582 208.957 OFFCURVE",
"582 345 CURVE SMOOTH",
"582 481.043 OFFCURVE",
"475.673 555 OFFCURVE",
"343 555 CURVE SMOOTH",
"150 555 LINE",
"150 469 LINE",
"338 469 LINE SMOOTH",
"421.375 469 OFFCURVE",
"483 425.083 OFFCURVE",
"483 345 CURVE SMOOTH",
"483 264.917 OFFCURVE",
"420.469 221 OFFCURVE",
"338 221 CURVE SMOOTH",
"150 221 LINE",
"150 135 LINE"
);
}
);
userData = {
com.schriftgestaltung.Glyphs.lastChange = "2021-03-11 21:49:28 +0000";
};
width = 632;
}
);
leftKerningGroup = H;
unicode = 00DE;
},
{
color = 5;
glyphname = Q;
layers = (
{
layerId = master01;
paths = (
{
closed = 1;
nodes = (
"450 -114 OFFCURVE",
"535 -172 OFFCURVE",
"680 -172 CURVE",
"680 -22 LINE",
"605 -22 OFFCURVE",
"560 0 OFFCURVE",
"540 60 CURVE",
"415 10 LINE"
);
},
{
closed = 1;
nodes = (
"45 122 OFFCURVE",
"192 -12 OFFCURVE",
"372 -12 CURVE SMOOTH",
"552 -12 OFFCURVE",
"699 122 OFFCURVE",
"699 345 CURVE SMOOTH",
"699 568 OFFCURVE",
"552 702 OFFCURVE",
"372 702 CURVE SMOOTH",
"192 702 OFFCURVE",
"45 568 OFFCURVE",
"45 345 CURVE SMOOTH"
);
},
{
closed = 1;
nodes = (
"208 489 OFFCURVE",
"278 559 OFFCURVE",
"372 559 CURVE SMOOTH",
"466 559 OFFCURVE",
"536 489 OFFCURVE",
"536 345 CURVE SMOOTH",
"536 201 OFFCURVE",
"466 131 OFFCURVE",
"372 131 CURVE SMOOTH",
"278 131 OFFCURVE",
"208 201 OFFCURVE",
"208 345 CURVE SMOOTH"
);
}
);
userData = {
com.schriftgestaltung.Glyphs.lastChange = "2021-03-11 23:13:14 +0000";
};
width = 744;
},
{
layerId = master02;
paths = (
{
closed = 1;
nodes = (
"379 -113 OFFCURVE",
"451 -170 OFFCURVE",
"574 -171 CURVE",
"574 -29 LINE",
"512 -29 OFFCURVE",
"475 -7 OFFCURVE",
"459 56 CURVE",
"348 10 LINE"
);
},
{
closed = 1;
nodes = (
"36 111 OFFCURVE",
"151 -12 OFFCURVE",
"314 -12 CURVE",
"476 -12 OFFCURVE",
"591 111 OFFCURVE",
"591 345 CURVE SMOOTH",
"591 579 OFFCURVE",
"476 702 OFFCURVE",
"314 702 CURVE SMOOTH",
"151 702 OFFCURVE",
"36 579 OFFCURVE",
"36 345 CURVE SMOOTH"
);
},
{
closed = 1;
nodes = (
"181 504 OFFCURVE",
"231 567 OFFCURVE",
"314 567 CURVE SMOOTH",
"396 567 OFFCURVE",
"446 504 OFFCURVE",
"446 345 CURVE SMOOTH",
"446 186 OFFCURVE",
"396 123 OFFCURVE",
"314 123 CURVE",
"231 123 OFFCURVE",
"181 186 OFFCURVE",
"181 345 CURVE SMOOTH"
);
}
);
userData = {
com.schriftgestaltung.Glyphs.lastChange = "2021-03-11 21:09:29 +0000";
};
width = 627;
},
{
layerId = master03;
paths = (
{
closed = 1;
nodes = (
"360 -83 OFFCURVE",
"405 -139 OFFCURVE",
"491 -150 CURVE",
"491 -87 LINE",
"439 -80 OFFCURVE",
"403 -40 OFFCURVE",
"389 29 CURVE",
"339 7 LINE"
);
},
{
closed = 1;
nodes = (
"45 142 OFFCURVE",
"115 -8 OFFCURVE",
"273 -8 CURVE SMOOTH",
"431 -8 OFFCURVE",
"501 142 OFFCURVE",
"501 345 CURVE SMOOTH",
"501 548 OFFCURVE",
"431 698 OFFCURVE",
"273 698 CURVE SMOOTH",
"115 698 OFFCURVE",
"45 548 OFFCURVE",
"45 345 CURVE SMOOTH"
);
},
{
closed = 1;
nodes = (
"109 512 OFFCURVE",
"148 641 OFFCURVE",
"273 641 CURVE SMOOTH",
"398 641 OFFCURVE",
"437 512 OFFCURVE",
"437 345 CURVE SMOOTH",
"437 178 OFFCURVE",
"398 49 OFFCURVE",
"273 49 CURVE SMOOTH",
"148 49 OFFCURVE",
"109 178 OFFCURVE",
"109 345 CURVE SMOOTH"
);
}
);
userData = {
com.schriftgestaltung.Glyphs.lastChange = "2021-03-31 01:36:02 +0000";
};
width = 546;
},
{
layerId = master04;
paths = (
{
closed = 1;
nodes = (
"348 -108 OFFCURVE",
"414 -160 OFFCURVE",
"525 -165 CURVE",
"525 -74 LINE",
"460 -74 OFFCURVE",
"421 -46 OFFCURVE",
"401 35 CURVE",
"326 9 LINE"
);
},
{
closed = 1;
nodes = (
"45 101 OFFCURVE",
"157 -10 OFFCURVE",
"293 -10 CURVE SMOOTH",
"428 -10 OFFCURVE",
"540 101 OFFCURVE",
"540 345 CURVE SMOOTH",
"540 589 OFFCURVE",
"428 700 OFFCURVE",
"293 700 CURVE SMOOTH",
"157 700 OFFCURVE",
"45 589 OFFCURVE",
"45 345 CURVE SMOOTH"
);
},
{
closed = 1;
nodes = (
"138 534 OFFCURVE",
"204 614 OFFCURVE",
"293 614 CURVE SMOOTH",
"381 614 OFFCURVE",
"447 534 OFFCURVE",
"447 345 CURVE SMOOTH",
"447 156 OFFCURVE",
"381 76 OFFCURVE",
"293 76 CURVE SMOOTH",
"204 76 OFFCURVE",
"138 156 OFFCURVE",
"138 345 CURVE SMOOTH"
);
}
);
userData = {
com.schriftgestaltung.Glyphs.lastChange = "2021-03-11 21:00:46 +0000";
};
width = 585;
},
{
layerId = master05;
paths = (
{
closed = 1;
nodes = (
"451 -97 OFFCURVE",
"527 -146 OFFCURVE",
"641 -150 CURVE",
"641 -87 LINE",
"559 -87 OFFCURVE",
"498 -58 OFFCURVE",
"474 29 CURVE",
"424 7 LINE"
);
},
{
closed = 1;
nodes = (
"70 112 OFFCURVE",
"200 -8 OFFCURVE",
"358 -8 CURVE SMOOTH",
"516 -8 OFFCURVE",
"646 112 OFFCURVE",
"646 345 CURVE SMOOTH",
"646 578 OFFCURVE",
"516 698 OFFCURVE",
"358 698 CURVE SMOOTH",
"200 698 OFFCURVE",
"70 578 OFFCURVE",
"70 345 CURVE SMOOTH"
);
},
{
closed = 1;
nodes = (
"134 542 OFFCURVE",
"233 641 OFFCURVE",
"358 641 CURVE SMOOTH",
"483 641 OFFCURVE",
"582 542 OFFCURVE",
"582 345 CURVE SMOOTH",
"582 148 OFFCURVE",
"483 49 OFFCURVE",
"358 49 CURVE SMOOTH",
"233 49 OFFCURVE",
"134 148 OFFCURVE",
"134 345 CURVE SMOOTH"
);
}
);
userData = {
com.schriftgestaltung.Glyphs.lastChange = "2021-03-11 21:44:19 +0000";
};
width = 716;
},
{
layerId = master06;
paths = (
{
closed = 1;
nodes = (
"445 -108 OFFCURVE",
"520 -161 OFFCURVE",
"656 -165 CURVE",
"656 -71 LINE",
"573 -71 OFFCURVE",
"523 -44 OFFCURVE",
"496 36 CURVE",
"420 9 LINE"
);
},
{
closed = 1;
nodes = (
"60 112 OFFCURVE",
"197 -10 OFFCURVE",
"363 -10 CURVE SMOOTH",
"529 -10 OFFCURVE",
"666 112 OFFCURVE",
"666 345 CURVE SMOOTH",
"666 578 OFFCURVE",
"529 700 OFFCURVE",
"363 700 CURVE SMOOTH",
"197 700 OFFCURVE",
"60 578 OFFCURVE",
"60 345 CURVE SMOOTH"
);
},
{
closed = 1;
nodes = (
"159 522 OFFCURVE",
"246 611 OFFCURVE",
"363 611 CURVE SMOOTH",
"480 611 OFFCURVE",
"567 522 OFFCURVE",
"567 345 CURVE SMOOTH",
"567 168 OFFCURVE",
"480 79 OFFCURVE",
"363 79 CURVE SMOOTH",
"246 79 OFFCURVE",
"159 168 OFFCURVE",
"159 345 CURVE SMOOTH"
);
}
);
userData = {
com.schriftgestaltung.Glyphs.lastChange = "2021-03-11 21:49:28 +0000";
};
width = 726;
}
);
leftKerningGroup = O;
rightKerningGroup = O;
unicode = 0051;
},
{
color = 5;
glyphname = R;
layers = (
{
anchors = (
{
name = bottom;
position = "{340, 0}";
},
{
name = top;
position = "{322, 690}";
}
);
layerId = master01;
paths = (
{
closed = 1;
nodes = (
"245 0 LINE",
"245 690 LINE",
"85 690 LINE",
"85 0 LINE"
);
},
{
closed = 1;
nodes = (
"347 240 LINE SMOOTH",
"492 240 OFFCURVE",
"604 322 OFFCURVE",
"604 460 CURVE SMOOTH",
"604 604 OFFCURVE",
"492 690 OFFCURVE",
"347 690 CURVE SMOOTH",
"159 690 LINE",
"159 550 LINE",
"332 550 LINE SMOOTH",
"397 550 OFFCURVE",
"441 521 OFFCURVE",
"441 460 CURVE SMOOTH",
"441 399 OFFCURVE",
"397 370 OFFCURVE",
"332 370 CURVE SMOOTH",
"159 370 LINE",
"159 240 LINE"
);
},
{
closed = 1;
nodes = (
"447 0 LINE",
"624 0 LINE",
"455 290 LINE",
"296 290 LINE"
);
}
);
userData = {
com.schriftgestaltung.Glyphs.lastChange = "2021-03-11 23:13:14 +0000";
};
width = 659;
},
{
anchors = (
{
name = bottom;
position = "{287, 0}";
},
{
name = top;
position = "{271, 690}";
}
);
layerId = master02;
paths = (
{
closed = 1;
nodes = (
"212 0 LINE",
"212 690 LINE",
"70 690 LINE",
"70 0 LINE"
);
},
{
closed = 1;
nodes = (
"293 243 LINE SMOOTH",
"416 243 OFFCURVE",
"511 324 OFFCURVE",
"511 462 CURVE SMOOTH",
"511 605 OFFCURVE",
"416 690 OFFCURVE",
"293 690 CURVE SMOOTH",
"135 690 LINE",
"135 558 LINE",
"269 558 LINE",
"335 558 OFFCURVE",
"366 527 OFFCURVE",
"366 462 CURVE SMOOTH",
"366 398 OFFCURVE",
"336 366 OFFCURVE",
"269 366 CURVE",
"135 366 LINE",
"135 243 LINE"
);
},
{
closed = 1;
nodes = (
"375 0 LINE",
"528 0 LINE",
"388 290 LINE",
"252 290 LINE"
);
}
);
userData = {
com.schriftgestaltung.Glyphs.lastChange = "2021-03-11 21:09:29 +0000";
};
width = 555;
},
{
anchors = (
{
name = bottom;
position = "{241, 0}";
},
{
name = top;
position = "{222, 690}";
}
);
layerId = master03;
paths = (
{
closed = 1;
nodes = (
"139 0 LINE",
"139 690 LINE",
"77 690 LINE",
"77 0 LINE"
);
},
{
closed = 1;
nodes = (
"193 276 LINE SMOOTH",
"335 276 OFFCURVE",
"428 354 OFFCURVE",
"428 483 CURVE SMOOTH",
"428 612 OFFCURVE",
"336 690 OFFCURVE",
"201 690 CURVE SMOOTH",
"107 690 LINE",
"107 636 LINE",
"196 636 LINE SMOOTH",
"304 636 OFFCURVE",
"364 581 OFFCURVE",
"364 483 CURVE SMOOTH",
"364 385 OFFCURVE",
"296 330 OFFCURVE",
"188 330 CURVE SMOOTH",
"107 330 LINE",
"107 276 LINE"
);
},
{
closed = 1;
nodes = (
"386 0 LINE",
"458 0 LINE",
"269 290 LINE",
"203 290 LINE"
);
}
);
userData = {
com.schriftgestaltung.Glyphs.lastChange = "2021-03-31 01:43:25 +0000";
};
width = 498;
},
{
anchors = (
{
name = bottom;
position = "{266, 0}";
},
{
name = top;
position = "{255, 690}";
}
);
layerId = master04;
paths = (
{
closed = 1;
nodes = (
"167 0 LINE",
"167 690 LINE",
"77 690 LINE",
"77 0 LINE"
);
},
{
closed = 1;
nodes = (
"240 261 LINE",
"371 261 OFFCURVE",
"467 334 OFFCURVE",
"467 476 CURVE SMOOTH",
"467 627 OFFCURVE",
"375 690 OFFCURVE",
"250 690 CURVE",
"122 690 LINE",
"122 607 LINE",
"238 607 LINE",
"327 607 OFFCURVE",
"375 568 OFFCURVE",
"375 476 CURVE SMOOTH",
"375 383 OFFCURVE",
"326 342 OFFCURVE",
"238 342 CURVE",
"122 342 LINE",
"122 261 LINE"
);
},
{
closed = 1;
nodes = (
"380 0 LINE",
"482 0 LINE",
"335 290 LINE",
"238 290 LINE"
);
}
);
userData = {
com.schriftgestaltung.Glyphs.lastChange = "2021-03-11 21:00:46 +0000";
};
width = 522;
},
{
anchors = (
{
name = bottom;
position = "{310, 0}";
},
{
name = top;
position = "{289, 690}";
}
);
layerId = master05;
paths = (
{
closed = 1;
nodes = (
"172 0 LINE",
"172 690 LINE",
"110 690 LINE",
"110 0 LINE"
);
},
{
closed = 1;
nodes = (
"304 276 LINE SMOOTH",
"439 276 OFFCURVE",
"541 354 OFFCURVE",
"541 483 CURVE SMOOTH",
"541 612 OFFCURVE",
"439 690 OFFCURVE",
"304 690 CURVE SMOOTH",
"140 690 LINE",
"140 636 LINE",
"299 636 LINE SMOOTH",
"407 636 OFFCURVE",
"477 581 OFFCURVE",
"477 483 CURVE SMOOTH",
"477 385 OFFCURVE",
"407 330 OFFCURVE",
"299 330 CURVE SMOOTH",
"140 330 LINE",
"140 276 LINE"
);
},
{
closed = 1;
nodes = (
"498 0 LINE",
"571 0 LINE",
"380 290 LINE",
"313 290 LINE"
);
}
);
userData = {
com.schriftgestaltung.Glyphs.lastChange = "2021-03-11 21:44:19 +0000";
};
width = 626;
},
{
anchors = (
{
name = bottom;
position = "{330, 0}";
},
{
name = top;
position = "{318, 690}";
}
);
layerId = master06;
paths = (
{
closed = 1;
nodes = (
"196 0 LINE",
"196 690 LINE",
"100 690 LINE",
"100 0 LINE"
);
},
{
closed = 1;
nodes = (
"333 260 LINE SMOOTH",
"468 260 OFFCURVE",
"577 335 OFFCURVE",
"577 475 CURVE SMOOTH",
"577 614 OFFCURVE",
"468 690 OFFCURVE",
"333 690 CURVE SMOOTH",
"150 690 LINE",
"150 604 LINE",
"328 604 LINE SMOOTH",
"414 604 OFFCURVE",
"478 558 OFFCURVE",
"478 475 CURVE SMOOTH",
"478 391 OFFCURVE",
"413 343 OFFCURVE",
"328 343 CURVE SMOOTH",
"150 343 LINE",
"150 260 LINE"
);
},
{
closed = 1;
nodes = (
"481 0 LINE",
"595 0 LINE",
"406 290 LINE",
"301 290 LINE"
);
}
);
userData = {
com.schriftgestaltung.Glyphs.lastChange = "2021-03-11 21:49:28 +0000";
};
width = 650;
}
);
leftKerningGroup = H;
rightKerningGroup = R;
unicode = 0052;
},
{
color = 5;
glyphname = S;
layers = (
{
anchors = (
{
name = bottom;
position = "{309, 0}";
},
{
name = top;
position = "{330, 690}";
}
);
layerId = master01;
paths = (
{
closed = 1;
nodes = (
"120 20 OFFCURVE",
"215 -12 OFFCURVE",
"309 -12 CURVE",
"500 -12 OFFCURVE",
"593 85 OFFCURVE",
"593 195 CURVE",
"593 296 OFFCURVE",
"526 370 OFFCURVE",
"356 426 CURVE SMOOTH",
"262 457 OFFCURVE",
"231 482 OFFCURVE",
"231 513 CURVE",
"231 541 OFFCURVE",
"261 566 OFFCURVE",
"317 566 CURVE",
"386 566 OFFCURVE",
"453 539 OFFCURVE",
"508 500 CURVE",
"579 627 LINE",
"518 669 OFFCURVE",
"421 702 OFFCURVE",
"330 702 CURVE",
"159 702 OFFCURVE",
"70 610 OFFCURVE",
"70 500 CURVE",
"70 409 OFFCURVE",
"135 330 OFFCURVE",
"299 277 CURVE SMOOTH",
"404 243 OFFCURVE",
"428 212 OFFCURVE",
"428 184 CURVE",
"428 152 OFFCURVE",
"391 126 OFFCURVE",
"326 126 CURVE",
"253 126 OFFCURVE",
"170 159 OFFCURVE",
"111 207 CURVE",
"35 74 LINE"
);
}
);
userData = {
com.schriftgestaltung.Glyphs.lastChange = "2021-03-12 00:12:57 +0000";
};
width = 638;
},
{
anchors = (
{
name = bottom;
position = "{258, 0}";
},
{
name = top;
position = "{279, 690}";
}
);
layerId = master02;
paths = (
{
closed = 1;
nodes = (
"98 20 OFFCURVE",
"175 -12 OFFCURVE",
"260 -12 CURVE",
"413 -12 OFFCURVE",
"502 84 OFFCURVE",
"502 203 CURVE SMOOTH",
"502 292 OFFCURVE",
"444 366 OFFCURVE",
"302 423 CURVE SMOOTH",
"227 454.297 OFFCURVE",
"201 479.725 OFFCURVE",
"201 512 CURVE SMOOTH",
"201 545.067 OFFCURVE",
"229.227 574 OFFCURVE",
"282 574 CURVE SMOOTH",
"334.63 574 OFFCURVE",
"386.352 550.118 OFFCURVE",
"429 516 CURVE",
"490 635 LINE",
"440.209 673.286 OFFCURVE",
"360.152 702 OFFCURVE",
"284 702 CURVE SMOOTH",
"133.674 702 OFFCURVE",
"58 609 OFFCURVE",
"58 502 CURVE SMOOTH",
"58 411 OFFCURVE",
"117 349 OFFCURVE",
"251 291 CURVE SMOOTH",
"342 252 OFFCURVE",
"354 223 OFFCURVE",
"354 194 CURVE",
"354 152 OFFCURVE",
"324 119 OFFCURVE",
"264 119 CURVE SMOOTH",
"207 119 OFFCURVE",
"140.278 149 OFFCURVE",
"94 191 CURVE",
"28 72 LINE"
);
}
);
userData = {
com.schriftgestaltung.Glyphs.lastChange = "2021-03-11 21:09:29 +0000";
};
width = 538;
},
{
anchors = (
{
name = bottom;
position = "{238, 0}";
},
{
name = top;
position = "{241, 690}";
}
);
layerId = master03;
paths = (
{
closed = 1;
nodes = (
"94 18 OFFCURVE",
"162 -8 OFFCURVE",
"237 -8 CURVE",
"376 -8 OFFCURVE",
"433 72 OFFCURVE",
"433 171 CURVE",
"433 240 OFFCURVE",
"387 334 OFFCURVE",
"241 390 CURVE SMOOTH",
"116 438 OFFCURVE",
"117 496 OFFCURVE",
"117 532 CURVE",
"117 598 OFFCURVE",
"160 644 OFFCURVE",
"241 644 CURVE",
"293 644 OFFCURVE",
"328 625 OFFCURVE",
"373 589 CURVE",
"410 633 LINE",
"355 678 OFFCURVE",
"307 698 OFFCURVE",
"241 698 CURVE",
"127 698 OFFCURVE",
"58 625 OFFCURVE",
"58 529 CURVE",
"58 467 OFFCURVE",
"74 390 OFFCURVE",
"217 334 CURVE SMOOTH",
"354 280 OFFCURVE",
"372 207 OFFCURVE",
"372 166 CURVE",
"372 105 OFFCURVE",
"340 46 OFFCURVE",
"237 46 CURVE",
"170 46 OFFCURVE",
"124 72 OFFCURVE",
"71 120 CURVE",
"36 78 LINE"
);
}
);
userData = {
com.schriftgestaltung.Glyphs.lastChange = "2021-03-31 02:18:37 +0000";
};
width = 476;
},
{
anchors = (
{
name = bottom;
position = "{254, 0}";
},
{
name = top;
position = "{255, 690}";
}
);
layerId = master04;
paths = (
{
closed = 1;
nodes = (
"83 31 OFFCURVE",
"165 -10 OFFCURVE",
"245 -10 CURVE SMOOTH",
"372 -10 OFFCURVE",
"459 70 OFFCURVE",
"459 192 CURVE SMOOTH",
"459 273.79 OFFCURVE",
"404 340.718 OFFCURVE",
"270 399 CURVE SMOOTH",
"177.795 438.677 OFFCURVE",
"154 471 OFFCURVE",
"154 522 CURVE SMOOTH",
"154 572.408 OFFCURVE",
"194 617 OFFCURVE",
"263 617 CURVE SMOOTH",
"313 617 OFFCURVE",
"359 595 OFFCURVE",
"396 558 CURVE",
"444 631 LINE",
"396.268 675.425 OFFCURVE",
"333.62 700 OFFCURVE",
"266 700 CURVE SMOOTH",
"141.389 700 OFFCURVE",
"62 615.909 OFFCURVE",
"62 515 CURVE SMOOTH",
"62 428.719 OFFCURVE",
"106 370.284 OFFCURVE",
"241 313 CURVE SMOOTH",
"340 270.326 OFFCURVE",
"368 231.621 OFFCURVE",
"368 182 CURVE SMOOTH",
"368 123 OFFCURVE",
"324 74 OFFCURVE",
"252 74 CURVE SMOOTH",
"186.4 74 OFFCURVE",
"135 106 OFFCURVE",
"88 153 CURVE",
"36 81 LINE"
);
}
);
userData = {
com.schriftgestaltung.Glyphs.lastChange = "2021-03-11 21:03:33 +0000";
};
width = 502;
},
{
anchors = (
{
name = bottom;
position = "{305, 0}";
},
{
name = top;
position = "{319, 690}";
}
);
layerId = master05;
paths = (
{
closed = 1;
nodes = (
"121 26 OFFCURVE",
"202 -8 OFFCURVE",
"305 -8 CURVE",
"452 -8 OFFCURVE",
"545 68 OFFCURVE",
"545 177 CURVE",
"545 266 OFFCURVE",
"480 336 OFFCURVE",
"319 387 CURVE SMOOTH",
"191 428 OFFCURVE",
"155 466 OFFCURVE",
"155 522 CURVE",
"155 588 OFFCURVE",
"217 644 OFFCURVE",
"319 644 CURVE",
"392 644 OFFCURVE",
"443 616 OFFCURVE",
"483 576 CURVE",
"521 622 LINE",
"470 670 OFFCURVE",
"406 698 OFFCURVE",
"319 698 CURVE",
"184 698 OFFCURVE",
"96 615 OFFCURVE",
"96 519 CURVE",
"96 437 OFFCURVE",
"149 378 OFFCURVE",
"295 331 CURVE SMOOTH",
"447 282 OFFCURVE",
"484 233 OFFCURVE",
"484 172 CURVE",
"484 101 OFFCURVE",
"421 46 OFFCURVE",
"305 46 CURVE",
"216 46 OFFCURVE",
"151 78 OFFCURVE",
"100 131 CURVE",
"60 88 LINE"
);
}
);
userData = {
com.schriftgestaltung.Glyphs.lastChange = "2021-03-11 21:44:58 +0000";
};
width = 615;
},
{
anchors = (
{
name = bottom;
position = "{320, 0}";
},
{
name = top;
position = "{314, 690}";
}
);
layerId = master06;
paths = (
{
closed = 1;
nodes = (
"112 33 OFFCURVE",
"220 -10 OFFCURVE",
"320 -10 CURVE SMOOTH",
"480 -10 OFFCURVE",
"569 76 OFFCURVE",
"569 183 CURVE SMOOTH",
"569 271 OFFCURVE",
"507 346 OFFCURVE",
"330 403 CURVE SMOOTH",
"206 443 OFFCURVE",
"173 477 OFFCURVE",
"173 522 CURVE SMOOTH",
"173 572 OFFCURVE",
"218 617 OFFCURVE",
"307 617 CURVE SMOOTH",
"378 617 OFFCURVE",
"440 589 OFFCURVE",
"490 541 CURVE",
"545 613 LINE",
"481 668 OFFCURVE",
"393 700 OFFCURVE",
"314 700 CURVE SMOOTH",
"175 700 OFFCURVE",
"80 615 OFFCURVE",
"80 512 CURVE SMOOTH",
"80 426 OFFCURVE",
"131 364 OFFCURVE",
"302 307 CURVE SMOOTH",
"433 263 OFFCURVE",
"470 224 OFFCURVE",
"470 171 CURVE SMOOTH",
"470 120 OFFCURVE",
"421 77 OFFCURVE",
"328 77 CURVE SMOOTH",
"238 77 OFFCURVE",
"164 108 OFFCURVE",
"106 163 CURVE",
"50 94 LINE"
);
}
);
userData = {
com.schriftgestaltung.Glyphs.lastChange = "2021-03-11 21:49:28 +0000";
};
width = 624;
}
);
leftKerningGroup = S;
rightKerningGroup = S;
unicode = 0053;
},
{
color = 5;
glyphname = Schwa;
layers = (
{
layerId = master01;
paths = (
{
closed = 1;
nodes = (
"45 122 OFFCURVE",
"188 -12 OFFCURVE",
"362 -12 CURVE SMOOTH",
"536 -12 OFFCURVE",
"679 120 OFFCURVE",
"679 345 CURVE SMOOTH",
"679 570 OFFCURVE",
"530 702 OFFCURVE",
"340 702 CURVE SMOOTH",
"250 702 OFFCURVE",
"150 670 OFFCURVE",
"90 635 CURVE",
"145 500 LINE",
"185 525 OFFCURVE",
"260 552 OFFCURVE",
"320 552 CURVE SMOOTH",
"430 552 OFFCURVE",
"516 490 OFFCURVE",
"516 345 CURVE SMOOTH",
"516 200 OFFCURVE",
"450 131 OFFCURVE",
"362 131 CURVE SMOOTH",
"274 131 OFFCURVE",
"208 201 OFFCURVE",
"208 345 CURVE",
"170 280 LINE",
"556 280 LINE",
"556 400 LINE",
"50 400 LINE",
"47 387 OFFCURVE",
"45 360 OFFCURVE",
"45 345 CURVE SMOOTH"
);
}
);
userData = {
com.schriftgestaltung.Glyphs.lastChange = "2021-03-11 23:13:14 +0000";
};
width = 724;
},
{
layerId = master02;
paths = (
{
closed = 1;
nodes = (
"36 122 OFFCURVE",
"134 -10 OFFCURVE",
"299 -10 CURVE SMOOTH",
"463.793 -10 OFFCURVE",
"572 122 OFFCURVE",
"572 353 CURVE SMOOTH",
"572 565 OFFCURVE",
"463 702 OFFCURVE",
"297 702 CURVE SMOOTH",
"188 702 OFFCURVE",
"126 669.045 OFFCURVE",
"63 633 CURVE",
"120 512 LINE",
"160 539.02 OFFCURVE",
"215 565 OFFCURVE",
"273 565 CURVE SMOOTH",
"372 565 OFFCURVE",
"433 502 OFFCURVE",
"433 340 CURVE SMOOTH",
"433 167.417 OFFCURVE",
"373 122 OFFCURVE",
"306 122 CURVE SMOOTH",
"231 122 OFFCURVE",
"175 166.438 OFFCURVE",
"175 325 CURVE",
"148 283 LINE",
"449 283 LINE",
"449 405 LINE",
"42 405 LINE",
"40 392 OFFCURVE",
"36 367 OFFCURVE",
"36 318 CURVE SMOOTH"
);
}
);
userData = {
com.schriftgestaltung.Glyphs.lastChange = "2021-03-11 21:09:29 +0000";
};
width = 610;
},
{
layerId = master03;
paths = (
{
closed = 1;
nodes = (
"45 132 OFFCURVE",
"118 -10 OFFCURVE",
"279 -10 CURVE SMOOTH",
"410 -10 OFFCURVE",
"501 132 OFFCURVE",
"501 345 CURVE SMOOTH",
"501 578 OFFCURVE",
"400 700 OFFCURVE",
"259 700 CURVE SMOOTH",
"186 700 OFFCURVE",
"139 679 OFFCURVE",
"77 636 CURVE",
"107 587 LINE",
"158 622 OFFCURVE",
"197 640 OFFCURVE",
"255 640 CURVE SMOOTH",
"373 640 OFFCURVE",
"437 541 OFFCURVE",
"437 345 CURVE SMOOTH",
"437 169 OFFCURVE",
"382 50 OFFCURVE",
"279 50 CURVE SMOOTH",
"145 50 OFFCURVE",
"106 169 OFFCURVE",
"106 334 CURVE",
"91 300 LINE",
"471 300 LINE",
"471 360 LINE",
"47 360 LINE",
"46 350 OFFCURVE",
"45 335 OFFCURVE",
"45 325 CURVE SMOOTH"
);
}
);
userData = {
com.schriftgestaltung.Glyphs.lastChange = "2021-03-11 20:56:43 +0000";
};
width = 546;
},
{
layerId = master04;
paths = (
{
closed = 1;
nodes = (
"45 102 OFFCURVE",
"145 -10 OFFCURVE",
"284 -10 CURVE SMOOTH",
"416 -10 OFFCURVE",
"524 102.631 OFFCURVE",
"524 347 CURVE SMOOTH",
"524 578.687 OFFCURVE",
"415 700 OFFCURVE",
"268 700 CURVE SMOOTH",
"194 700 OFFCURVE",
"128 672.027 OFFCURVE",
"79 631 CURVE",
"118 556 LINE",
"153.986 587.302 OFFCURVE",
"209.425 614 OFFCURVE",
"260 614 CURVE SMOOTH",
"363.593 614 OFFCURVE",
"433 524.669 OFFCURVE",
"433 347 CURVE SMOOTH",
"433 140.476 OFFCURVE",
"369 76 OFFCURVE",
"284 76 CURVE SMOOTH",
"199 76 OFFCURVE",
"133 149 OFFCURVE",
"133 334 CURVE",
"116 284 LINE",
"452 284 LINE",
"452 368 LINE",
"47 368 LINE",
"46 359 OFFCURVE",
"45 345 OFFCURVE",
"45 324 CURVE"
);
}
);
userData = {
com.schriftgestaltung.Glyphs.lastChange = "2021-03-11 21:03:33 +0000";
};
width = 569;
},
{
layerId = master05;
paths = (
{
closed = 1;
nodes = (
"70 112 OFFCURVE",
"203 -10 OFFCURVE",
"364 -10 CURVE SMOOTH",
"525 -10 OFFCURVE",
"656 112 OFFCURVE",
"656 345 CURVE SMOOTH",
"656 578 OFFCURVE",
"525 700 OFFCURVE",
"344 700 CURVE SMOOTH",
"251 700 OFFCURVE",
"174 670 OFFCURVE",
"112 626 CURVE",
"143 574 LINE",
"194 610 OFFCURVE",
"262 640 OFFCURVE",
"340 640 CURVE SMOOTH",
"498 640 OFFCURVE",
"592 541 OFFCURVE",
"592 345 CURVE SMOOTH",
"592 149 OFFCURVE",
"497 50 OFFCURVE",
"364 50 CURVE SMOOTH",
"230 50 OFFCURVE",
"131 149 OFFCURVE",
"131 334 CURVE",
"116 300 LINE",
"626 300 LINE",
"626 360 LINE",
"72 360 LINE",
"71 350 OFFCURVE",
"70 335 OFFCURVE",
"70 325 CURVE SMOOTH"
);
}
);
userData = {
com.schriftgestaltung.Glyphs.lastChange = "2021-03-11 21:44:58 +0000";
};
width = 726;
},
{
layerId = master06;
paths = (
{
closed = 1;
nodes = (
"60 112 OFFCURVE",
"192 -10 OFFCURVE",
"353 -10 CURVE SMOOTH",
"514 -10 OFFCURVE",
"646 112 OFFCURVE",
"646 345 CURVE SMOOTH",
"646 578 OFFCURVE",
"514 700 OFFCURVE",
"333 700 CURVE SMOOTH",
"240 700 OFFCURVE",
"164 670 OFFCURVE",
"102 626 CURVE",
"148 548 LINE",
"196 582 OFFCURVE",
"266 611 OFFCURVE",
"333 611 CURVE SMOOTH",
"464 611 OFFCURVE",
"547 522 OFFCURVE",
"547 345 CURVE SMOOTH",
"547 168 OFFCURVE",
"464 79 OFFCURVE",
"353 79 CURVE SMOOTH",
"242 79 OFFCURVE",
"159 168 OFFCURVE",
"159 335 CURVE",
"136 284 LINE",
"568 284 LINE",
"568 370 LINE",
"62 370 LINE",
"61 360 OFFCURVE",
"60 346 OFFCURVE",
"60 335 CURVE SMOOTH"
);
}
);
userData = {
com.schriftgestaltung.Glyphs.lastChange = "2021-03-11 21:49:28 +0000";
};
width = 706;
}
);
leftKerningGroup = O;
rightKerningGroup = O;
unicode = 018F;
},
{
color = 5;
glyphname = T;
layers = (
{
anchors = (
{
name = bottom;
position = "{293, 0}";
},
{
name = top;
position = "{293, 690}";
}
);
layerId = master01;
paths = (
{
closed = 1;
nodes = (
"561 550 LINE",
"561 690 LINE",
"25 690 LINE",
"25 550 LINE"
);
},
{
closed = 1;
nodes = (
"373 0 LINE",
"373 690 LINE",
"213 690 LINE",
"213 0 LINE"
);
}
);
userData = {
com.schriftgestaltung.Glyphs.lastChange = "2021-03-11 23:13:14 +0000";
};
width = 586;
},
{
anchors = (
{
name = bottom;
position = "{247, 0}";
},
{
name = top;
position = "{247, 690}";
}
);
layerId = master02;
paths = (
{
closed = 1;
nodes = (
"473 558 LINE",
"473 690 LINE",
"20 690 LINE",
"20 558 LINE"
);
},
{
closed = 1;
nodes = (
"318 0 LINE",
"318 690 LINE",
"176 690 LINE",
"176 0 LINE"
);
}
);
userData = {
com.schriftgestaltung.Glyphs.lastChange = "2021-03-11 21:09:29 +0000";
};
width = 493;
},
{
anchors = (
{
name = bottom;
position = "{195, 0}";
},
{
name = top;
position = "{193, 690}";
}
);
layerId = master03;
paths = (
{
closed = 1;
nodes = (
"363 636 LINE",
"363 690 LINE",
"23 690 LINE",
"23 636 LINE"
);
},
{
closed = 1;
nodes = (
"226 0 LINE",
"226 690 LINE",
"164 690 LINE",
"164 0 LINE"
);
}
);
userData = {
com.schriftgestaltung.Glyphs.lastChange = "2021-03-31 02:27:23 +0000";
};
width = 386;
},
{
anchors = (
{
name = bottom;
position = "{232, 0}";
},
{
name = top;
position = "{232, 690}";
}
);
layerId = master04;
paths = (
{
closed = 1;
nodes = (
"440 607 LINE",
"440 690 LINE",
"23 690 LINE",
"23 607 LINE"
);
},
{
closed = 1;
nodes = (
"277 0 LINE",
"277 690 LINE",
"187 690 LINE",
"187 0 LINE"
);
}
);
userData = {
com.schriftgestaltung.Glyphs.lastChange = "2021-03-11 21:03:33 +0000";
};
width = 463;
},
{
anchors = (
{
name = bottom;
position = "{282, 0}";
},
{
name = top;
position = "{282, 690}";
}
);
layerId = master05;
paths = (
{
closed = 1;
nodes = (
"529 636 LINE",
"529 690 LINE",
"35 690 LINE",
"35 636 LINE"
);
},
{
closed = 1;
nodes = (
"313 0 LINE",
"313 690 LINE",
"251 690 LINE",
"251 0 LINE"
);
}
);
userData = {
com.schriftgestaltung.Glyphs.lastChange = "2021-03-11 21:44:58 +0000";
};
width = 564;
},
{
anchors = (
{
name = bottom;
position = "{288, 0}";
},
{
name = top;
position = "{288, 690}";
}
);
layerId = master06;
paths = (
{
closed = 1;
nodes = (
"546 604 LINE",
"546 690 LINE",
"30 690 LINE",
"30 604 LINE"
);
},
{
closed = 1;
nodes = (
"336 0 LINE",
"336 690 LINE",
"240 690 LINE",
"240 0 LINE"
);
}
);
userData = {
com.schriftgestaltung.Glyphs.lastChange = "2021-03-11 21:49:28 +0000";
};
width = 576;
}
);
leftKerningGroup = T;
rightKerningGroup = T;
unicode = 0054;
},
{
color = 5;
glyphname = Tbar;
layers = (
{
layerId = master01;
paths = (
{
closed = 1;
nodes = (
"566 550 LINE",
"566 690 LINE",
"30 690 LINE",
"30 550 LINE"
);
},
{
closed = 1;
nodes = (
"378 0 LINE",
"378 690 LINE",
"218 690 LINE",
"218 0 LINE"
);
},
{
closed = 1;
nodes = (
"518 246 LINE",
"518 380 LINE",
"78 380 LINE",
"78 246 LINE"
);
}
);
userData = {
com.schriftgestaltung.Glyphs.lastChange = "2021-03-11 23:13:14 +0000";
};
width = 596;
},
{
layerId = master02;
paths = (
{
closed = 1;
nodes = (
"477 558 LINE",
"477 690 LINE",
"25 690 LINE",
"25 558 LINE"
);
},
{
closed = 1;
nodes = (
"322 0 LINE",
"322 690 LINE",
"180 690 LINE",
"180 0 LINE"
);
},
{
closed = 1;
nodes = (
"438 253 LINE",
"438 379 LINE",
"63 379 LINE",
"63 253 LINE"
);
}
);
userData = {
com.schriftgestaltung.Glyphs.lastChange = "2021-03-11 21:09:29 +0000";
};
width = 502;
},
{
layerId = master03;
paths = (
{
closed = 1;
nodes = (
"424 636 LINE",
"424 690 LINE",
"30 690 LINE",
"30 636 LINE"
);
},
{
closed = 1;
nodes = (
"258 0 LINE",
"258 690 LINE",
"196 690 LINE",
"196 0 LINE"
);
},
{
closed = 1;
nodes = (
"358 306 LINE",
"358 360 LINE",
"96 360 LINE",
"96 306 LINE"
);
}
);
userData = {
com.schriftgestaltung.Glyphs.lastChange = "2021-03-11 20:56:43 +0000";
};
width = 454;
},
{
layerId = master04;
paths = (
{
closed = 1;
nodes = (
"444 607 LINE",
"444 690 LINE",
"27 690 LINE",
"27 607 LINE"
);
},
{
closed = 1;
nodes = (
"281 0 LINE",
"281 690 LINE",
"191 690 LINE",
"191 0 LINE"
);
},
{
closed = 1;
nodes = (
"399 292 LINE",
"399 369 LINE",
"73 369 LINE",
"73 292 LINE"
);
}
);
userData = {
com.schriftgestaltung.Glyphs.lastChange = "2021-03-11 21:03:33 +0000";
};
width = 471;
},
{
layerId = master05;
paths = (
{
closed = 1;
nodes = (
"534 636 LINE",
"534 690 LINE",
"40 690 LINE",
"40 636 LINE"
);
},
{
closed = 1;
nodes = (
"318 0 LINE",
"318 690 LINE",
"256 690 LINE",
"256 0 LINE"
);
},
{
closed = 1;
nodes = (
"468 306 LINE",
"468 360 LINE",
"106 360 LINE",
"106 306 LINE"
);
}
);
userData = {
com.schriftgestaltung.Glyphs.lastChange = "2021-03-11 21:44:58 +0000";
};
width = 574;
},
{
layerId = master06;
paths = (
{
closed = 1;
nodes = (
"551 604 LINE",
"551 690 LINE",
"35 690 LINE",
"35 604 LINE"
);
},
{
closed = 1;
nodes = (
"341 0 LINE",
"341 690 LINE",
"245 690 LINE",
"245 0 LINE"
);
},
{
closed = 1;
nodes = (
"491 290 LINE",
"491 370 LINE",
"95 370 LINE",
"95 290 LINE"
);
}
);
userData = {
com.schriftgestaltung.Glyphs.lastChange = "2021-03-11 21:49:28 +0000";
};
width = 586;
}
);
leftKerningGroup = T;
rightKerningGroup = T;
unicode = 0166;
},
{
color = 5;
glyphname = U;
layers = (
{
anchors = (
{
name = bottom;
position = "{362, 0}";
},
{
name = horn;
position = "{633, 690}";
},
{
name = ogonek;
position = "{424, 0}";
},
{
name = top;
position = "{364, 690}";
}
);
layerId = master01;
paths = (
{
closed = 1;
nodes = (
"75 91 OFFCURVE",
"201 -12 OFFCURVE",
"362 -12 CURVE SMOOTH",
"523 -12 OFFCURVE",
"649 91 OFFCURVE",
"649 275 CURVE SMOOTH",
"649 690 LINE",
"493 690 LINE",
"493 295 LINE SMOOTH",
"493 181 OFFCURVE",
"438 131 OFFCURVE",
"364 131 CURVE SMOOTH",
"290 131 OFFCURVE",
"235 181 OFFCURVE",
"235 295 CURVE SMOOTH",
"235 690 LINE",
"75 690 LINE",
"75 275 LINE SMOOTH"
);
}
);
userData = {
com.schriftgestaltung.Glyphs.lastChange = "2021-03-17 20:51:46 +0000";
};
width = 724;
},
{
anchors = (
{
name = bottom;
position = "{305, 0}";
},
{
name = horn;
position = "{531, 690}";
},
{
name = ogonek;
position = "{367, 0}";
},
{
name = top;
position = "{307, 690}";
}
);
layerId = master02;
paths = (
{
closed = 1;
nodes = (
"61 75 OFFCURVE",
"158 -12 OFFCURVE",
"305 -12 CURVE SMOOTH",
"452 -12 OFFCURVE",
"549 75 OFFCURVE",
"549 271 CURVE SMOOTH",
"549 690 LINE",
"411 690 LINE",
"411 290 LINE SMOOTH",
"411 165 OFFCURVE",
"376 123 OFFCURVE",
"307 123 CURVE SMOOTH",
"238 123 OFFCURVE",
"203 165 OFFCURVE",
"203 290 CURVE SMOOTH",
"203 690 LINE",
"61 690 LINE",
"61 271 LINE SMOOTH"
);
}
);
userData = {
com.schriftgestaltung.Glyphs.lastChange = "2021-03-17 20:42:44 +0000";
};
width = 610;
},
{
anchors = (
{
name = bottom;
position = "{245, 0}";
},
{
name = horn;
position = "{409, 690}";
},
{
name = ogonek;
position = "{252, 0}";
},
{
name = top;
position = "{247, 690}";
}
);
layerId = master03;
paths = (
{
closed = 1;
nodes = (
"69 86 OFFCURVE",
"102 -8 OFFCURVE",
"245 -8 CURVE SMOOTH",
"389 -8 OFFCURVE",
"421 86 OFFCURVE",
"421 203 CURVE SMOOTH",
"421 690 LINE",
"359 690 LINE",
"359 208 LINE SMOOTH",
"359 124 OFFCURVE",
"339 49 OFFCURVE",
"245 49 CURVE SMOOTH",
"161 49 OFFCURVE",
"131 123 OFFCURVE",
"131 208 CURVE SMOOTH",
"131 690 LINE",
"69 690 LINE",
"69 203 LINE SMOOTH"
);
}
);
userData = {
com.schriftgestaltung.Glyphs.lastChange = "2021-03-31 02:28:51 +0000";
};
width = 490;
},
{
anchors = (
{
name = bottom;
position = "{284, 0}";
},
{
name = horn;
position = "{490, 690}";
},
{
name = ogonek;
position = "{276, 0}";
},
{
name = top;
position = "{285, 690}";
}
);
layerId = master04;
paths = (
{
closed = 1;
nodes = (
"69 73 OFFCURVE",
"153 -10 OFFCURVE",
"285 -10 CURVE SMOOTH",
"416 -10 OFFCURVE",
"500 73 OFFCURVE",
"500 249 CURVE SMOOTH",
"500 690 LINE",
"412 690 LINE",
"412 253 LINE SMOOTH",
"412 120 OFFCURVE",
"361 76 OFFCURVE",
"286 76 CURVE SMOOTH",
"210 76 OFFCURVE",
"159 120 OFFCURVE",
"159 253 CURVE SMOOTH",
"159 690 LINE",
"69 690 LINE",
"69 249 LINE SMOOTH"
);
}
);
userData = {
com.schriftgestaltung.Glyphs.lastChange = "2021-03-17 20:30:06 +0000";
};
width = 569;
},
{
anchors = (
{
name = bottom;
position = "{346, 0}";
},
{
name = horn;
position = "{568, 690}";
},
{
name = ogonek;
position = "{380, 0}";
},
{
name = top;
position = "{346, 690}";
}
);
layerId = master05;
paths = (
{
closed = 1;
nodes = (
"100 78 OFFCURVE",
"207 -8 OFFCURVE",
"346 -8 CURVE SMOOTH",
"485 -8 OFFCURVE",
"592 78 OFFCURVE",
"592 245 CURVE SMOOTH",
"592 690 LINE",
"530 690 LINE",
"530 250 LINE SMOOTH",
"530 116 OFFCURVE",
"451 49 OFFCURVE",
"346 49 CURVE SMOOTH",
"241 49 OFFCURVE",
"162 116 OFFCURVE",
"162 250 CURVE SMOOTH",
"162 690 LINE",
"100 690 LINE",
"100 245 LINE SMOOTH"
);
}
);
userData = {
com.schriftgestaltung.Glyphs.lastChange = "2021-03-17 20:43:58 +0000";
};
width = 692;
},
{
anchors = (
{
name = bottom;
position = "{353, 0}";
},
{
name = horn;
position = "{608, 690}";
},
{
name = ogonek;
position = "{404, 0}";
},
{
name = top;
position = "{353, 690}";
}
);
layerId = master06;
paths = (
{
closed = 1;
nodes = (
"90 83 OFFCURVE",
"204 -10 OFFCURVE",
"353 -10 CURVE SMOOTH",
"502 -10 OFFCURVE",
"616 83 OFFCURVE",
"616 250 CURVE SMOOTH",
"616 690 LINE",
"522 690 LINE",
"522 260 LINE SMOOTH",
"522 143 OFFCURVE",
"456 79 OFFCURVE",
"354 79 CURVE SMOOTH",
"252 79 OFFCURVE",
"186 143 OFFCURVE",
"186 260 CURVE SMOOTH",
"186 690 LINE",
"90 690 LINE",
"90 250 LINE SMOOTH"
);
}
);
userData = {
com.schriftgestaltung.Glyphs.lastChange = "2021-03-17 21:17:07 +0000";
};
width = 706;
}
);
leftKerningGroup = U;
rightKerningGroup = U;
unicode = 0055;
},
{
color = 5;
glyphname = V;
layers = (
{
layerId = master01;
paths = (
{
closed = 1;
nodes = (
"251 0 LINE",
"343 0 LINE",
"347 156 LINE",
"170 690 LINE",
"0 690 LINE"
);
},
{
closed = 1;
nodes = (
"321 0 LINE",
"405 0 LINE",
"656 690 LINE",
"490 690 LINE",
"313 156 LINE"
);
}
);
userData = {
com.schriftgestaltung.Glyphs.lastChange = "2021-03-11 23:13:14 +0000";
};
width = 656;
},
{
layerId = master02;
paths = (
{
closed = 1;
nodes = (
"198 0 LINE",
"289 0 LINE",
"293 136 LINE",
"148 690 LINE",
"-2 690 LINE"
);
},
{
closed = 1;
nodes = (
"272 0 LINE",
"356 0 LINE",
"556 690 LINE",
"408 690 LINE",
"264 136 LINE"
);
}
);
userData = {
com.schriftgestaltung.Glyphs.lastChange = "2021-03-11 21:10:45 +0000";
};
width = 553;
},
{
layerId = master03;
paths = (
{
closed = 1;
nodes = (
"217 0 LINE",
"261 0 LINE",
"259 31 LINE",
"77 690 LINE",
"12 690 LINE"
);
},
{
closed = 1;
nodes = (
"229 0 LINE",
"269 0 LINE",
"474 690 LINE",
"412 690 LINE",
"227 31 LINE"
);
}
);
userData = {
com.schriftgestaltung.Glyphs.lastChange = "2021-03-31 02:31:14 +0000";
};
width = 485;
},
{
layerId = master04;
paths = (
{
closed = 1;
nodes = (
"210 0 LINE",
"271 0 LINE",
"272 86 LINE",
"104 690 LINE",
"12 690 LINE"
);
},
{
closed = 1;
nodes = (
"247 0 LINE",
"303 0 LINE",
"502 690 LINE",
"412 690 LINE",
"245 86 LINE"
);
}
);
userData = {
com.schriftgestaltung.Glyphs.lastChange = "2021-03-11 21:04:01 +0000";
};
width = 513;
},
{
layerId = master05;
paths = (
{
closed = 1;
nodes = (
"265 0 LINE",
"309 0 LINE",
"307 45 LINE",
"85 690 LINE",
"20 690 LINE"
);
},
{
closed = 1;
nodes = (
"277 0 LINE",
"317 0 LINE",
"562 690 LINE",
"500 690 LINE",
"275 45 LINE"
);
}
);
userData = {
com.schriftgestaltung.Glyphs.lastChange = "2021-03-11 21:44:58 +0000";
};
width = 582;
},
{
layerId = master06;
paths = (
{
closed = 1;
nodes = (
"276 0 LINE",
"337 0 LINE",
"337 90 LINE",
"124 690 LINE",
"20 690 LINE"
);
},
{
closed = 1;
nodes = (
"303 0 LINE",
"360 0 LINE",
"616 690 LINE",
"516 690 LINE",
"303 90 LINE"
);
}
);
userData = {
com.schriftgestaltung.Glyphs.lastChange = "2021-03-11 23:04:40 +0000";
};
width = 636;
}
);
leftKerningGroup = V;
rightKerningGroup = V;
unicode = 0056;
},
{
color = 5;
glyphname = W;
layers = (
{
anchors = (
{
name = top;
position = "{478, 690}";
}
);
layerId = master01;
paths = (
{
closed = 1;
nodes = (
"205 0 LINE",
"300 0 LINE",
"300 167 LINE",
"168 690 LINE",
"0 690 LINE"
);
},
{
closed = 1;
nodes = (
"267 0 LINE",
"356 0 LINE",
"513 548 LINE",
"513 690 LINE",
"414 690 LINE",
"267 167 LINE"
);
},
{
closed = 1;
nodes = (
"598 0 LINE",
"692 0 LINE",
"692 167 LINE",
"546 690 LINE",
"443 690 LINE",
"443 548 LINE"
);
},
{
closed = 1;
nodes = (
"660 0 LINE",
"750 0 LINE",
"956 690 LINE",
"792 690 LINE",
"660 167 LINE"
);
}
);
userData = {
com.schriftgestaltung.Glyphs.lastChange = "2021-03-11 23:13:14 +0000";
};
width = 956;
},
{
anchors = (
{
name = top;
position = "{401, 690}";
}
);
layerId = master02;
paths = (
{
closed = 1;
nodes = (
"153 0 LINE",
"253 0 LINE",
"252 136 LINE",
"146 690 LINE",
"3 690 LINE"
);
},
{
closed = 1;
nodes = (
"219 0 LINE",
"304 0 LINE",
"433 580 LINE",
"433 690 LINE",
"333 690 LINE",
"220 136 LINE"
);
},
{
closed = 1;
nodes = (
"497 0 LINE",
"585 0 LINE",
"585 136 LINE",
"471 690 LINE",
"369 690 LINE",
"369 580 LINE"
);
},
{
closed = 1;
nodes = (
"552 0 LINE",
"648 0 LINE",
"800 690 LINE",
"660 690 LINE",
"553 136 LINE"
);
}
);
userData = {
com.schriftgestaltung.Glyphs.lastChange = "2021-03-11 21:10:45 +0000";
};
width = 802;
},
{
anchors = (
{
name = top;
position = "{350, 690}";
}
);
layerId = master03;
paths = (
{
closed = 1;
nodes = (
"172 0 LINE",
"216 0 LINE",
"214 32 LINE",
"77 690 LINE",
"12 690 LINE"
);
},
{
closed = 1;
nodes = (
"184 0 LINE",
"224 0 LINE",
"361 614 LINE",
"361 690 LINE",
"326 690 LINE",
"182 32 LINE"
);
},
{
closed = 1;
nodes = (
"477 0 LINE",
"521 0 LINE",
"519 32 LINE",
"376 690 LINE",
"338 690 LINE",
"338 614 LINE"
);
},
{
closed = 1;
nodes = (
"489 0 LINE",
"529 0 LINE",
"689 690 LINE",
"627 690 LINE",
"487 32 LINE"
);
}
);
userData = {
com.schriftgestaltung.Glyphs.lastChange = "2021-03-31 02:57:37 +0000";
};
width = 701;
},
{
anchors = (
{
name = top;
position = "{384, 690}";
}
);
layerId = master04;
paths = (
{
closed = 1;
nodes = (
"178 0 LINE",
"236 0 LINE",
"238 92 LINE",
"103 690 LINE",
"12 690 LINE"
);
},
{
closed = 1;
nodes = (
"216 0 LINE",
"263 0 LINE",
"400 563 LINE",
"400 690 LINE",
"346 690 LINE",
"211 92 LINE"
);
},
{
closed = 1;
nodes = (
"505 0 LINE",
"558 0 LINE",
"560 92 LINE",
"426 690 LINE",
"369 690 LINE",
"369 563 LINE"
);
},
{
closed = 1;
nodes = (
"538 0 LINE",
"590 0 LINE",
"756 690 LINE",
"668 690 LINE",
"533 92 LINE"
);
}
);
userData = {
com.schriftgestaltung.Glyphs.lastChange = "2021-03-11 21:04:01 +0000";
};
width = 768;
},
{
anchors = (
{
name = top;
position = "{438, 690}";
}
);
layerId = master05;
paths = (
{
closed = 1;
nodes = (
"220 0 LINE",
"264 0 LINE",
"262 51 LINE",
"85 690 LINE",
"20 690 LINE"
);
},
{
closed = 1;
nodes = (
"232 0 LINE",
"272 0 LINE",
"450 614 LINE",
"450 690 LINE",
"415 690 LINE",
"230 51 LINE"
);
},
{
closed = 1;
nodes = (
"605 0 LINE",
"649 0 LINE",
"647 51 LINE",
"465 690 LINE",
"427 690 LINE",
"427 614 LINE"
);
},
{
closed = 1;
nodes = (
"617 0 LINE",
"657 0 LINE",
"857 690 LINE",
"795 690 LINE",
"615 51 LINE"
);
}
);
userData = {
com.schriftgestaltung.Glyphs.lastChange = "2021-03-11 21:44:58 +0000";
};
width = 877;
},
{
anchors = (
{
name = top;
position = "{480, 690}";
}
);
layerId = master06;
paths = (
{
closed = 1;
nodes = (
"238 0 LINE",
"293 0 LINE",
"297 96 LINE",
"122 690 LINE",
"20 690 LINE"
);
},
{
closed = 1;
nodes = (
"271 0 LINE",
"318 0 LINE",
"494 562 LINE",
"494 690 LINE",
"442 690 LINE",
"263 96 LINE"
);
},
{
closed = 1;
nodes = (
"644 0 LINE",
"699 0 LINE",
"703 96 LINE",
"523 690 LINE",
"468 690 LINE",
"468 562 LINE"
);
},
{
closed = 1;
nodes = (
"677 0 LINE",
"724 0 LINE",
"941 690 LINE",
"843 690 LINE",
"669 96 LINE"
);
}
);
userData = {
com.schriftgestaltung.Glyphs.lastChange = "2021-03-11 23:04:40 +0000";
};
width = 961;
}
);
leftKerningGroup = V;
rightKerningGroup = V;
unicode = 0057;
},
{
color = 5;
glyphname = X;
layers = (
{
layerId = master01;
paths = (
{
closed = 1;
nodes = (
"184 0 LINE",
"324 250 LINE",
"381 323 LINE",
"609 690 LINE",
"430 690 LINE",
"301 458 LINE",
"244 384 LINE",
"5 0 LINE"
);
},
{
closed = 1;
nodes = (
"269 282 LINE",
"435 0 LINE",
"619 0 LINE",
"357 421 LINE",
"199 690 LINE",
"15 690 LINE"
);
}
);
userData = {
com.schriftgestaltung.Glyphs.lastChange = "2021-03-11 23:22:50 +0000";
};
width = 624;
},
{
layerId = master02;
paths = (
{
closed = 1;
nodes = (
"159 0 LINE",
"284 263 LINE",
"330 326 LINE",
"506 690 LINE",
"352 690 LINE",
"250 453 LINE",
"198 387 LINE",
"7 0 LINE"
);
},
{
closed = 1;
nodes = (
"216 294 LINE",
"357 0 LINE",
"522 0 LINE",
"299 424 LINE",
"171 690 LINE",
"7 690 LINE"
);
}
);
userData = {
com.schriftgestaltung.Glyphs.lastChange = "2021-03-11 21:10:45 +0000";
};
width = 522;
},
{
layerId = master03;
paths = (
{
closed = 1;
nodes = (
"88 0 LINE",
"237 312 LINE",
"256 338 LINE",
"433 690 LINE",
"363 690 LINE",
"224 392 LINE",
"205 367 LINE",
"18 0 LINE"
);
},
{
closed = 1;
nodes = (
"212 325 LINE",
"370 0 LINE",
"443 0 LINE",
"250 380 LINE",
"101 690 LINE",
"28 690 LINE"
);
}
);
userData = {
com.schriftgestaltung.Glyphs.lastChange = "2021-03-31 02:58:07 +0000";
};
width = 460;
},
{
layerId = master04;
paths = (
{
closed = 1;
nodes = (
"118 0 LINE",
"266 297 LINE",
"296 331 LINE",
"483 690 LINE",
"385 690 LINE",
"246 408 LINE",
"215 373 LINE",
"18 0 LINE"
);
},
{
closed = 1;
nodes = (
"232 310 LINE",
"392 0 LINE",
"494 0 LINE",
"282 395 LINE",
"128 690 LINE",
"28 690 LINE"
);
}
);
userData = {
com.schriftgestaltung.Glyphs.lastChange = "2021-03-11 21:04:01 +0000";
};
width = 511;
},
{
layerId = master05;
paths = (
{
closed = 1;
nodes = (
"115 0 LINE",
"314 312 LINE",
"333 338 LINE",
"560 690 LINE",
"490 690 LINE",
"301 392 LINE",
"282 367 LINE",
"45 0 LINE"
);
},
{
closed = 1;
nodes = (
"289 325 LINE",
"497 0 LINE",
"570 0 LINE",
"327 380 LINE",
"128 690 LINE",
"55 690 LINE"
);
}
);
userData = {
com.schriftgestaltung.Glyphs.lastChange = "2021-03-11 21:44:58 +0000";
};
width = 615;
},
{
layerId = master06;
paths = (
{
closed = 1;
nodes = (
"140 0 LINE",
"333 296 LINE",
"362 331 LINE",
"604 690 LINE",
"494 690 LINE",
"311 409 LINE",
"282 374 LINE",
"30 0 LINE"
);
},
{
closed = 1;
nodes = (
"292 310 LINE",
"498 0 LINE",
"614 0 LINE",
"353 394 LINE",
"156 690 LINE",
"40 690 LINE"
);
}
);
userData = {
com.schriftgestaltung.Glyphs.lastChange = "2021-03-11 23:04:40 +0000";
};
width = 644;
}
);
unicode = 0058;
},
{
color = 5;
glyphname = Y;
layers = (
{
anchors = (
{
name = top;
position = "{329, 690}";
}
);
layerId = master01;
paths = (
{
closed = 1;
nodes = (
"261 260 LINE",
"343 260 LINE",
"347 397 LINE",
"184 690 LINE",
"0 690 LINE"
);
},
{
closed = 1;
nodes = (
"408 0 LINE",
"408 290 LINE",
"248 290 LINE",
"248 0 LINE"
);
},
{
closed = 1;
nodes = (
"321 260 LINE",
"395 260 LINE",
"656 690 LINE",
"476 690 LINE",
"313 397 LINE"
);
}
);
userData = {
com.schriftgestaltung.Glyphs.lastChange = "2021-03-11 23:22:50 +0000";
};
width = 656;
},
{
anchors = (
{
name = top;
position = "{279, 690}";
}
);
layerId = master02;
paths = (
{
closed = 1;
nodes = (
"218 261 LINE",
"290 261 LINE",
"294 389 LINE",
"152 690 LINE",
"2 690 LINE"
);
},
{
closed = 1;
nodes = (
"349 0 LINE",
"349 294 LINE",
"207 294 LINE",
"207 0 LINE"
);
},
{
closed = 1;
nodes = (
"273 261 LINE",
"337 261 LINE",
"554 690 LINE",
"408 690 LINE",
"266 389 LINE"
);
}
);
userData = {
com.schriftgestaltung.Glyphs.lastChange = "2021-03-11 21:10:45 +0000";
};
width = 556;
},
{
anchors = (
{
name = top;
position = "{210, 690}";
}
);
layerId = master03;
paths = (
{
closed = 1;
nodes = (
"184 280 LINE",
"228 280 LINE",
"226 314 LINE",
"77 690 LINE",
"9 690 LINE"
);
},
{
closed = 1;
nodes = (
"241 0 LINE",
"241 310 LINE",
"179 310 LINE",
"179 0 LINE"
);
},
{
closed = 1;
nodes = (
"196 280 LINE",
"236 280 LINE",
"411 690 LINE",
"347 690 LINE",
"194 314 LINE"
);
}
);
userData = {
com.schriftgestaltung.Glyphs.lastChange = "2021-03-31 02:58:54 +0000";
};
width = 419;
},
{
anchors = (
{
name = top;
position = "{252, 690}";
}
);
layerId = master04;
paths = (
{
closed = 1;
nodes = (
"213 271 LINE",
"266 271 LINE",
"267 343 LINE",
"108 690 LINE",
"9 690 LINE"
);
},
{
closed = 1;
nodes = (
"296 0 LINE",
"296 322 LINE",
"206 322 LINE",
"206 0 LINE"
);
},
{
closed = 1;
nodes = (
"240 271 LINE",
"289 271 LINE",
"493 690 LINE",
"397 690 LINE",
"238 343 LINE"
);
}
);
userData = {
com.schriftgestaltung.Glyphs.lastChange = "2021-03-11 21:04:09 +0000";
};
width = 501;
},
{
anchors = (
{
name = top;
position = "{286, 690}";
}
);
layerId = master05;
paths = (
{
closed = 1;
nodes = (
"260 280 LINE",
"304 280 LINE",
"302 321 LINE",
"87 690 LINE",
"15 690 LINE"
);
},
{
closed = 1;
nodes = (
"317 0 LINE",
"317 310 LINE",
"255 310 LINE",
"255 0 LINE"
);
},
{
closed = 1;
nodes = (
"272 280 LINE",
"312 280 LINE",
"557 690 LINE",
"489 690 LINE",
"270 321 LINE"
);
}
);
userData = {
com.schriftgestaltung.Glyphs.lastChange = "2021-03-11 21:44:58 +0000";
};
width = 572;
},
{
anchors = (
{
name = top;
position = "{310, 690}";
}
);
layerId = master06;
paths = (
{
closed = 1;
nodes = (
"268 270 LINE",
"329 270 LINE",
"329 341 LINE",
"125 690 LINE",
"15 690 LINE"
);
},
{
closed = 1;
nodes = (
"356 0 LINE",
"356 320 LINE",
"260 320 LINE",
"260 0 LINE"
);
},
{
closed = 1;
nodes = (
"291 270 LINE",
"348 270 LINE",
"601 690 LINE",
"495 690 LINE",
"291 341 LINE"
);
}
);
userData = {
com.schriftgestaltung.Glyphs.lastChange = "2021-03-11 23:04:40 +0000";
};
width = 616;
}
);
leftKerningGroup = Y;
rightKerningGroup = Y;
unicode = 0059;
},
{
color = 5;
glyphname = Z;
layers = (
{
anchors = (
{
name = top;
position = "{323, 690}";
}
);
layerId = master01;
paths = (
{
closed = 1;
nodes = (
"173 0 LINE",
"581 585 LINE",
"463 690 LINE",
"55 105 LINE"
);
},
{
closed = 1;
nodes = (
"591 0 LINE",
"591 140 LINE",
"114 140 LINE",
"55 105 LINE",
"55 0 LINE"
);
},
{
closed = 1;
nodes = (
"523 550 LINE",
"581 585 LINE",
"581 690 LINE",
"65 690 LINE",
"65 550 LINE"
);
}
);
userData = {
com.schriftgestaltung.Glyphs.lastChange = "2021-03-11 23:22:50 +0000";
};
width = 646;
},
{
anchors = (
{
name = top;
position = "{273, 690}";
}
);
layerId = master02;
paths = (
{
closed = 1;
nodes = (
"141 0 LINE",
"492 591 LINE",
"397 690 LINE",
"46 99 LINE"
);
},
{
closed = 1;
nodes = (
"501 0 LINE",
"501 127 LINE",
"97 127 LINE",
"46 99 LINE",
"46 0 LINE"
);
},
{
closed = 1;
nodes = (
"443 563 LINE",
"492 591 LINE",
"492 690 LINE",
"54 690 LINE",
"54 563 LINE"
);
}
);
userData = {
com.schriftgestaltung.Glyphs.lastChange = "2021-03-11 21:10:45 +0000";
};
width = 546;
},
{
anchors = (
{
name = top;
position = "{230, 690}";
}
);
layerId = master03;
paths = (
{
closed = 1;
nodes = (
"83 0 LINE",
"386 648 LINE",
"350 690 LINE",
"47 42 LINE"
);
},
{
closed = 1;
nodes = (
"394 0 LINE",
"394 54 LINE",
"62 54 LINE",
"47 42 LINE",
"47 0 LINE"
);
},
{
closed = 1;
nodes = (
"369 636 LINE",
"386 648 LINE",
"386 690 LINE",
"55 690 LINE",
"55 636 LINE"
);
}
);
userData = {
com.schriftgestaltung.Glyphs.lastChange = "2021-03-31 02:59:17 +0000";
};
width = 441;
},
{
anchors = (
{
name = top;
position = "{249, 690}";
}
);
layerId = master04;
paths = (
{
closed = 1;
nodes = (
"107 0 LINE",
"443 626 LINE",
"383 690 LINE",
"47 64 LINE"
);
},
{
closed = 1;
nodes = (
"451 0 LINE",
"451 83 LINE",
"86 83 LINE",
"47 64 LINE",
"47 0 LINE"
);
},
{
closed = 1;
nodes = (
"402 607 LINE",
"443 626 LINE",
"443 690 LINE",
"55 690 LINE",
"55 607 LINE"
);
}
);
userData = {
com.schriftgestaltung.Glyphs.lastChange = "2021-03-11 21:04:01 +0000";
};
width = 498;
},
{
anchors = (
{
name = top;
position = "{298, 690}";
}
);
layerId = master05;
paths = (
{
closed = 1;
nodes = (
"111 0 LINE",
"524 648 LINE",
"478 690 LINE",
"65 42 LINE"
);
},
{
closed = 1;
nodes = (
"532 0 LINE",
"532 54 LINE",
"80 54 LINE",
"65 42 LINE",
"65 0 LINE"
);
},
{
closed = 1;
nodes = (
"507 636 LINE",
"524 648 LINE",
"524 690 LINE",
"73 690 LINE",
"73 636 LINE"
);
}
);
userData = {
com.schriftgestaltung.Glyphs.lastChange = "2021-03-11 21:44:58 +0000";
};
width = 597;
},
{
anchors = (
{
name = top;
position = "{307, 690}";
}
);
layerId = master06;
paths = (
{
closed = 1;
nodes = (
"124 0 LINE",
"544 624 LINE",
"480 690 LINE",
"60 66 LINE"
);
},
{
closed = 1;
nodes = (
"554 0 LINE",
"554 86 LINE",
"106 86 LINE",
"60 66 LINE",
"60 0 LINE"
);
},
{
closed = 1;
nodes = (
"495 604 LINE",
"544 624 LINE",
"544 690 LINE",
"70 690 LINE",
"70 604 LINE"
);
}
);
userData = {
com.schriftgestaltung.Glyphs.lastChange = "2021-03-11 23:04:40 +0000";
};
width = 614;
}
);
leftKerningGroup = Z;
rightKerningGroup = Z;
unicode = 005A;
},
{
color = 10;
glyphname = I.alt;
layers = (
{
anchors = (
{
name = bottom;
position = "{165, 0}";
},
{
name = ogonek;
position = "{85, 0}";
},
{
name = top;
position = "{165, 690}";
}
);
layerId = master01;
paths = (
{
closed = 1;
nodes = (
"245 0 LINE",
"245 690 LINE",
"85 690 LINE",
"85 0 LINE"
);
}
);
userData = {
com.schriftgestaltung.Glyphs.lastChange = "2021-03-11 23:22:59 +0000";
};
width = 330;
},
{
anchors = (
{
name = bottom;
position = "{141, 0}";
},
{
name = ogonek;
position = "{70, 0}";
},
{
name = top;
position = "{141, 690}";
}
);
layerId = master02;
paths = (
{
closed = 1;
nodes = (
"212 0 LINE",
"212 690 LINE",
"70 690 LINE",
"70 0 LINE"
);
}
);
userData = {
com.schriftgestaltung.Glyphs.lastChange = "2021-03-11 21:10:55 +0000";
};
width = 281;
},
{
anchors = (
{
name = bottom;
position = "{141, 0}";
},
{
name = ogonek;
position = "{110, 0}";
},
{
name = top;
position = "{141, 690}";
}
);
layerId = master03;
paths = (
{
closed = 1;
nodes = (
"172 0 LINE",
"172 690 LINE",
"110 690 LINE",
"110 0 LINE"
);
}
);
userData = {
com.schriftgestaltung.Glyphs.lastChange = "2021-03-11 20:57:47 +0000";
};
width = 282;
},
{
anchors = (
{
name = bottom;
position = "{122, 0}";
},
{
name = ogonek;
position = "{77, 0}";
},
{
name = top;
position = "{122, 690}";
}
);
layerId = master04;
paths = (
{
closed = 1;
nodes = (
"167 0 LINE",
"167 690 LINE",
"77 690 LINE",
"77 0 LINE"
);
}
);
userData = {
com.schriftgestaltung.Glyphs.lastChange = "2021-03-11 21:04:16 +0000";
};
width = 244;
},
{
anchors = (
{
name = bottom;
position = "{141, 0}";
},
{
name = ogonek;
position = "{110, 0}";
},
{
name = top;
position = "{141, 690}";
}
);
layerId = master05;
paths = (
{
closed = 1;
nodes = (
"172 0 LINE",
"172 690 LINE",
"110 690 LINE",
"110 0 LINE"
);
}
);
userData = {
com.schriftgestaltung.Glyphs.lastChange = "2021-03-11 21:45:03 +0000";
};
width = 282;
},
{
anchors = (
{
name = bottom;
position = "{148, 0}";
},
{
name = ogonek;
position = "{100, 0}";
},
{
name = top;
position = "{148, 690}";
}
);
layerId = master06;
paths = (
{
closed = 1;
nodes = (
"196 0 LINE",
"196 690 LINE",
"100 690 LINE",
"100 0 LINE"
);
}
);
userData = {
com.schriftgestaltung.Glyphs.lastChange = "2021-03-11 23:04:45 +0000";
};
width = 296;
}
);
leftKerningGroup = H;
rightKerningGroup = H;
},
{
color = 10;
glyphname = J.alt;
layers = (
{
anchors = (
{
name = top;
position = "{416, 690}";
}
);
layerId = master01;
paths = (
{
closed = 1;
nodes = (
"68 21 OFFCURVE",
"137 -12 OFFCURVE",
"223 -12 CURVE",
"372 -12 OFFCURVE",
"494 80 OFFCURVE",
"494 245 CURVE SMOOTH",
"494 690 LINE",
"334 690 LINE",
"334 265 LINE SMOOTH",
"334 177 OFFCURVE",
"291 131 OFFCURVE",
"218 131 CURVE",
"173 131 OFFCURVE",
"134 154 OFFCURVE",
"111 186 CURVE",
"15 74 LINE"
);
}
);
userData = {
com.schriftgestaltung.Glyphs.lastChange = "2021-03-11 23:22:59 +0000";
};
width = 569;
},
{
anchors = (
{
name = top;
position = "{347, 690}";
}
);
layerId = master02;
paths = (
{
closed = 1;
nodes = (
"57 18 OFFCURVE",
"115 -12 OFFCURVE",
"188 -12 CURVE SMOOTH",
"316 -12 OFFCURVE",
"416 79 OFFCURVE",
"416 244 CURVE SMOOTH",
"416 690 LINE",
"274 690 LINE",
"274 262 LINE SMOOTH",
"274 169 OFFCURVE",
"240 121 OFFCURVE",
"178 121 CURVE SMOOTH",
"136.109 121 OFFCURVE",
"104.435 141.976 OFFCURVE",
"84 164 CURVE",
"11 64 LINE"
);
}
);
userData = {
com.schriftgestaltung.Glyphs.lastChange = "2021-03-11 21:10:55 +0000";
};
width = 477;
},
{
anchors = (
{
name = top;
position = "{405, 690}";
}
);
layerId = master03;
paths = (
{
closed = 1;
nodes = (
"98 25 OFFCURVE",
"160 -8 OFFCURVE",
"229 -8 CURVE",
"344 -8 OFFCURVE",
"436 68 OFFCURVE",
"436 215 CURVE SMOOTH",
"436 690 LINE",
"374 690 LINE",
"374 220 LINE SMOOTH",
"374 106 OFFCURVE",
"310 49 OFFCURVE",
"229 49 CURVE",
"177 49 OFFCURVE",
"136 73 OFFCURVE",
"102 119 CURVE",
"55 87 LINE"
);
}
);
userData = {
com.schriftgestaltung.Glyphs.lastChange = "2021-03-11 20:57:47 +0000";
};
width = 536;
},
{
anchors = (
{
name = top;
position = "{345, 690}";
}
);
layerId = master04;
paths = (
{
closed = 1;
nodes = (
"66 35 OFFCURVE",
"126 -10 OFFCURVE",
"203 -10 CURVE SMOOTH",
"317 -10 OFFCURVE",
"389 71 OFFCURVE",
"389 236 CURVE SMOOTH",
"389 690 LINE",
"300 690 LINE",
"300 243 LINE SMOOTH",
"300 117.477 OFFCURVE",
"262 73 OFFCURVE",
"201 73 CURVE SMOOTH",
"146 73 OFFCURVE",
"114 112.027 OFFCURVE",
"90 149 CURVE",
"32 94 LINE"
);
}
);
userData = {
com.schriftgestaltung.Glyphs.lastChange = "2021-03-11 21:04:16 +0000";
};
width = 458;
},
{
anchors = (
{
name = top;
position = "{405, 690}";
}
);
layerId = master05;
paths = (
{
closed = 1;
nodes = (
"98 25 OFFCURVE",
"160 -8 OFFCURVE",
"229 -8 CURVE",
"344 -8 OFFCURVE",
"436 68 OFFCURVE",
"436 215 CURVE SMOOTH",
"436 690 LINE",
"374 690 LINE",
"374 220 LINE SMOOTH",
"374 106 OFFCURVE",
"310 49 OFFCURVE",
"229 49 CURVE",
"177 49 OFFCURVE",
"136 73 OFFCURVE",
"102 119 CURVE",
"55 87 LINE"
);
}
);
userData = {
com.schriftgestaltung.Glyphs.lastChange = "2021-03-11 21:45:03 +0000";
};
width = 536;
},
{
anchors = (
{
name = top;
position = "{436, 690}";
}
);
layerId = master06;
paths = (
{
closed = 1;
nodes = (
"86 39 OFFCURVE",
"168 -10 OFFCURVE",
"255 -10 CURVE SMOOTH",
"382 -10 OFFCURVE",
"483 75 OFFCURVE",
"483 236 CURVE SMOOTH",
"483 690 LINE",
"389 690 LINE",
"389 246 LINE SMOOTH",
"389 130 OFFCURVE",
"337 78 OFFCURVE",
"254 78 CURVE SMOOTH",
"187 78 OFFCURVE",
"140 119 OFFCURVE",
"116 163 CURVE",
"45 107 LINE"
);
}
);
userData = {
com.schriftgestaltung.Glyphs.lastChange = "2021-03-11 23:04:45 +0000";
};
width = 573;
}
);
leftKerningGroup = J_alt;
rightKerningGroup = U;
},
{
color = 5;
glyphname = a;
layers = (
{
anchors = (
{
name = bottom;
position = "{264, 0}";
},
{
name = hook;
position = "{298, 561}";
},
{
name = ogonek;
position = "{480, 0}";
},
{
name = top;
position = "{264, 525}";
}
);
layerId = master01;
paths = (
{
closed = 1;
nodes = (
"35 48 OFFCURVE",
"106 -12 OFFCURVE",
"190 -12 CURVE SMOOTH",
"260 -12 OFFCURVE",
"320 25 OFFCURVE",
"352 78 CURVE",
"352 163 LINE",
"320 125 OFFCURVE",
"276 100 OFFCURVE",
"230 100 CURVE SMOOTH",
"195 100 OFFCURVE",
"170 120 OFFCURVE",
"170 155 CURVE SMOOTH",
"170 190 OFFCURVE",
"201 222 OFFCURVE",
"290 226 CURVE SMOOTH",
"370 230 LINE",
"370 315 LINE",
"280 312 LINE SMOOTH",
"114 306 OFFCURVE",
"35 235 OFFCURVE",
"35 138 CURVE SMOOTH"
);
},
{
closed = 1;
nodes = (
"92 375 LINE",
"130 394 OFFCURVE",
"180 412 OFFCURVE",
"236 412 CURVE SMOOTH",
"305 412 OFFCURVE",
"337 377 OFFCURVE",
"337 318 CURVE SMOOTH",
"337 100 LINE",
"356 0 LINE",
"502 0 LINE",
"494 49 LINE SMOOTH",
"489 78 OFFCURVE",
"487 97 OFFCURVE",
"487 125 CURVE",
"487 326 LINE SMOOTH",
"487 464 OFFCURVE",
"394 537 OFFCURVE",
"259 537 CURVE SMOOTH",
"178 537 OFFCURVE",
"103 516 OFFCURVE",
"52 493 CURVE"
);
}
);
userData = {
com.schriftgestaltung.Glyphs.lastChange = "2021-03-18 14:28:06 +0000";
};
width = 557;
},
{
anchors = (
{
name = bottom;
position = "{218, 0}";
},
{
name = hook;
position = "{238, 563}";
},
{
name = ogonek;
position = "{293, 0}";
},
{
name = top;
position = "{222, 525}";
}
);
layerId = master02;
paths = (
{
closed = 1;
nodes = (
"20 48 OFFCURVE",
"86.818 -12 OFFCURVE",
"167 -12 CURVE SMOOTH",
"220.639 -12 OFFCURVE",
"266.88 16 OFFCURVE",
"290 57 CURVE",
"290 144 LINE",
"267.263 120.344 OFFCURVE",
"234 105 OFFCURVE",
"200 105 CURVE SMOOTH",
"170 105 OFFCURVE",
"147 123.24 OFFCURVE",
"147 153 CURVE SMOOTH",
"147 189 OFFCURVE",
"179 216 OFFCURVE",
"239 220 CURVE SMOOTH",
"310 225 LINE",
"310 318 LINE",
"229 315 LINE SMOOTH",
"91 310 OFFCURVE",
"20 243 OFFCURVE",
"20 141 CURVE"
);
},
{
closed = 1;
nodes = (
"84 385 LINE",
"112 399.4 OFFCURVE",
"157 415 OFFCURVE",
"192 415 CURVE SMOOTH",
"255 415 OFFCURVE",
"278 378.098 OFFCURVE",
"278 318 CURVE SMOOTH",
"278 100 LINE",
"293 0 LINE",
"422 0 LINE",
"415 49 LINE SMOOTH",
"411 78 OFFCURVE",
"410 97 OFFCURVE",
"410 125 CURVE",
"410 334 LINE SMOOTH",
"410 472 OFFCURVE",
"343 537 OFFCURVE",
"213 537 CURVE SMOOTH",
"152 537 OFFCURVE",
"89 517.344 OFFCURVE",
"49 500 CURVE"
);
}
);
userData = {
com.schriftgestaltung.Glyphs.lastChange = "2021-03-12 00:35:30 +0000";
};
width = 467;
},
{
anchors = (
{
name = bottom;
position = "{204, 0}";
},
{
name = hook;
position = "{230, 540}";
},
{
name = ogonek;
position = "{316, 0}";
},
{
name = top;
position = "{214, 510}";
}
);
layerId = master03;
paths = (
{
closed = 1;
nodes = (
"46 49 OFFCURVE",
"95 -8 OFFCURVE",
"178 -8 CURVE SMOOTH",
"233 -8 OFFCURVE",
"286 32 OFFCURVE",
"315 77 CURVE",
"315 136 LINE",
"282 82 OFFCURVE",
"238 46 OFFCURVE",
"186 46 CURVE SMOOTH",
"128 46 OFFCURVE",
"105 81 OFFCURVE",
"105 128 CURVE",
"105 178 OFFCURVE",
"130 223 OFFCURVE",
"267 248 CURVE SMOOTH",
"306 255 LINE",
"306 297 LINE",
"260 291 LINE SMOOTH",
"95 269 OFFCURVE",
"46 207 OFFCURVE",
"46 121 CURVE"
);
},
{
closed = 1;
nodes = (
"97 423 LINE",
"132 445 OFFCURVE",
"169 463 OFFCURVE",
"216 463 CURVE",
"272 463 OFFCURVE",
"300 422 OFFCURVE",
"300 324 CURVE",
"300 103 LINE",
"316 0 LINE",
"371 0 LINE",
"365 39 LINE SMOOTH",
"361 68 OFFCURVE",
"360 89 OFFCURVE",
"360 122 CURVE",
"360 329 LINE SMOOTH",
"360 458 OFFCURVE",
"310 518 OFFCURVE",
"220 518 CURVE",
"164 518 OFFCURVE",
"110 496 OFFCURVE",
"70 466 CURVE"
);
}
);
userData = {
com.schriftgestaltung.Glyphs.lastChange = "2021-03-30 17:43:56 +0000";
};
width = 427;
},
{
anchors = (
{
name = bottom;
position = "{223, 0}";
},
{
name = hook;
position = "{242, 552}";
},
{
name = ogonek;
position = "{368, 0}";
},
{
name = top;
position = "{223, 514}";
}
);
layerId = master04;
paths = (
{
closed = 1;
nodes = (
"46 46 OFFCURVE",
"108.44 -10 OFFCURVE",
"188 -10 CURVE SMOOTH",
"236 -10 OFFCURVE",
"287 18.848 OFFCURVE",
"317 58 CURVE",
"317 127 LINE",
"285 92.636 OFFCURVE",
"248 73 OFFCURVE",
"208 73 CURVE SMOOTH",
"164 73 OFFCURVE",
"134 98.639 OFFCURVE",
"134 144 CURVE SMOOTH",
"134 185.436 OFFCURVE",
"160 230.828 OFFCURVE",
"262 239 CURVE",
"315 244 LINE",
"315 309 LINE",
"262 306 LINE SMOOTH",
"103 297 OFFCURVE",
"46 222 OFFCURVE",
"46 137 CURVE SMOOTH"
);
},
{
closed = 1;
nodes = (
"92 405 LINE",
"127.304 424.412 OFFCURVE",
"167 438 OFFCURVE",
"208 438 CURVE SMOOTH",
"269 438 OFFCURVE",
"303 400.362 OFFCURVE",
"303 334 CURVE SMOOTH",
"303 100 LINE",
"321 0 LINE",
"404 0 LINE",
"397 44 LINE SMOOTH",
"392 73 OFFCURVE",
"391 94 OFFCURVE",
"391 122 CURVE SMOOTH",
"391 345 LINE SMOOTH",
"391 462 OFFCURVE",
"320 524 OFFCURVE",
"218 524 CURVE SMOOTH",
"164.654 524 OFFCURVE",
"103.255 504 OFFCURVE",
"64 480 CURVE"
);
}
);
userData = {
com.schriftgestaltung.Glyphs.lastChange = "2021-03-18 05:59:50 +0000";
};
width = 460;
},
{
anchors = (
{
name = bottom;
position = "{249, 0}";
},
{
name = hook;
position = "{273, 545}";
},
{
name = ogonek;
position = "{380, 0}";
},
{
name = top;
position = "{249, 510}";
}
);
layerId = master05;
paths = (
{
closed = 1;
nodes = (
"60 49 OFFCURVE",
"115 -8 OFFCURVE",
"198 -8 CURVE",
"265 -8 OFFCURVE",
"340 30 OFFCURVE",
"379 88 CURVE",
"379 139 LINE",
"336 78 OFFCURVE",
"269 46 OFFCURVE",
"208 46 CURVE",
"150 46 OFFCURVE",
"119 81 OFFCURVE",
"119 128 CURVE",
"119 178 OFFCURVE",
"153 236 OFFCURVE",
"291 248 CURVE SMOOTH",
"370 255 LINE",
"370 297 LINE",
"284 292 LINE SMOOTH",
"119 282 OFFCURVE",
"60 207 OFFCURVE",
"60 121 CURVE"
);
},
{
closed = 1;
nodes = (
"98 424 LINE",
"143 450 OFFCURVE",
"188 463 OFFCURVE",
"236 463 CURVE",
"313 463 OFFCURVE",
"364 423 OFFCURVE",
"364 324 CURVE",
"364 103 LINE",
"380 0 LINE",
"435 0 LINE",
"429 39 LINE SMOOTH",
"425 68 OFFCURVE",
"424 89 OFFCURVE",
"424 122 CURVE",
"424 327 LINE SMOOTH",
"424 454 OFFCURVE",
"346 518 OFFCURVE",
"240 518 CURVE",
"186 518 OFFCURVE",
"122 499 OFFCURVE",
"74 472 CURVE"
);
}
);
userData = {
com.schriftgestaltung.Glyphs.lastChange = "2021-03-12 01:00:19 +0000";
};
width = 514;
},
{
anchors = (
{
name = bottom;
position = "{265, 0}";
},
{
name = hook;
position = "{291, 551}";
},
{
name = ogonek;
position = "{387, 0}";
},
{
name = top;
position = "{265, 515}";
}
);
layerId = master06;
paths = (
{
closed = 1;
nodes = (
"60 44 OFFCURVE",
"127 -10 OFFCURVE",
"202 -10 CURVE",
"276 -10 OFFCURVE",
"342 31 OFFCURVE",
"381 85 CURVE",
"381 157 LINE",
"334 105 OFFCURVE",
"279 74 OFFCURVE",
"222 74 CURVE",
"181 74 OFFCURVE",
"154 98 OFFCURVE",
"154 140 CURVE",
"154 183 OFFCURVE",
"185 224 OFFCURVE",
"315 237 CURVE SMOOTH",
"374 243 LINE",
"374 308 LINE",
"311 306 LINE SMOOTH",
"124 300 OFFCURVE",
"60 221 OFFCURVE",
"60 132 CURVE"
);
},
{
closed = 1;
nodes = (
"107 394 LINE",
"152 419 OFFCURVE",
"196 437 OFFCURVE",
"249 437 CURVE",
"322 437 OFFCURVE",
"366 402 OFFCURVE",
"366 314 CURVE SMOOTH",
"366 100 LINE",
"387 0 LINE",
"473 0 LINE",
"465 44 LINE SMOOTH",
"460 73 OFFCURVE",
"458 94 OFFCURVE",
"458 122 CURVE SMOOTH",
"458 325 LINE SMOOTH",
"458 459 OFFCURVE",
"371 525 OFFCURVE",
"258 525 CURVE",
"197 525 OFFCURVE",
"122 501 OFFCURVE",
"75 472 CURVE"
);
}
);
userData = {
com.schriftgestaltung.Glyphs.lastChange = "2021-03-11 23:43:42 +0000";
};
width = 543;
}
);
leftKerningGroup = a;
rightKerningGroup = a;
unicode = 0061;
},
{
color = 5;
glyphname = ae;
layers = (
{
anchors = (
{
name = top;
position = "{430, 515}";
}
);
layerId = master01;
paths = (
{
closed = 1;
nodes = (
"35 48 OFFCURVE",
"106 -12 OFFCURVE",
"200 -12 CURVE SMOOTH",
"294 -12 OFFCURVE",
"366 38 OFFCURVE",
"420 100 CURVE",
"352 163 LINE",
"320 125 OFFCURVE",
"276 100 OFFCURVE",
"230 100 CURVE SMOOTH",
"195 100 OFFCURVE",
"170 120 OFFCURVE",
"170 155 CURVE SMOOTH",
"170 190 OFFCURVE",
"201 222 OFFCURVE",
"290 226 CURVE SMOOTH",
"370 230 LINE",
"370 315 LINE",
"280 312 LINE SMOOTH",
"114 306 OFFCURVE",
"35 235 OFFCURVE",
"35 138 CURVE SMOOTH"
);
},
{
closed = 1;
nodes = (
"93 372 LINE",
"132 391 OFFCURVE",
"181 411 OFFCURVE",
"236 411 CURVE SMOOTH",
"305 411 OFFCURVE",
"338 377 OFFCURVE",
"338 318 CURVE",
"338 280 LINE",
"477 280 LINE",
"477 326 LINE SMOOTH",
"477 464 OFFCURVE",
"394 537 OFFCURVE",
"259 537 CURVE SMOOTH",
"178 537 OFFCURVE",
"103 516 OFFCURVE",
"52 493 CURVE"
);
},
{
closed = 1;
nodes = (
"338 94 OFFCURVE",
"428 -12 OFFCURVE",
"609 -12 CURVE SMOOTH",
"680 -12 OFFCURVE",
"739 7 OFFCURVE",
"787 28 CURVE",
"746 140 LINE",
"712 122 OFFCURVE",
"666 110 OFFCURVE",
"626 110 CURVE SMOOTH",
"532 110 OFFCURVE",
"475 158 OFFCURVE",
"475 262 CURVE SMOOTH",
"475 374 OFFCURVE",
"522 420 OFFCURVE",
"584 420 CURVE SMOOTH",
"643 420 OFFCURVE",
"677 375 OFFCURVE",
"677 272 CURVE",
"708 313 LINE",
"437 313 LINE",
"437 218 LINE",
"816 218 LINE",
"818 230 OFFCURVE",
"821 251 OFFCURVE",
"821 274 CURVE SMOOTH",
"821 437 OFFCURVE",
"730 537 OFFCURVE",
"587 537 CURVE SMOOTH",
"434 537 OFFCURVE",
"338 424 OFFCURVE",
"338 252 CURVE SMOOTH"
);
}
);
userData = {
com.schriftgestaltung.Glyphs.lastChange = "2021-03-11 23:40:37 +0000";
};
width = 856;
},
{
anchors = (
{
name = top;
position = "{362, 515}";
}
);
layerId = master02;
paths = (
{
closed = 1;
nodes = (
"21 50.384 OFFCURVE",
"84.118 -12 OFFCURVE",
"170 -12 CURVE SMOOTH",
"256.595 -12 OFFCURVE",
"305.243 28.091 OFFCURVE",
"350 78 CURVE",
"295 144 LINE",
"271.736 120 OFFCURVE",
"237.144 105 OFFCURVE",
"203 105 CURVE SMOOTH",
"170.255 105 OFFCURVE",
"146 122.294 OFFCURVE",
"146 154 CURVE SMOOTH",
"146 187 OFFCURVE",
"172 217.13 OFFCURVE",
"239 220 CURVE SMOOTH",
"310 224 LINE",
"310 318 LINE",
"229 315 LINE SMOOTH",
"91.353 309.138 OFFCURVE",
"21 239.659 OFFCURVE",
"21 145 CURVE SMOOTH"
);
},
{
closed = 1;
nodes = (
"85 384 LINE",
"114 399 OFFCURVE",
"153 415 OFFCURVE",
"196 415 CURVE SMOOTH",
"253 415 OFFCURVE",
"279 379.433 OFFCURVE",
"279 318 CURVE SMOOTH",
"279 282 LINE",
"405 282 LINE",
"405 326 LINE SMOOTH",
"405 464 OFFCURVE",
"336 538 OFFCURVE",
"218 538 CURVE SMOOTH",
"150.022 538 OFFCURVE",
"90.542 519.442 OFFCURVE",
"49 500 CURVE"
);
},
{
closed = 1;
nodes = (
"279 96 OFFCURVE",
"352 -12 OFFCURVE",
"512 -12 CURVE SMOOTH",
"575.632 -12 OFFCURVE",
"625.921 8.949 OFFCURVE",
"668 31 CURVE",
"623 140 LINE",
"596 123 OFFCURVE",
"559 112 OFFCURVE",
"529 112 CURVE SMOOTH",
"444 112 OFFCURVE",
"403 159 OFFCURVE",
"403 263 CURVE SMOOTH",
"403 377 OFFCURVE",
"441 422 OFFCURVE",
"490 422 CURVE SMOOTH",
"538 422 OFFCURVE",
"563 379.067 OFFCURVE",
"563 282 CURVE",
"591 314 LINE",
"368 314 LINE",
"368 217 LINE",
"684 217 LINE",
"686 229 OFFCURVE",
"689 251 OFFCURVE",
"689 275 CURVE SMOOTH",
"689 437 OFFCURVE",
"614.891 538 OFFCURVE",
"493 538 CURVE SMOOTH",
"359 538 OFFCURVE",
"279 423 OFFCURVE",
"279 252 CURVE SMOOTH"
);
}
);
userData = {
com.schriftgestaltung.Glyphs.lastChange = "2021-03-12 00:35:30 +0000";
};
width = 722;
},
{
anchors = (
{
name = top;
position = "{350, 515}";
}
);
layerId = master03;
paths = (
{
closed = 1;
nodes = (
"45 49 OFFCURVE",
"88 -8 OFFCURVE",
"181 -8 CURVE SMOOTH",
"248 -8 OFFCURVE",
"313 40 OFFCURVE",
"364 124 CURVE",
"326 150 LINE",
"279 78 OFFCURVE",
"241 46 OFFCURVE",
"191 46 CURVE SMOOTH",
"123 46 OFFCURVE",
"104 81 OFFCURVE",
"104 128 CURVE",
"104 178 OFFCURVE",
"134 233 OFFCURVE",
"252 248 CURVE SMOOTH",
"308 255 LINE",
"308 297 LINE",
"245 292 LINE SMOOTH",
"100 280 OFFCURVE",
"45 207 OFFCURVE",
"45 121 CURVE"
);
},
{
closed = 1;
nodes = (
"77 429 LINE",
"122 455 OFFCURVE",
"141 463 OFFCURVE",
"189 463 CURVE",
"266 463 OFFCURVE",
"307 423 OFFCURVE",
"307 324 CURVE",
"307 260 LINE",
"362 260 LINE",
"362 320 LINE SMOOTH",
"362 447 OFFCURVE",
"299 518 OFFCURVE",
"193 518 CURVE",
"139 518 OFFCURVE",
"101 504 OFFCURVE",
"53 477 CURVE"
);
},
{
closed = 1;
nodes = (
"307 81 OFFCURVE",
"379 -8 OFFCURVE",
"483 -8 CURVE SMOOTH",
"540 -8 OFFCURVE",
"582 13 OFFCURVE",
"625 55 CURVE",
"591 97 LINE",
"560 66 OFFCURVE",
"531 48 OFFCURVE",
"482 48 CURVE SMOOTH",
"409 48 OFFCURVE",
"362 111 OFFCURVE",
"362 255 CURVE SMOOTH",
"362 395 OFFCURVE",
"407 463 OFFCURVE",
"477 463 CURVE SMOOTH",
"558 463 OFFCURVE",
"592 402 OFFCURVE",
"592 270 CURVE",
"605 294 LINE",
"345 294 LINE",
"345 244 LINE",
"645 244 LINE",
"646 254 OFFCURVE",
"647 267 OFFCURVE",
"647 280 CURVE SMOOTH",
"647 431 OFFCURVE",
"589 518 OFFCURVE",
"477 518 CURVE SMOOTH",
"376 518 OFFCURVE",
"307 425 OFFCURVE",
"307 255 CURVE SMOOTH"
);
}
);
userData = {
com.schriftgestaltung.Glyphs.lastChange = "2021-03-18 05:48:48 +0000";
};
width = 692;
},
{
anchors = (
{
name = top;
position = "{360, 515}";
}
);
layerId = master04;
paths = (
{
closed = 1;
nodes = (
"46 46.767 OFFCURVE",
"110 -10 OFFCURVE",
"193 -10 CURVE SMOOTH",
"260 -10 OFFCURVE",
"321.475 29.941 OFFCURVE",
"363 87 CURVE",
"322 135 LINE",
"297 95 OFFCURVE",
"250 72 OFFCURVE",
"210 72 CURVE SMOOTH",
"162 72 OFFCURVE",
"133 101 OFFCURVE",
"133 142 CURVE",
"133 186 OFFCURVE",
"160 232 OFFCURVE",
"266 237 CURVE SMOOTH",
"313 239 LINE",
"315 307 LINE",
"260 307 LINE SMOOTH",
"106 307 OFFCURVE",
"46 226.947 OFFCURVE",
"46 138 CURVE SMOOTH"
);
},
{
closed = 1;
nodes = (
"92 405 LINE",
"128 423 OFFCURVE",
"165 438 OFFCURVE",
"208 438 CURVE SMOOTH",
"268 438 OFFCURVE",
"304 403.28 OFFCURVE",
"304 314 CURVE SMOOTH",
"304 258 LINE",
"382 258 LINE",
"382 323 LINE SMOOTH",
"382 457 OFFCURVE",
"315 524 OFFCURVE",
"218 524 CURVE SMOOTH",
"164.384 524 OFFCURVE",
"102 504 OFFCURVE",
"63 479 CURVE"
);
},
{
closed = 1;
nodes = (
"306 66 OFFCURVE",
"391 -10 OFFCURVE",
"511 -10 CURVE SMOOTH",
"568 -10 OFFCURVE",
"623 12 OFFCURVE",
"661 50 CURVE",
"614 108 LINE",
"589 85 OFFCURVE",
"556 69 OFFCURVE",
"523 69 CURVE",
"447 69 OFFCURVE",
"388 118 OFFCURVE",
"388 251 CURVE SMOOTH",
"388 379 OFFCURVE",
"430.819 446 OFFCURVE",
"494 446 CURVE SMOOTH",
"550.731 446 OFFCURVE",
"594 397 OFFCURVE",
"594 267 CURVE",
"609 303 LINE",
"366 303 LINE",
"366 231 LINE",
"675 231 LINE",
"676 243 OFFCURVE",
"677 255 OFFCURVE",
"677 266 CURVE SMOOTH",
"677 439 OFFCURVE",
"598 524 OFFCURVE",
"494 524 CURVE SMOOTH",
"385 524 OFFCURVE",
"306 413 OFFCURVE",
"306 252 CURVE SMOOTH"
);
}
);
userData = {
com.schriftgestaltung.Glyphs.lastChange = "2021-03-12 00:18:25 +0000";
};
width = 720;
},
{
anchors = (
{
name = top;
position = "{412, 515}";
}
);
layerId = master05;
paths = (
{
closed = 1;
nodes = (
"60 49 OFFCURVE",
"115 -8 OFFCURVE",
"208 -8 CURVE SMOOTH",
"285 -8 OFFCURVE",
"370 40 OFFCURVE",
"426 124 CURVE",
"388 150 LINE",
"336 78 OFFCURVE",
"278 46 OFFCURVE",
"218 46 CURVE SMOOTH",
"150 46 OFFCURVE",
"119 81 OFFCURVE",
"119 128 CURVE",
"119 178 OFFCURVE",
"153 236 OFFCURVE",
"291 248 CURVE SMOOTH",
"370 255 LINE",
"370 297 LINE",
"284 292 LINE SMOOTH",
"119 282 OFFCURVE",
"60 207 OFFCURVE",
"60 121 CURVE"
);
},
{
closed = 1;
nodes = (
"98 424 LINE",
"143 450 OFFCURVE",
"188 463 OFFCURVE",
"236 463 CURVE",
"313 463 OFFCURVE",
"369 423 OFFCURVE",
"369 324 CURVE",
"369 260 LINE",
"424 260 LINE",
"424 327 LINE SMOOTH",
"424 454 OFFCURVE",
"346 518 OFFCURVE",
"240 518 CURVE",
"186 518 OFFCURVE",
"122 499 OFFCURVE",
"74 472 CURVE"
);
},
{
closed = 1;
nodes = (
"369 81 OFFCURVE",
"467 -8 OFFCURVE",
"591 -8 CURVE SMOOTH",
"648 -8 OFFCURVE",
"703 13 OFFCURVE",
"751 55 CURVE",
"715 99 LINE",
"679 68 OFFCURVE",
"639 48 OFFCURVE",
"590 48 CURVE SMOOTH",
"497 48 OFFCURVE",
"424 111 OFFCURVE",
"424 255 CURVE SMOOTH",
"424 395 OFFCURVE",
"488 463 OFFCURVE",
"578 463 CURVE SMOOTH",
"659 463 OFFCURVE",
"722 402 OFFCURVE",
"722 270 CURVE",
"735 294 LINE",
"407 294 LINE",
"407 244 LINE",
"777 244 LINE",
"778 254 OFFCURVE",
"779 267 OFFCURVE",
"779 280 CURVE SMOOTH",
"779 431 OFFCURVE",
"690 518 OFFCURVE",
"578 518 CURVE SMOOTH",
"457 518 OFFCURVE",
"369 425 OFFCURVE",
"369 255 CURVE SMOOTH"
);
}
);
userData = {
com.schriftgestaltung.Glyphs.lastChange = "2021-03-12 01:00:19 +0000";
};
width = 839;
},
{
anchors = (
{
name = top;
position = "{426, 515}";
}
);
layerId = master06;
paths = (
{
closed = 1;
nodes = (
"60 44 OFFCURVE",
"135 -10 OFFCURVE",
"218 -10 CURVE SMOOTH",
"310 -10 OFFCURVE",
"384 44 OFFCURVE",
"434 120 CURVE",
"382 156 LINE",
"342 104 OFFCURVE",
"290 74 OFFCURVE",
"232 74 CURVE SMOOTH",
"185 74 OFFCURVE",
"154 98 OFFCURVE",
"154 140 CURVE SMOOTH",
"154 183 OFFCURVE",
"185 224 OFFCURVE",
"315 237 CURVE SMOOTH",
"374 243 LINE",
"374 308 LINE",
"311 306 LINE SMOOTH",
"124 300 OFFCURVE",
"60 221 OFFCURVE",
"60 132 CURVE SMOOTH"
);
},
{
closed = 1;
nodes = (
"107 394 LINE",
"152 419 OFFCURVE",
"196 437 OFFCURVE",
"249 437 CURVE SMOOTH",
"322 437 OFFCURVE",
"366 402 OFFCURVE",
"366 314 CURVE SMOOTH",
"366 260 LINE",
"454 260 LINE",
"454 325 LINE SMOOTH",
"454 459 OFFCURVE",
"368.74 525 OFFCURVE",
"258 525 CURVE SMOOTH",
"197 525 OFFCURVE",
"122 501 OFFCURVE",
"75 472 CURVE"
);
},
{
closed = 1;
nodes = (
"366 77 OFFCURVE",
"468.311 -10 OFFCURVE",
"606 -10 CURVE SMOOTH",
"667 -10 OFFCURVE",
"725 6 OFFCURVE",
"771 43 CURVE",
"728 116 LINE",
"697 92 OFFCURVE",
"657 74 OFFCURVE",
"609 74 CURVE SMOOTH",
"521.812 74 OFFCURVE",
"454 134 OFFCURVE",
"454 252 CURVE SMOOTH",
"454 379 OFFCURVE",
"506.963 444 OFFCURVE",
"584 444 CURVE SMOOTH",
"652 444 OFFCURVE",
"708 395 OFFCURVE",
"708 267 CURVE",
"726 304 LINE",
"434 304 LINE",
"434 230 LINE",
"796 230 LINE",
"797 242 OFFCURVE",
"798 255 OFFCURVE",
"798 267 CURVE SMOOTH",
"798 439 OFFCURVE",
"703 525 OFFCURVE",
"585 525 CURVE SMOOTH",
"463.122 525 OFFCURVE",
"366 432 OFFCURVE",
"366 252 CURVE SMOOTH"
);
}
);
userData = {
com.schriftgestaltung.Glyphs.lastChange = "2021-03-11 23:43:42 +0000";
};
width = 853;
}
);
leftKerningGroup = a;
rightKerningGroup = e;
unicode = 00E6;
},
{
color = 5;
glyphname = b;
layers = (
{
layerId = master01;
paths = (
{
closed = 1;
nodes = (
"206 0 LINE",
"225 100 LINE",
"225 735 LINE",
"75 715 LINE",
"75 125 LINE",
"75 97 OFFCURVE",
"73 78 OFFCURVE",
"68 49 CURVE SMOOTH",
"60 0 LINE"
);
},
{
closed = 1;
nodes = (
"173 72 OFFCURVE",
"247 -12 OFFCURVE",
"351 -12 CURVE SMOOTH",
"477 -12 OFFCURVE",
"572 84 OFFCURVE",
"572 261 CURVE SMOOTH",
"572 430 OFFCURVE",
"481 537 OFFCURVE",
"375 537 CURVE SMOOTH",
"305 537 OFFCURVE",
"250 498 OFFCURVE",
"210 442 CURVE",
"210 346 LINE",
"241 380 OFFCURVE",
"285 401 OFFCURVE",
"325 401 CURVE SMOOTH",
"383 401 OFFCURVE",
"422 353 OFFCURVE",
"422 253 CURVE SMOOTH",
"422 159 OFFCURVE",
"375 106 OFFCURVE",
"311 106 CURVE SMOOTH",
"258 106 OFFCURVE",
"225 144 OFFCURVE",
"225 227 CURVE",
"173 222 LINE"
);
}
);
userData = {
com.schriftgestaltung.Glyphs.lastChange = "2021-03-11 23:37:00 +0000";
};
width = 610;
},
{
layerId = master02;
paths = (
{
closed = 1;
nodes = (
"182 0 LINE",
"197 100 LINE",
"197 735 LINE",
"60 715 LINE",
"60 125 LINE",
"60 97 OFFCURVE",
"58 78 OFFCURVE",
"54 49 CURVE SMOOTH",
"48 0 LINE"
);
},
{
closed = 1;
nodes = (
"151 71 OFFCURVE",
"208 -12 OFFCURVE",
"301 -12 CURVE",
"394 -12 OFFCURVE",
"488 84 OFFCURVE",
"488 276 CURVE SMOOTH",
"488 443 OFFCURVE",
"411 537 OFFCURVE",
"317 537 CURVE SMOOTH",
"262 537 OFFCURVE",
"217 507 OFFCURVE",
"185 468 CURVE",
"185 370 LINE",
"208 390 OFFCURVE",
"243 405 OFFCURVE",
"275 405 CURVE SMOOTH",
"321 405 OFFCURVE",
"352 364 OFFCURVE",
"352 267 CURVE",
"352 158 OFFCURVE",
"316 110 OFFCURVE",
"269 110 CURVE SMOOTH",
"222 110 OFFCURVE",
"197 146 OFFCURVE",
"197 192 CURVE",
"151 187 LINE"
);
}
);
userData = {
com.schriftgestaltung.Glyphs.lastChange = "2021-03-12 00:35:41 +0000";
};
width = 517;
},
{
layerId = master03;
paths = (
{
closed = 1;
nodes = (
"116 0 LINE",
"132 103 LINE",
"132 731 LINE",
"72 717 LINE",
"72 122 LINE",
"72 89 OFFCURVE",
"71 68 OFFCURVE",
"67 39 CURVE SMOOTH",
"61 0 LINE"
);
},
{
closed = 1;
nodes = (
"104 53 OFFCURVE",
"152 -8 OFFCURVE",
"237 -8 CURVE SMOOTH",
"338 -8 OFFCURVE",
"398 73 OFFCURVE",
"398 260 CURVE SMOOTH",
"398 433 OFFCURVE",
"347 518 OFFCURVE",
"252 518 CURVE SMOOTH",
"201 518 OFFCURVE",
"153 492 OFFCURVE",
"117 440 CURVE",
"117 389 LINE",
"157 442 OFFCURVE",
"197 464 OFFCURVE",
"244 464 CURVE SMOOTH",
"307 464 OFFCURVE",
"337 402 OFFCURVE",
"337 255 CURVE SMOOTH",
"337 103 OFFCURVE",
"308 44 OFFCURVE",
"233 44 CURVE SMOOTH",
"165 44 OFFCURVE",
"132 91 OFFCURVE",
"132 194 CURVE",
"104 181 LINE"
);
}
);
userData = {
com.schriftgestaltung.Glyphs.lastChange = "2021-03-30 20:51:29 +0000";
};
width = 441;
},
{
layerId = master04;
paths = (
{
closed = 1;
nodes = (
"144 0 LINE",
"161 100 LINE",
"161 735 LINE",
"73 715 LINE",
"73 122 LINE",
"73 94 OFFCURVE",
"72 73 OFFCURVE",
"68 44 CURVE SMOOTH",
"61 0 LINE"
);
},
{
closed = 1;
nodes = (
"126 40 OFFCURVE",
"196 -10 OFFCURVE",
"268 -10 CURVE SMOOTH",
"379 -10 OFFCURVE",
"455 93.757 OFFCURVE",
"455 264 CURVE SMOOTH",
"455 441.634 OFFCURVE",
"386 524 OFFCURVE",
"291 524 CURVE SMOOTH",
"230 524 OFFCURVE",
"179 487 OFFCURVE",
"148 454 CURVE",
"148 387 LINE",
"183 420 OFFCURVE",
"226 443 OFFCURVE",
"267 443 CURVE SMOOTH",
"324 443 OFFCURVE",
"366 389.495 OFFCURVE",
"366 264 CURVE SMOOTH",
"366 147.077 OFFCURVE",
"324 64 OFFCURVE",
"257 64 CURVE SMOOTH",
"207 64 OFFCURVE",
"161 104 OFFCURVE",
"161 197 CURVE",
"126 177 LINE"
);
}
);
userData = {
com.schriftgestaltung.Glyphs.lastChange = "2021-03-12 00:18:25 +0000";
};
width = 498;
},
{
layerId = master05;
paths = (
{
closed = 1;
nodes = (
"139 0 LINE",
"155 103 LINE",
"155 731 LINE",
"95 717 LINE",
"95 122 LINE",
"95 89 OFFCURVE",
"94 68 OFFCURVE",
"90 39 CURVE SMOOTH",
"84 0 LINE"
);
},
{
closed = 1;
nodes = (
"127 62 OFFCURVE",
"202 -8 OFFCURVE",
"297 -8 CURVE SMOOTH",
"408 -8 OFFCURVE",
"501 73 OFFCURVE",
"501 260 CURVE SMOOTH",
"501 435 OFFCURVE",
"416 518 OFFCURVE",
"313 518 CURVE SMOOTH",
"248 518 OFFCURVE",
"179 475 OFFCURVE",
"140 417 CURVE",
"140 369 LINE",
"183 428 OFFCURVE",
"244 463 OFFCURVE",
"305 463 CURVE SMOOTH",
"376 463 OFFCURVE",
"440 404 OFFCURVE",
"440 255 CURVE SMOOTH",
"440 103 OFFCURVE",
"378 44 OFFCURVE",
"293 44 CURVE SMOOTH",
"215 44 OFFCURVE",
"155 97 OFFCURVE",
"155 200 CURVE",
"127 190 LINE"
);
}
);
userData = {
com.schriftgestaltung.Glyphs.lastChange = "2021-03-12 01:00:19 +0000";
};
width = 561;
},
{
layerId = master06;
paths = (
{
closed = 1;
nodes = (
"161 0 LINE",
"182 100 LINE",
"182 735 LINE",
"90 715 LINE",
"90 122 LINE",
"90 94 OFFCURVE",
"88 73 OFFCURVE",
"83 44 CURVE SMOOTH",
"75 0 LINE"
);
},
{
closed = 1;
nodes = (
"142 54 OFFCURVE",
"232 -10 OFFCURVE",
"318 -10 CURVE",
"447 -10 OFFCURVE",
"531 92 OFFCURVE",
"531 262 CURVE SMOOTH",
"531 426 OFFCURVE",
"444 525 OFFCURVE",
"339 525 CURVE SMOOTH",
"273 525 OFFCURVE",
"211 486 OFFCURVE",
"167 430 CURVE",
"167 361 LINE",
"211 410 OFFCURVE",
"264 440 OFFCURVE",
"314 440 CURVE SMOOTH",
"384 440 OFFCURVE",
"437 376 OFFCURVE",
"437 259 CURVE SMOOTH",
"437 146 OFFCURVE",
"386 67 OFFCURVE",
"303 67 CURVE",
"243 67 OFFCURVE",
"182 117 OFFCURVE",
"182 232 CURVE",
"142 222 LINE"
);
}
);
userData = {
com.schriftgestaltung.Glyphs.lastChange = "2021-03-11 23:43:42 +0000";
};
width = 586;
}
);
leftKerningGroup = l;
rightKerningGroup = o;
unicode = 0062;
},
{
color = 5;
glyphname = c;
layers = (
{
anchors = (
{
name = bottom;
position = "{289, 0}";
},
{
name = top;
position = "{301, 525}";
}
);
guideLines = (
{
angle = 90;
position = "{468, 495}";
}
);
layerId = master01;
paths = (
{
closed = 1;
nodes = (
"38 91 OFFCURVE",
"142 -12 OFFCURVE",
"299 -12 CURVE SMOOTH",
"370 -12 OFFCURVE",
"428 6 OFFCURVE",
"472 30 CURVE",
"418 149 LINE",
"393 132 OFFCURVE",
"355 120 OFFCURVE",
"321 120 CURVE SMOOTH",
"245 120 OFFCURVE",
"190 167 OFFCURVE",
"190 257 CURVE SMOOTH",
"190 360 OFFCURVE",
"245 407 OFFCURVE",
"315 407 CURVE SMOOTH",
"352 407 OFFCURVE",
"388.723 395 OFFCURVE",
"414 376 CURVE",
"468 495 LINE",
"423.586 519 OFFCURVE",
"372 537 OFFCURVE",
"311 537 CURVE SMOOTH",
"151 537 OFFCURVE",
"38 426 OFFCURVE",
"38 252 CURVE SMOOTH"
);
}
);
userData = {
com.schriftgestaltung.Glyphs.lastChange = "2021-03-11 23:37:00 +0000";
com.typemytype.robofont.guideline.magnetic.RPLxnaDm0o = 5;
};
width = 497;
},
{
anchors = (
{
name = bottom;
position = "{243, 0}";
},
{
name = top;
position = "{256, 526}";
}
);
guideLines = (
{
angle = 90;
position = "{393, 497}";
},
{
angle = 90;
position = "{338, 384}";
}
);
layerId = master02;
paths = (
{
closed = 1;
nodes = (
"29 94 OFFCURVE",
"124 -12 OFFCURVE",
"266 -12 CURVE SMOOTH",
"318 -12 OFFCURVE",
"359 4 OFFCURVE",
"397 28 CURVE",
"342 141 LINE",
"324 128 OFFCURVE",
"299 119 OFFCURVE",
"275 119 CURVE SMOOTH",
"216 119 OFFCURVE",
"169 171 OFFCURVE",
"169 266 CURVE SMOOTH",
"169 359 OFFCURVE",
"216 406 OFFCURVE",
"275 406 CURVE SMOOTH",
"299 406 OFFCURVE",
"324 397 OFFCURVE",
"342 384 CURVE",
"397 497 LINE",
"359 521 OFFCURVE",
"318 537 OFFCURVE",
"266 537 CURVE SMOOTH",
"128 537 OFFCURVE",
"29 428 OFFCURVE",
"29 257 CURVE SMOOTH"
);
}
);
userData = {
com.schriftgestaltung.Glyphs.lastChange = "2021-03-12 00:35:41 +0000";
com.typemytype.robofont.guideline.magnetic.EP58501PoS = 5;
com.typemytype.robofont.guideline.magnetic.QJFwEr2W9F = 5;
};
width = 410;
},
{
anchors = (
{
name = bottom;
position = "{234, 0}";
},
{
name = top;
position = "{233, 510}";
}
);
layerId = master03;
paths = (
{
closed = 1;
nodes = (
"43 82 OFFCURVE",
"129 -8 OFFCURVE",
"232 -8 CURVE",
"284 -8 OFFCURVE",
"333 18 OFFCURVE",
"365 70 CURVE",
"321 100 LINE",
"297 65 OFFCURVE",
"265 48 OFFCURVE",
"231 48 CURVE",
"171 48 OFFCURVE",
"104 112 OFFCURVE",
"104 255 CURVE",
"104 395 OFFCURVE",
"170 462 OFFCURVE",
"224 462 CURVE",
"260 462 OFFCURVE",
"295 447 OFFCURVE",
"321 407 CURVE",
"367 440 LINE",
"332 496 OFFCURVE",
"282 518 OFFCURVE",
"225 518 CURVE",
"136 518 OFFCURVE",
"43 425 OFFCURVE",
"43 255 CURVE"
);
}
);
userData = {
com.schriftgestaltung.Glyphs.lastChange = "2021-03-30 17:30:37 +0000";
};
width = 398;
},
{
anchors = (
{
name = bottom;
position = "{242, 0}";
},
{
name = top;
position = "{244, 514}";
}
);
layerId = master04;
paths = (
{
closed = 1;
nodes = (
"43 82 OFFCURVE",
"137 -10 OFFCURVE",
"257 -10 CURVE SMOOTH",
"322 -10 OFFCURVE",
"374 15 OFFCURVE",
"407 49 CURVE",
"360 107 LINE",
"338 88 OFFCURVE",
"304.844 71 OFFCURVE",
"266 71 CURVE SMOOTH",
"194.081 71 OFFCURVE",
"133 135 OFFCURVE",
"133 254 CURVE SMOOTH",
"133 379 OFFCURVE",
"193.93 444 OFFCURVE",
"264 444 CURVE SMOOTH",
"298.157 444 OFFCURVE",
"324.494 427.086 OFFCURVE",
"345 407 CURVE",
"394 466 LINE",
"361.511 504.321 OFFCURVE",
"313.794 524 OFFCURVE",
"261 524 CURVE SMOOTH",
"138 524 OFFCURVE",
"43 422 OFFCURVE",
"43 254 CURVE SMOOTH"
);
}
);
userData = {
com.schriftgestaltung.Glyphs.lastChange = "2021-03-12 00:18:25 +0000";
};
width = 438;
},
{
anchors = (
{
name = bottom;
position = "{269, 0}";
},
{
name = top;
position = "{269, 510}";
}
);
layerId = master05;
paths = (
{
closed = 1;
nodes = (
"60 82 OFFCURVE",
"157 -8 OFFCURVE",
"279 -8 CURVE",
"346 -8 OFFCURVE",
"404 24 OFFCURVE",
"443 77 CURVE",
"396 110 LINE",
"369 69 OFFCURVE",
"326 48 OFFCURVE",
"277 48 CURVE",
"187 48 OFFCURVE",
"121 112 OFFCURVE",
"121 255 CURVE",
"121 395 OFFCURVE",
"186 462 OFFCURVE",
"277 462 CURVE",
"325 462 OFFCURVE",
"367 443 OFFCURVE",
"395 402 CURVE",
"442 435 LINE",
"403 489 OFFCURVE",
"345 518 OFFCURVE",
"279 518 CURVE",
"157 518 OFFCURVE",
"60 425 OFFCURVE",
"60 255 CURVE"
);
}
);
userData = {
com.schriftgestaltung.Glyphs.lastChange = "2021-03-12 01:00:19 +0000";
};
width = 493;
},
{
anchors = (
{
name = bottom;
position = "{286, 0}";
},
{
name = top;
position = "{286, 515}";
}
);
layerId = master06;
paths = (
{
closed = 1;
nodes = (
"55 77 OFFCURVE",
"161 -10 OFFCURVE",
"301 -10 CURVE SMOOTH",
"365 -10 OFFCURVE",
"429 13 OFFCURVE",
"469 55 CURVE",
"416 122 LINE",
"389 94 OFFCURVE",
"349 74 OFFCURVE",
"297 74 CURVE SMOOTH",
"218 74 OFFCURVE",
"149 132 OFFCURVE",
"149 252 CURVE SMOOTH",
"149 372 OFFCURVE",
"220 441 OFFCURVE",
"302 441 CURVE SMOOTH",
"349 441 OFFCURVE",
"386 422 OFFCURVE",
"411 393 CURVE",
"467 460 LINE",
"427 502 OFFCURVE",
"365 525 OFFCURVE",
"306 525 CURVE SMOOTH",
"166 525 OFFCURVE",
"55 421 OFFCURVE",
"55 252 CURVE SMOOTH"
);
}
);
userData = {
com.schriftgestaltung.Glyphs.lastChange = "2021-03-11 23:43:42 +0000";
};
width = 504;
}
);
leftKerningGroup = o;
rightKerningGroup = c;
unicode = 0063;
},
{
color = 4;
glyphname = d;
layers = (
{
anchors = (
{
name = caron.alt;
position = "{610, 720}";
}
);
layerId = master01;
paths = (
{
closed = 1;
nodes = (
"38 95 OFFCURVE",
"129 -12 OFFCURVE",
"235 -12 CURVE SMOOTH",
"305 -12 OFFCURVE",
"360 27 OFFCURVE",
"400 83 CURVE",
"400 182 LINE",
"369 145 OFFCURVE",
"325 124 OFFCURVE",
"285 124 CURVE SMOOTH",
"227 124 OFFCURVE",
"188 172 OFFCURVE",
"188 272 CURVE SMOOTH",
"188 366 OFFCURVE",
"235 419 OFFCURVE",
"299 419 CURVE SMOOTH",
"352 419 OFFCURVE",
"386 381 OFFCURVE",
"386 298 CURVE",
"437 303 LINE",
"437 445 OFFCURVE",
"363 537 OFFCURVE",
"259 537 CURVE SMOOTH",
"133 537 OFFCURVE",
"38 441 OFFCURVE",
"38 264 CURVE SMOOTH"
);
},
{
closed = 1;
nodes = (
"550 0 LINE",
"542 49 LINE SMOOTH",
"537 78 OFFCURVE",
"535 97 OFFCURVE",
"535 125 CURVE SMOOTH",
"535 735 LINE",
"385 715 LINE",
"385 100 LINE",
"404 0 LINE"
);
}
);
userData = {
com.schriftgestaltung.Glyphs.lastChange = "2021-03-11 04:14:59 +0000";
};
width = 610;
},
{
anchors = (
{
name = caron.alt;
position = "{517, 720}";
}
);
layerId = master02;
paths = (
{
closed = 1;
nodes = (
"28 87 OFFCURVE",
"105 -12 OFFCURVE",
"207 -12 CURVE",
"265 -11 OFFCURVE",
"300 18 OFFCURVE",
"333 57 CURVE",
"333 161 LINE",
"309 139 OFFCURVE",
"281 122 OFFCURVE",
"247 122 CURVE SMOOTH",
"192 122 OFFCURVE",
"166 173 OFFCURVE",
"166 262 CURVE SMOOTH",
"166 361 OFFCURVE",
"203 419 OFFCURVE",
"248 419 CURVE SMOOTH",
"294 419 OFFCURVE",
"320 384 OFFCURVE",
"320 339 CURVE",
"365 354 LINE",
"365 467 OFFCURVE",
"310 537 OFFCURVE",
"219 537 CURVE SMOOTH",
"125 537 OFFCURVE",
"28 453 OFFCURVE",
"28 248 CURVE SMOOTH"
);
},
{
closed = 1;
nodes = (
"469 0 LINE",
"463 49 LINE SMOOTH",
"458 78 OFFCURVE",
"457 97 OFFCURVE",
"457 125 CURVE SMOOTH",
"457 735 LINE",
"320 715 LINE",
"320 80 LINE",
"335 0 LINE"
);
}
);
userData = {
com.schriftgestaltung.Glyphs.lastChange = "2021-03-12 00:35:41 +0000";
};
width = 517;
},
{
anchors = (
{
name = caron.alt;
position = "{427, 720}";
}
);
layerId = master03;
paths = (
{
closed = 1;
nodes = (
"42 75 OFFCURVE",
"105 -10 OFFCURVE",
"195 -8 CURVE SMOOTH",
"254 -7 OFFCURVE",
"295 29 OFFCURVE",
"319 77 CURVE",
"319 136 LINE",
"296 85 OFFCURVE",
"260 47 OFFCURVE",
"203 47 CURVE SMOOTH",
"145 47 OFFCURVE",
"103 106 OFFCURVE",
"103 255 CURVE SMOOTH",
"103 397 OFFCURVE",
"133 466 OFFCURVE",
"206 466 CURVE SMOOTH",
"272 466 OFFCURVE",
"305 416 OFFCURVE",
"305 320 CURVE",
"332 330 LINE",
"332 451 OFFCURVE",
"289 518 OFFCURVE",
"202 518 CURVE SMOOTH",
"103 518 OFFCURVE",
"42 427 OFFCURVE",
"42 250 CURVE SMOOTH"
);
},
{
closed = 1;
nodes = (
"376 0 LINE",
"370 39 LINE SMOOTH",
"366 68 OFFCURVE",
"365 89 OFFCURVE",
"365 122 CURVE SMOOTH",
"365 731 LINE",
"305 717 LINE",
"305 103 LINE",
"320 0 LINE"
);
}
);
userData = {
com.schriftgestaltung.Glyphs.lastChange = "2021-03-30 20:37:12 +0000";
};
width = 437;
},
{
anchors = (
{
name = caron.alt;
position = "{498, 720}";
}
);
layerId = master04;
paths = (
{
closed = 1;
nodes = (
"42 89 OFFCURVE",
"114 -11 OFFCURVE",
"216 -10 CURVE SMOOTH",
"269 -9 OFFCURVE",
"317 19 OFFCURVE",
"350 60 CURVE",
"350 130 LINE",
"316 94 OFFCURVE",
"277 71 OFFCURVE",
"236 71 CURVE SMOOTH",
"176.162 71 OFFCURVE",
"133 137 OFFCURVE",
"133 257 CURVE SMOOTH",
"133 369 OFFCURVE",
"176.235 448 OFFCURVE",
"246 448 CURVE SMOOTH",
"293 448 OFFCURVE",
"337 409 OFFCURVE",
"337 317 CURVE",
"372 337 LINE",
"372 474 OFFCURVE",
"302 524 OFFCURVE",
"229 524 CURVE SMOOTH",
"119 524 OFFCURVE",
"42 422 OFFCURVE",
"42 252 CURVE SMOOTH"
);
},
{
closed = 1;
nodes = (
"437 0 LINE",
"430 44 LINE SMOOTH",
"426 73 OFFCURVE",
"425 94 OFFCURVE",
"425 122 CURVE SMOOTH",
"425 735 LINE",
"337 715 LINE",
"337 100 LINE",
"354 0 LINE"
);
}
);
userData = {
com.schriftgestaltung.Glyphs.lastChange = "2021-03-12 00:18:25 +0000";
};
width = 498;
},
{
anchors = (
{
name = caron.alt;
position = "{561, 720}";
}
);
layerId = master05;
paths = (
{
closed = 1;
nodes = (
"60 75 OFFCURVE",
"145 -8 OFFCURVE",
"248 -8 CURVE SMOOTH",
"313 -8 OFFCURVE",
"382 35 OFFCURVE",
"421 93 CURVE",
"421 144 LINE",
"378 83 OFFCURVE",
"317 47 OFFCURVE",
"256 47 CURVE SMOOTH",
"185 47 OFFCURVE",
"121 105.828 OFFCURVE",
"121 255 CURVE SMOOTH",
"121 406.805 OFFCURVE",
"183 466 OFFCURVE",
"268 466 CURVE SMOOTH",
"346 466 OFFCURVE",
"406 413 OFFCURVE",
"406 310 CURVE",
"434 317 LINE",
"434 445 OFFCURVE",
"359 518 OFFCURVE",
"264 518 CURVE SMOOTH",
"153 518 OFFCURVE",
"60 437 OFFCURVE",
"60 250 CURVE SMOOTH"
);
},
{
closed = 1;
nodes = (
"477 0 LINE",
"471 39 LINE SMOOTH",
"467 68 OFFCURVE",
"466 89 OFFCURVE",
"466 122 CURVE SMOOTH",
"466 731 LINE",
"406 717 LINE",
"406 103 LINE",
"422 0 LINE"
);
}
);
userData = {
com.schriftgestaltung.Glyphs.lastChange = "2021-03-12 01:00:19 +0000";
};
width = 561;
},
{
anchors = (
{
name = caron.alt;
position = "{586, 720}";
}
);
layerId = master06;
paths = (
{
closed = 1;
nodes = (
"55 89 OFFCURVE",
"142 -10 OFFCURVE",
"247 -10 CURVE SMOOTH",
"313 -10 OFFCURVE",
"375 29 OFFCURVE",
"419 85 CURVE",
"419 157 LINE",
"375 107 OFFCURVE",
"325 75 OFFCURVE",
"272 75 CURVE SMOOTH",
"202 75 OFFCURVE",
"149 139 OFFCURVE",
"149 256 CURVE SMOOTH",
"149 369 OFFCURVE",
"200 448 OFFCURVE",
"283 448 CURVE",
"343 448 OFFCURVE",
"404 398 OFFCURVE",
"404 283 CURVE",
"444 293 LINE",
"444 461 OFFCURVE",
"354 525 OFFCURVE",
"267 525 CURVE",
"139 525 OFFCURVE",
"55 423 OFFCURVE",
"55 253 CURVE SMOOTH"
);
},
{
closed = 1;
nodes = (
"511 0 LINE",
"503 44 LINE SMOOTH",
"498 73 OFFCURVE",
"496 94 OFFCURVE",
"496 122 CURVE SMOOTH",
"496 735 LINE",
"404 715 LINE",
"404 100 LINE",
"425 0 LINE"
);
}
);
userData = {
com.schriftgestaltung.Glyphs.lastChange = "2021-03-11 23:43:42 +0000";
};
width = 586;
}
);
leftKerningGroup = o;
rightKerningGroup = l;
unicode = 0064;
},
{
color = 4;
glyphname = eth;
layers = (
{
layerId = master01;
paths = (
{
closed = 1;
nodes = (
"45 75 OFFCURVE",
"155 -12 OFFCURVE",
"286 -12 CURVE SMOOTH",
"420 -12 OFFCURVE",
"530 85 OFFCURVE",
"530 280 CURVE SMOOTH",
"530 460 OFFCURVE",
"400 640 OFFCURVE",
"280 720 CURVE",
"100 720 LINE",
"260 600 OFFCURVE",
"380 440 OFFCURVE",
"380 280 CURVE SMOOTH",
"380 165 OFFCURVE",
"341 110 OFFCURVE",
"286 110 CURVE SMOOTH",
"233 110 OFFCURVE",
"190 155 OFFCURVE",
"190 235 CURVE SMOOTH",
"190 315 OFFCURVE",
"233 360 OFFCURVE",
"286 360 CURVE SMOOTH",
"334 360 OFFCURVE",
"374 332 OFFCURVE",
"400 280 CURVE",
"420 380 LINE",
"390 430 OFFCURVE",
"340 482 OFFCURVE",
"260 482 CURVE SMOOTH",
"155 482 OFFCURVE",
"45 395 OFFCURVE",
"45 235 CURVE SMOOTH"
);
},
{
closed = 1;
nodes = (
"466 650 LINE",
"430 732 LINE",
"130 605 LINE",
"166 523 LINE"
);
}
);
userData = {
com.schriftgestaltung.Glyphs.lastChange = "2021-03-11 04:14:59 +0000";
};
width = 580;
},
{
layerId = master02;
paths = (
{
closed = 1;
nodes = (
"36 75 OFFCURVE",
"129.912 -12 OFFCURVE",
"242 -12 CURVE SMOOTH",
"355.894 -12 OFFCURVE",
"448 86 OFFCURVE",
"448 286 CURVE SMOOTH",
"448 479 OFFCURVE",
"337 640.731 OFFCURVE",
"235 720 CURVE",
"73 720 LINE",
"187 630 OFFCURVE",
"320 487 OFFCURVE",
"320 274 CURVE SMOOTH",
"320 179 OFFCURVE",
"288.61 114 OFFCURVE",
"242 114 CURVE SMOOTH",
"200.904 114 OFFCURVE",
"167 158.727 OFFCURVE",
"167 237 CURVE SMOOTH",
"167 315.73 OFFCURVE",
"201.808 361 OFFCURVE",
"244 361 CURVE SMOOTH",
"281.304 361 OFFCURVE",
"311.467 342 OFFCURVE",
"332 307 CURVE",
"343 395 LINE",
"320 438 OFFCURVE",
"280.016 482 OFFCURVE",
"219 482 CURVE SMOOTH",
"130.028 482 OFFCURVE",
"36 395 OFFCURVE",
"36 235 CURVE SMOOTH"
);
},
{
closed = 1;
nodes = (
"395 647 LINE",
"356 730 LINE",
"95 604 LINE",
"133 522 LINE"
);
}
);
userData = {
com.schriftgestaltung.Glyphs.lastChange = "2021-03-12 00:35:41 +0000";
};
width = 488;
},
{
layerId = master03;
paths = (
{
closed = 1;
nodes = (
"45 76 OFFCURVE",
"137 -8 OFFCURVE",
"236 -8 CURVE SMOOTH",
"335 -8 OFFCURVE",
"424 86 OFFCURVE",
"425 260 CURVE SMOOTH",
"426 460 OFFCURVE",
"330 630 OFFCURVE",
"215 720 CURVE",
"130 720 LINE",
"285 605 OFFCURVE",
"365 440 OFFCURVE",
"365 260 CURVE SMOOTH",
"365 123 OFFCURVE",
"305 47 OFFCURVE",
"236 47 CURVE SMOOTH",
"166 47 OFFCURVE",
"105 112 OFFCURVE",
"105 235 CURVE SMOOTH",
"105 358 OFFCURVE",
"167 423 OFFCURVE",
"236 423 CURVE SMOOTH",
"286 423 OFFCURVE",
"340 378 OFFCURVE",
"370 310 CURVE",
"370 370 LINE",
"347 425 OFFCURVE",
"302 478 OFFCURVE",
"226 478 CURVE SMOOTH",
"137 478 OFFCURVE",
"45 394 OFFCURVE",
"45 235 CURVE SMOOTH"
);
},
{
closed = 1;
nodes = (
"395 684 LINE",
"371 728 LINE",
"121 588 LINE",
"145 544 LINE"
);
}
);
userData = {
com.schriftgestaltung.Glyphs.lastChange = "2021-03-11 22:25:12 +0000";
};
width = 475;
},
{
layerId = master04;
paths = (
{
closed = 1;
nodes = (
"45 75 OFFCURVE",
"128 -10 OFFCURVE",
"232 -10 CURVE SMOOTH",
"337.512 -10 OFFCURVE",
"436.995 93.868 OFFCURVE",
"438 268 CURVE SMOOTH",
"439.005 465.812 OFFCURVE",
"335.493 637.818 OFFCURVE",
"236 720 CURVE",
"129 720 LINE",
"271 602 OFFCURVE",
"356 452 OFFCURVE",
"356 265 CURVE SMOOTH",
"356 143 OFFCURVE",
"296 68 OFFCURVE",
"234 68 CURVE SMOOTH",
"178 68 OFFCURVE",
"133 126 OFFCURVE",
"133 235 CURVE SMOOTH",
"133 344 OFFCURVE",
"181 402 OFFCURVE",
"241 402 CURVE SMOOTH",
"290 402 OFFCURVE",
"334 372 OFFCURVE",
"357 327 CURVE",
"361 395 LINE",
"335.942 437.5 OFFCURVE",
"297.391 480 OFFCURVE",
"228 480 CURVE SMOOTH",
"137.528 480 OFFCURVE",
"45 395 OFFCURVE",
"45 235 CURVE SMOOTH"
);
},
{
closed = 1;
nodes = (
"382 680 LINE",
"350 731 LINE",
"130 590 LINE",
"162 539 LINE"
);
}
);
userData = {
com.schriftgestaltung.Glyphs.lastChange = "2021-03-12 00:18:25 +0000";
};
width = 486;
},
{
layerId = master05;
paths = (
{
closed = 1;
nodes = (
"65 76 OFFCURVE",
"167 -8 OFFCURVE",
"286 -8 CURVE SMOOTH",
"405 -8 OFFCURVE",
"504 86 OFFCURVE",
"505 260 CURVE SMOOTH",
"506 460 OFFCURVE",
"380 630 OFFCURVE",
"265 720 CURVE",
"180 720 LINE",
"335 605 OFFCURVE",
"445 440 OFFCURVE",
"445 260 CURVE SMOOTH",
"445 123 OFFCURVE",
"375 47 OFFCURVE",
"286 47 CURVE SMOOTH",
"196 47 OFFCURVE",
"125 112 OFFCURVE",
"125 235 CURVE SMOOTH",
"125 358 OFFCURVE",
"197 423 OFFCURVE",
"286 423 CURVE SMOOTH",
"356 423 OFFCURVE",
"416 375 OFFCURVE",
"450 310 CURVE",
"450 370 LINE",
"420 420 OFFCURVE",
"372 478 OFFCURVE",
"276 478 CURVE SMOOTH",
"167 478 OFFCURVE",
"65 394 OFFCURVE",
"65 235 CURVE SMOOTH"
);
},
{
closed = 1;
nodes = (
"445 684 LINE",
"421 728 LINE",
"171 588 LINE",
"195 544 LINE"
);
}
);
userData = {
com.schriftgestaltung.Glyphs.lastChange = "2021-03-12 01:00:19 +0000";
};
width = 575;
},
{
layerId = master06;
paths = (
{
closed = 1;
nodes = (
"55 75 OFFCURVE",
"162 -10 OFFCURVE",
"286 -10 CURVE SMOOTH",
"410 -10 OFFCURVE",
"514 85 OFFCURVE",
"515 260 CURVE SMOOTH",
"516 460 OFFCURVE",
"396 636 OFFCURVE",
"280 720 CURVE",
"160 720 LINE",
"312 606 OFFCURVE",
"423 440 OFFCURVE",
"423 260 CURVE SMOOTH",
"423 138 OFFCURVE",
"362 71 OFFCURVE",
"286 71 CURVE SMOOTH",
"210 71 OFFCURVE",
"149 128 OFFCURVE",
"149 235 CURVE SMOOTH",
"149 342 OFFCURVE",
"210 399 OFFCURVE",
"286 399 CURVE SMOOTH",
"346 399 OFFCURVE",
"402 364 OFFCURVE",
"430 310 CURVE",
"430 380 LINE",
"400 430 OFFCURVE",
"352 480 OFFCURVE",
"266 480 CURVE SMOOTH",
"162 480 OFFCURVE",
"55 395 OFFCURVE",
"55 235 CURVE SMOOTH"
);
},
{
closed = 1;
nodes = (
"449 678 LINE",
"420 730 LINE",
"170 590 LINE",
"199 538 LINE"
);
}
);
userData = {
com.schriftgestaltung.Glyphs.lastChange = "2021-03-11 23:43:42 +0000";
};
width = 575;
}
);
unicode = 00F0;
},
